<?xml version="1.0" encoding="UTF-8" standalone="no"?>
<svg
   xmlns:dc="http://purl.org/dc/elements/1.1/"
   xmlns:cc="http://creativecommons.org/ns#"
   xmlns:rdf="http://www.w3.org/1999/02/22-rdf-syntax-ns#"
   xmlns:svg="http://www.w3.org/2000/svg"
   xmlns="http://www.w3.org/2000/svg"
   xmlns:sodipodi="http://sodipodi.sourceforge.net/DTD/sodipodi-0.dtd"
   xmlns:inkscape="http://www.inkscape.org/namespaces/inkscape"
   sodipodi:docname="CroppedImageBorder.svg"
   inkscape:version="1.0 (4035a4fb49, 2020-05-01)"
   id="svg8"
   version="1.1"
   viewBox="0 0 210 297"
   height="297mm"
   width="210mm">
  <defs
     id="defs2" />
  <sodipodi:namedview
     inkscape:window-maximized="0"
     inkscape:window-y="0"
     inkscape:window-x="81"
     inkscape:window-height="872"
     inkscape:window-width="1274"
     showgrid="false"
     inkscape:document-rotation="0"
     inkscape:current-layer="layer1"
     inkscape:document-units="mm"
     inkscape:cy="400.69635"
     inkscape:cx="351.48681"
     inkscape:zoom="1.4"
     inkscape:pageshadow="2"
     inkscape:pageopacity="0.0"
     borderopacity="1.0"
     bordercolor="#666666"
     pagecolor="#ffffff"
     id="base" />
  <metadata
     id="metadata5">
    <rdf:RDF>
      <cc:Work
         rdf:about="">
        <dc:format>image/svg+xml</dc:format>
        <dc:type
           rdf:resource="http://purl.org/dc/dcmitype/StillImage" />
        <dc:title></dc:title>
      </cc:Work>
    </rdf:RDF>
  </metadata>
  <g
     id="layer1"
     inkscape:groupmode="layer"
     inkscape:label="Layer 1">
    <path
       id="path24"
       d="M 31.409817,119.44048 V 69.963394 h 49.477085 49.477088 v 49.477086 49.47708 H 80.886902 31.409817 Z m 2.980381,49.05434 c 0.27682,-0.27682 -0.110028,-0.90002 -0.561293,-0.90422 -0.377337,-0.004 -0.382331,-0.0379 -0.03784,-0.26054 0.351969,-0.22746 0.351584,-0.25694 -0.0034,-0.26053 -0.220155,-0.002 -0.517811,-0.26113 -0.661459,-0.57533 -0.143648,-0.3142 -0.529068,-0.66755 -0.85649,-0.78522 -0.574758,-0.20656 -0.595313,-0.15943 -0.595313,1.36503 v 1.57897 h 1.27882 c 0.703351,0 1.349991,-0.0712 1.436978,-0.15816 z m 3.831917,-0.67304 c 0.136938,-0.52365 0.596036,-0.68404 0.596036,-0.20823 0,0.88779 0.730649,1.03943 5.008184,1.03943 h 4.252233 l -3.18e-4,-0.7276 c -1.78e-4,-0.40019 -0.297834,-1.07355 -0.661458,-1.49637 -0.36363,-0.42281 -0.661141,-0.98133 -0.661141,-1.24115 0,-0.25982 -0.119976,-0.54655 -0.266613,-0.63718 -0.410714,-0.25383 0.466182,-0.99093 1.178874,-0.99093 0.573468,0 0.599819,-0.0612 0.355858,-0.82682 -0.14491,-0.45475 -0.258311,-1.04158 -0.252003,-1.30405 0.0063,-0.26247 -0.189971,-0.5397 -0.436177,-0.61606 -0.811215,-0.25161 -2.031404,-0.97578 -2.246732,-1.33342 -0.116372,-0.19328 -0.450005,-0.35142 -0.741407,-0.35142 -0.502394,0 -0.521178,-0.11985 -0.362855,-2.3151 0.09183,-1.27331 0.215098,-2.46844 0.273925,-2.65585 0.175428,-0.55888 -0.55471,-0.65389 -2.501527,-0.32551 -1.114681,0.18801 -1.896514,0.45862 -1.98404,0.68671 -0.07944,0.20703 -0.324508,0.37642 -0.544584,0.37642 -0.221475,0 -0.471324,0.32487 -0.559569,0.7276 -0.08769,0.40018 -0.214119,0.89946 -0.280959,1.10951 -0.395054,1.24148 1.136372,4.2483 2.163732,4.2483 0.210784,0 0.383243,0.12162 0.383243,0.27026 0,0.14864 0.29037,0.40256 0.645266,0.56426 0.996137,0.45387 0.329873,0.85092 -2.100474,1.25174 -2.388798,0.39397 -2.513542,0.44221 -2.513542,0.97207 0,0.20969 -0.164149,0.38126 -0.364776,0.38126 -0.602529,0 -1.076067,1.60896 -0.987428,3.35503 0.04836,0.95255 2.360554,0.9943 2.608252,0.0471 z m 6.549161,-4.63424 c -0.516168,-0.41117 -0.512919,-0.41755 0.132291,-0.25978 0.363803,0.089 0.810287,0.16337 0.992188,0.16536 0.181901,0.002 0.330729,0.12267 0.330729,0.26819 0,0.40283 -0.860344,0.30009 -1.455208,-0.17377 z m 12.369271,5.29021 c -0.181901,-0.0734 -0.330729,-0.27006 -0.330729,-0.43702 0,-0.16696 -0.257347,-0.92446 -0.571883,-1.68334 -0.833,-2.00976 -1.877212,-2.35927 -4.82582,-1.61527 -1.768331,0.44619 -2.804381,1.50755 -2.804381,2.87288 v 1.03798 l 4.431771,-0.0209 c 2.437474,-0.0115 4.282943,-0.0809 4.101042,-0.15434 z m 11.840105,-0.86166 c 0,-1.10799 -0.61722,-2.42974 -1.347624,-2.88589 -0.476795,-0.29776 -2.331307,0.10287 -2.658769,0.57438 -0.09346,0.13457 -1.184293,0.26917 -2.424067,0.29911 -2.399446,0.0579 -2.702426,0.19952 -3.296063,1.54039 -0.681861,1.54013 -0.779111,1.5089 4.699439,1.5089 h 5.027084 z m 10.054167,0.83072 c 0,-0.24218 -0.65781,-0.73883 -1.5875,-1.19858 -0.478277,-0.23652 -0.68561,-0.57953 -0.748665,-1.2386 -0.132559,-1.38549 -1.313834,-2.38373 -2.820803,-2.38373 -0.656167,0 -1.193033,0.11906 -1.193033,0.26458 0,0.14552 -0.189989,0.26458 -0.422198,0.26458 -1.159243,0 -2.816955,1.79014 -2.619605,2.82887 0.04999,0.26313 0.10001,0.74632 0.111143,1.07374 0.02019,0.59391 0.03114,0.59531 4.650452,0.59531 2.546615,0 4.630209,-0.0928 4.630209,-0.20617 z m 10.777434,-0.21472 c 0.357476,-0.35747 0.364593,-0.45652 0.04725,-0.6574 -0.673336,-0.42624 -1.299681,-0.27848 -1.299681,0.30659 0,0.32627 -0.134969,0.50402 -0.330729,0.43556 -0.202462,-0.0708 -0.308788,-0.51547 -0.274154,-1.14653 0.08612,-1.56917 -0.126208,-2.2215 -0.723074,-2.2215 -0.288269,0 -0.524126,0.11907 -0.524126,0.26459 0,0.14552 -0.224457,0.26458 -0.49879,0.26458 -1.061755,0 -2.097088,0.61472 -3.899184,2.3151 l -0.911333,0.8599 h 3.99647 c 3.300969,0 4.069713,-0.0733 4.417354,-0.42089 z m 17.096577,-0.0421 c 0.0706,-0.25466 0.0869,-0.82021 0.0362,-1.25677 -0.0507,-0.43656 -0.17729,-1.65695 -0.28126,-2.71198 -0.10396,-1.05503 -0.27906,-1.91823 -0.3891,-1.91823 -0.11004,0 -0.44367,-0.41287 -0.74141,-0.9175 -0.30375,-0.51481 -0.83626,-0.99151 -1.21331,-1.08615 -0.89053,-0.22351 -5.108424,0.38559 -5.51996,0.79712 -0.17794,0.17794 -0.626539,0.39958 -0.996889,0.49253 -1.052192,0.26408 -3.107153,2.45354 -3.430752,3.65529 -0.215969,0.80205 -0.22267,2.65891 -0.01206,3.34256 0.01122,0.0364 2.810325,0.0662 6.220251,0.0662 5.67934,0 6.21066,-0.0389 6.3283,-0.46302 z m 13.07026,-0.0264 c 1.33381,-1.4098 1.42876,-1.65055 1.45501,-3.68891 0.017,-1.32253 -0.0802,-2.04414 -0.28462,-2.11229 -0.17077,-0.0569 -0.31049,-0.32766 -0.31049,-0.60164 0,-0.51049 -0.78732,-2.39464 -1.10047,-2.63353 -0.0959,-0.0732 -0.3673,-0.61512 -0.60304,-1.20429 -0.26316,-0.6577 -0.75758,-1.26381 -1.28079,-1.5701 -0.46869,-0.27437 -0.97122,-0.63091 -1.11675,-0.79231 -1.14804,-1.27328 -5.11689,-0.98065 -6.68072,0.49258 -0.47295,0.44555 -0.8599,1.03974 -0.8599,1.32045 0,0.2807 -0.41672,0.91507 -0.92604,1.40972 -0.70579,0.68545 -0.92604,1.11658 -0.92604,1.81267 0,0.50231 0.1096,0.9133 0.24356,0.9133 0.13395,0 0.32326,0.36287 0.42066,0.80637 0.0974,0.4435 0.40453,0.94839 0.68249,1.12197 0.27795,0.17359 0.50537,0.4726 0.50537,0.66446 0,0.19187 0.0933,0.29119 0.20733,0.22071 0.11404,-0.0705 0.21023,0.13086 0.21377,0.4474 0.0251,2.24728 0.1283,2.82451 0.50494,2.82451 0.21828,0 0.39688,0.10914 0.39688,0.24253 0,0.52788 1.62427,0.77496 5.22552,0.79491 3.3413,0.0185 3.823,-0.0348 4.23333,-0.46851 z m 9.75899,-0.17593 c 0.23098,-0.31588 0.35986,-1.21561 0.35727,-2.49409 -0.002,-1.09997 -0.0915,-1.8722 -0.19843,-1.71607 -0.3318,0.48456 -1.09433,0.64089 -1.31187,0.26896 -0.31519,-0.53888 -1.39606,-0.80455 -1.39606,-0.34315 0,0.2077 -0.29755,0.60109 -0.66122,0.87419 -0.36367,0.27311 -0.73411,0.8851 -0.8232,1.35998 -0.0891,0.47489 -0.26779,0.86343 -0.39711,0.86343 -0.50334,0 -0.21455,1.20813 0.36017,1.5068 0.93897,0.48795 3.63461,0.276 4.07045,-0.32006 z m -45.569331,-2.8433 c 0.253063,-0.25307 0.843833,-0.46012 1.31282,-0.46012 1.105345,0 2.866255,-1.60044 3.359722,-3.05355 0.195646,-0.57612 0.450477,-1.1606 0.56629,-1.29885 0.115813,-0.13824 0.210571,-0.59465 0.210571,-1.01423 0,-0.49473 0.116253,-0.72281 0.330729,-0.64886 0.181902,0.0627 0.325912,0.43143 0.320022,0.81937 -0.0059,0.38794 0.112112,0.6644 0.262221,0.61437 0.150111,-0.05 0.431323,0.0674 0.624919,0.26101 0.193596,0.19359 0.602925,0.35199 0.909619,0.35199 0.861168,0 2.31499,-0.59868 2.31499,-0.95331 0,-0.17481 0.342818,-0.43735 0.761818,-0.58341 0.628052,-0.21894 0.739362,-0.38305 0.633928,-0.93459 -0.122504,-0.64085 -0.08495,-0.66273 0.891829,-0.51959 1.497798,0.21949 3.046304,0.15193 3.892563,-0.16982 0.68529,-0.26054 0.73128,-0.36325 0.57554,-1.28508 -0.23368,-1.38317 0.1761,-2.33116 1.08258,-2.50444 0.93162,-0.17809 1.95133,0.20128 1.95133,0.72598 0,0.22189 0.17859,0.40343 0.39687,0.40343 0.23655,0 0.39688,0.24331 0.39688,0.6023 0,0.54312 0.10399,0.59239 1.05833,0.50138 0.58208,-0.0555 1.05833,-0.18149 1.05833,-0.27996 0,-0.0985 0.52446,-0.33388 1.16546,-0.52315 0.76531,-0.22597 1.21278,-0.52507 1.30329,-0.87115 0.0758,-0.28986 0.38478,-0.59161 0.68662,-0.67054 0.30184,-0.0789 0.5488,-0.30147 0.5488,-0.49453 0,-0.19306 0.21923,-0.50659 0.48718,-0.69675 0.26795,-0.19015 0.61441,-0.58575 0.76991,-0.87911 0.42126,-0.79469 0.22943,-3.51394 -0.29075,-4.12146 -0.53636,-0.62642 -0.54662,-0.76912 -0.0553,-0.76912 0.21003,0 0.53745,0.21503 0.7276,0.47785 0.19015,0.26281 1.06011,0.69748 1.93323,0.96594 0.87313,0.26845 1.68071,0.64515 1.79463,0.83711 0.11393,0.19196 0.78831,0.42611 1.49863,0.52034 0.94473,0.12532 1.32581,0.30259 1.41933,0.66021 0.0868,0.3319 -0.0513,0.54576 -0.43007,0.66597 -0.30686,0.0974 -0.90255,0.5217 -1.32375,0.94291 -1.08116,1.08115 -0.83794,2.20783 0.81943,3.79598 0.6818,0.65332 1.37781,1.18786 1.54669,1.18786 0.16887,0 0.37238,0.17026 0.45223,0.37835 0.27445,0.7152 3.56503,0.98095 4.88913,0.39485 0.65577,-0.29027 0.8762,-0.57969 0.9908,-1.30087 0.29288,-1.843 0.39832,-2.11816 0.81172,-2.11816 0.26476,0 0.36382,0.14678 0.26785,0.39687 -0.20243,0.52752 -0.10366,0.50202 0.65051,-0.16791 0.42501,-0.37755 0.52615,-0.60415 0.30506,-0.68351 -0.1819,-0.0653 -0.33451,-0.43622 -0.33914,-0.82427 -0.005,-0.38806 -0.18322,-0.93667 -0.39688,-1.21915 -0.29104,-0.38479 -0.38846,-0.41465 -0.38846,-0.11906 0,0.21699 0.14883,0.55232 0.33073,0.74519 0.27115,0.28748 0.19965,0.32746 -0.39687,0.2219 -0.60051,-0.10627 -0.73126,-0.0312 -0.7485,0.42986 -0.0115,0.30724 -0.0809,0.40979 -0.15433,0.22789 -0.0734,-0.1819 -0.30213,-0.33073 -0.50828,-0.33073 -0.20616,0 -0.37483,-0.1096 -0.37483,-0.24356 0,-0.13396 -0.35841,-0.32228 -0.79647,-0.4185 -0.43806,-0.0962 -0.94408,-0.31542 -1.12448,-0.48713 -0.57371,-0.54605 -1.7772,-0.96748 -2.76286,-0.96748 h -0.95475 l 0.76876,-0.66305 c 0.42282,-0.36468 0.97712,-0.72989 1.23178,-0.81158 0.25466,-0.0817 0.46302,-0.24339 0.46302,-0.35933 0,-0.11595 0.53578,-0.41543 1.19063,-0.66552 0.65484,-0.25008 1.19128,-0.59368 1.1921,-0.76355 0.005,-0.95029 0.59287,-2.29285 1.00314,-2.28917 0.39077,0.004 0.3979,0.0413 0.0537,0.28473 -0.29866,0.21122 -0.31503,0.31388 -0.0661,0.41487 0.1819,0.0738 0.33073,0.29364 0.33073,0.48851 0,0.19487 0.41672,0.49183 0.92604,0.65993 0.50932,0.16809 0.92604,0.40599 0.92604,0.52866 0,0.32022 1.47855,0.59991 2.11072,0.39926 0.50664,-0.1608 0.53511,-0.38708 0.53511,-4.25305 v -4.08321 h -1.16231 c -0.80493,0 -1.21063,-0.12589 -1.31943,-0.40942 -0.0864,-0.22518 -0.50632,-0.53116 -0.93314,-0.67995 -1.24002,-0.43227 -1.25543,-1.00006 -0.0227,-0.83471 0.56239,0.0754 1.56589,0.0557 2.23002,-0.0439 l 1.20751,-0.18108 v -4.08483 c 0,-3.64812 -0.0475,-4.08483 -0.44423,-4.08483 -0.64439,0 -2.2016,-0.59902 -2.2016,-0.8469 0,-0.11629 -0.18278,-0.21143 -0.40618,-0.21143 -0.2234,0 -0.7137,-0.20149 -1.08955,-0.44776 -0.62806,-0.41152 -2.07881,-0.52392 -3.66364,-0.28386 -0.62253,0.0943 -1.55514,0.59355 -2.26899,1.21467 -0.28003,0.24364 -0.72571,0.6298 -0.99042,0.85812 -0.61141,0.52738 -2.53996,1.30466 -3.23706,1.30466 -0.68423,0 -2.29518,1.60581 -2.52348,2.51543 -0.0967,0.38519 -0.0484,0.95906 0.1072,1.27527 0.45725,0.92901 0.65651,2.29472 0.33481,2.29472 -0.15709,0 -0.28561,-0.11906 -0.28561,-0.26458 0,-0.14552 -0.53578,-0.26459 -1.19062,-0.26459 -0.65485,0 -1.19063,0.11907 -1.19063,0.26459 0,0.14552 -0.32225,0.26458 -0.71612,0.26458 -0.49712,0 -0.98105,0.30343 -1.58242,0.99219 -0.47647,0.5457 -0.86859,1.14101 -0.87138,1.32291 -0.003,0.1819 -0.11854,0.33073 -0.25723,0.33073 -0.27827,0 -0.80238,1.66051 -0.8047,2.54951 -0.001,0.53697 1.71592,2.47758 2.19252,2.47758 0.24779,0 0.981,0.67179 0.981,0.89884 0,0.0786 -0.18745,0.071 -0.41655,-0.017 -0.54743,-0.21007 -2.49485,0.44201 -3.08625,1.03341 -0.26367,0.26368 -0.85975,0.46596 -1.37309,0.46596 -0.49893,0 -1.06963,0.16248 -1.26822,0.36107 -0.38098,0.38098 -3.40726,1.22643 -4.389982,1.22643 -0.318125,0 -0.578409,0.10418 -0.578409,0.23151 0,0.12733 -0.36273,0.30405 -0.806066,0.39272 -0.58919,0.11784 -0.880904,0.37589 -1.084218,0.95912 -0.152982,0.43884 -0.439179,0.7979 -0.635995,0.7979 -0.196812,0 -0.453056,0.15 -0.569428,0.33335 -0.116372,0.18334 -0.646155,0.56119 -1.177298,0.83966 -0.800118,0.41949 -0.995127,0.69026 -1.137256,1.57908 -0.132334,0.82756 -0.07278,1.14499 0.260525,1.38871 0.243589,0.17812 0.48075,0.81545 0.543668,1.46101 0.06138,0.62978 0.03216,0.9686 -0.06494,0.75291 -0.0971,-0.21568 -0.336,-0.55161 -0.530892,-0.7465 -0.194895,-0.1949 -0.354354,-0.57124 -0.354354,-0.83631 0,-0.62079 -0.684112,-0.88046 -1.362758,-0.51726 -0.291872,0.15621 -0.690321,0.22275 -0.885446,0.14787 -0.546423,-0.20968 -1.455963,0.73705 -1.455963,1.51549 0,0.38311 0.119063,0.69657 0.264584,0.69657 0.14552,0 0.264583,0.11906 0.264583,0.26458 0,0.14552 -0.178594,0.26459 -0.396875,0.26459 -0.218281,0 -0.396875,-0.1222 -0.396875,-0.27155 0,-0.35725 -2.138304,-2.48903 -2.720893,-2.71259 -0.249759,-0.0958 -0.454107,-0.3524 -0.454107,-0.57012 0,-0.21773 -0.247534,-0.52835 -0.550077,-0.69027 -0.30254,-0.16191 -0.671377,-0.64235 -0.819631,-1.06764 -0.148257,-0.42529 -0.376973,-0.77325 -0.50826,-0.77325 -0.131283,0 -0.238699,-0.22355 -0.238699,-0.49677 0,-0.27322 -0.178594,-0.64499 -0.396875,-0.82615 -0.218281,-0.18115 -0.396875,-0.43386 -0.396875,-0.56156 0,-0.1277 0.178594,-0.23219 0.396875,-0.23219 0.218281,0 0.397804,0.0893 0.398939,0.19844 0.0011,0.10914 0.328557,0.36547 0.727604,0.56961 0.899242,0.46004 6.80084,0.7373 7.279249,0.34199 0.179001,-0.14791 0.771943,-0.35237 1.317646,-0.45435 0.545703,-0.10197 0.992187,-0.27634 0.992187,-0.38748 0,-0.11113 0.327422,-0.2683 0.727605,-0.34926 0.400182,-0.081 0.985554,-0.38888 1.300826,-0.68426 0.315273,-0.29538 1.204913,-0.6971 1.97698,-0.89271 1.33853,-0.33912 1.420051,-0.41029 1.754371,-1.53162 0.31131,-1.04418 0.2976,-1.27977 -0.12236,-2.10202 -0.260143,-0.50933 -0.542337,-0.98558 -0.627105,-1.05834 -0.08477,-0.0728 -0.235336,-0.35195 -0.334597,-0.62043 -0.09926,-0.26848 -0.417997,-0.55025 -0.708306,-0.62617 -0.290306,-0.0759 -0.52783,-0.24321 -0.52783,-0.37176 0,-0.12854 -0.178594,-0.23372 -0.396875,-0.23372 -0.218281,0 -0.396875,-0.11906 -0.396875,-0.26458 0,-0.14552 0.114961,-0.26459 0.255471,-0.26459 0.140507,0 0.334441,-0.59531 0.430961,-1.32291 0.09652,-0.72761 0.277807,-1.32292 0.40286,-1.32292 0.125055,0 0.301429,-0.46313 0.391943,-1.02918 0.15326,-0.95843 0.195067,-0.99936 0.608211,-0.59531 0.414954,0.40581 0.41307,0.44614 -0.02915,0.62378 -0.502182,0.20171 -0.653336,0.73613 -0.208209,0.73613 0.145521,0 0.264584,-0.11907 0.264584,-0.26459 0,-0.38819 1.054607,-0.32355 1.079217,0.0661 0.0167,0.26458 0.0476,0.26458 0.15434,0 0.0749,-0.18557 0.58828,-0.33073 1.16974,-0.33073 0.56996,0 1.03629,-0.11104 1.03629,-0.24675 0,-0.13572 0.22663,-0.31869 0.50363,-0.4066 0.70181,-0.22275 1.43574,-1.86665 1.22441,-2.74251 -0.23758,-0.98466 -0.76558,-2.16039 -0.9702,-2.16039 -0.0942,0 -0.24602,-0.29766 -0.33733,-0.66146 -0.34574,-1.37755 -2.65457,-0.52357 -3.195932,1.1821 -0.09386,0.29573 -0.281697,0.53769 -0.417412,0.53769 -0.135713,0 -0.246753,0.16402 -0.246753,0.36448 0,0.50709 -0.509464,0.85515 -1.536888,1.04999 -0.704784,0.13366 -0.999011,0.0424 -1.509406,-0.46796 -0.763696,-0.76369 -2.774831,-1.26839 -3.346418,-0.83979 -0.212826,0.15959 -0.469477,0.50982 -0.570333,0.7783 -0.100857,0.26848 -0.4209,0.55025 -0.711208,0.62617 -0.290307,0.0759 -0.527831,0.30274 -0.527831,0.50405 0,0.2013 -0.105177,0.36601 -0.233725,0.36601 -0.128548,0 -0.307062,0.26789 -0.396698,0.59532 -0.116591,0.42589 0.01111,0.74899 0.448784,1.13533 0.336468,0.29701 0.689837,0.7435 0.78527,0.99219 0.09543,0.24869 0.29631,0.45216 0.4464,0.45216 0.150087,0 0.272886,0.15508 0.272886,0.34461 0,0.18954 0.595312,0.55868 1.322916,0.82032 0.727605,0.26165 1.322917,0.57099 1.322917,0.68744 0,0.11646 0.446485,0.33997 0.992188,0.4967 0.545703,0.15673 0.635,0.21604 0.198437,0.1318 -0.436562,-0.0842 -2.758281,-0.20018 -5.159375,-0.25764 -3.306281,-0.0791 -4.835202,-0.003 -6.30078,0.31317 -1.064334,0.22971 -2.106131,0.35204 -2.315104,0.27185 -0.208973,-0.0802 -0.37995,7.9e-4 -0.37995,0.18003 0,0.1792 -0.26789,0.44336 -0.595312,0.587 -0.327422,0.14365 -0.712843,0.52907 -0.856491,0.85649 -0.143647,0.32743 -0.352007,0.59532 -0.463021,0.59532 -0.341987,0 -0.222689,1.79941 0.128887,1.94401 0.181901,0.0748 -0.421701,0.11451 -1.341335,0.0882 -1.349586,-0.0386 -1.722075,0.0415 -1.931376,0.41518 -0.142624,0.25466 -0.429247,0.46302 -0.636942,0.46302 -0.207695,0 -0.569616,0.29302 -0.804272,0.65115 -0.234654,0.35812 -0.654117,0.72333 -0.932141,0.81157 -0.278024,0.0882 -0.505497,0.33101 -0.505497,0.53949 0,0.20847 -0.175535,0.37904 -0.39008,0.37904 -0.214546,0 -0.572964,0.35366 -0.796489,0.78591 -0.223525,0.43225 -0.626972,0.90395 -0.896548,1.04822 -0.269576,0.14427 -0.639977,0.62405 -0.823111,1.06618 -0.183134,0.44212 -0.437589,0.80386 -0.565455,0.80386 -0.127865,0 -0.232484,0.36501 -0.232484,0.81114 0,1.26037 -0.438557,1.90181 -1.069443,1.56417 -0.28493,-0.15249 -0.518057,-0.42538 -0.518057,-0.60642 0,-0.18104 -0.2541,-0.50427 -0.564668,-0.71829 -0.310568,-0.21403 -0.669962,-0.5082 -0.798656,-0.65372 -0.869439,-0.98314 -1.282509,-1.57732 -1.282509,-1.84486 0,-0.16977 -0.298561,-0.56827 -0.663472,-0.88555 -0.693235,-0.60277 -1.453195,-0.76608 -1.453195,-0.3123 0,0.14552 -0.390226,0.26458 -0.867169,0.26458 -0.809252,0 -1.69934,0.43918 -2.525168,1.24594 -0.192294,0.18786 -0.479777,0.34156 -0.638847,0.34156 -0.474456,0 -2.579257,2.21127 -2.581409,2.71198 -0.0011,0.25466 -0.121053,0.46302 -0.266574,0.46302 -0.145521,0 -0.264583,0.17299 -0.264583,0.38443 0,0.71152 -0.610587,1.73224 -1.036215,1.73224 -0.23216,0 -0.591294,-0.38222 -0.798074,-0.84937 -0.534051,-1.2065 -1.88009,-2.46605 -3.086007,-2.88771 -0.568056,-0.19863 -1.094036,-0.44242 -1.168845,-0.54175 -0.07481,-0.0993 -0.61059,-0.21903 -1.190625,-0.266 -0.916957,-0.0742 -1.065431,-0.009 -1.137518,0.49742 -0.0456,0.32054 -0.330679,0.66144 -0.63351,0.75756 -1.084138,0.34409 -2.061707,1.64399 -2.061707,2.7415 0,0.66339 0.138982,1.07423 0.396875,1.17319 0.218282,0.0838 0.396876,0.33758 0.396876,0.56403 0,0.22645 0.297656,0.52489 0.661458,0.66321 0.363802,0.13832 0.661458,0.36076 0.661458,0.49431 0,0.13355 0.20836,0.3243 0.463021,0.42387 0.897867,0.35107 4.981071,0.92472 6.614584,0.92928 1.374139,0.004 1.653646,-0.0705 1.653646,-0.43991 0,-0.31753 0.226765,-0.19053 0.79375,0.44453 0.436562,0.48899 0.79375,0.98668 0.79375,1.10599 0,0.11931 0.225388,0.21693 0.500858,0.21693 0.275474,0 0.569392,0.17859 0.653156,0.39688 0.09217,0.24019 0.491977,0.39687 1.012746,0.39687 1.123172,0 3.654073,0.59144 3.654073,0.85391 0,0.11243 0.296296,0.20442 0.658434,0.20442 0.655352,0 1.359271,-0.44697 2.291744,-1.4552 1.028058,-1.11159 1.231205,-1.42215 1.537632,-2.35063 0.173651,-0.52617 0.48509,-0.95667 0.692084,-0.95667 0.206996,0 0.376356,-0.17859 0.376356,-0.39687 0,-0.60369 0.469167,-0.47357 0.679262,0.18839 0.102167,0.32189 0.467376,0.80678 0.811581,1.07753 0.344204,0.27075 0.625824,0.64834 0.625824,0.83909 0,0.19075 0.208359,0.41677 0.463021,0.50228 0.573672,0.19262 1.322713,0.68735 1.961158,1.29531 0.26743,0.25466 0.656328,0.46302 0.864214,0.46302 0.207888,0 0.536501,0.15853 0.730255,0.35228 0.193752,0.19376 1.035693,0.56724 1.87098,0.82997 0.835289,0.26273 1.518706,0.57172 1.518706,0.68666 0,0.35161 0.839774,0.47926 2.799926,0.42557 1.376979,-0.0377 1.995895,-0.17333 2.334004,-0.51144 z m 41.223871,-10.92123 c -0.28615,-0.32443 -0.25415,-0.38681 0.19843,-0.38681 0.30326,0 0.5396,0.17383 0.5396,0.39688 0,0.49706 -0.2943,0.49304 -0.73803,-0.0101 z M 81.614506,147.6154 c -0.852995,-0.85629 -0.917366,-1.18742 -0.230833,-1.18742 0.661564,0 1.151671,0.6291 1.044893,1.34123 -0.0847,0.56486 -0.101267,0.56173 -0.81406,-0.15381 z m 42.286084,-5.04278 c -0.22867,-0.22867 -0.41577,-0.56099 -0.41577,-0.73849 0,-0.43828 -2.03872,-2.28532 -2.52248,-2.28532 -0.21337,0 -0.38794,-0.0944 -0.38794,-0.20971 0,-0.11533 -0.52354,-0.34973 -1.16344,-0.52088 -0.63989,-0.17114 -1.34576,-0.49349 -1.5686,-0.71633 -0.22284,-0.22284 -0.56249,-0.40938 -0.75479,-0.41454 -0.19229,-0.005 -0.64728,-0.17953 -1.01108,-0.3875 -0.63303,-0.36186 -0.63682,-0.37852 -0.0882,-0.38749 0.3153,-0.005 0.61295,-0.12533 0.66146,-0.26704 0.0485,-0.14171 1.39788,-0.28547 2.99861,-0.31947 2.50982,-0.0533 2.98927,0.006 3.48327,0.42951 0.45298,0.38853 0.51317,0.58688 0.28766,0.94798 -0.31001,0.4964 0.22707,4.49131 0.60382,4.49131 0.10936,0 0.26738,0.17859 0.35114,0.39687 0.19527,0.50887 0.0482,0.503 -0.47366,-0.0189 z m -89.422534,17.82527 c 0.20424,-0.39296 0.371344,-1.02642 0.371344,-1.40769 0,-1.3304 -0.891084,-5.28785 -1.237911,-5.49776 -0.192274,-0.11637 -0.349589,-0.44674 -0.349589,-0.73416 0,-0.42967 -0.863304,-1.03863 -1.472432,-1.03863 -0.06329,0 -0.115068,2.69139 -0.115068,5.98088 v 5.98088 l 1.216156,-1.28453 c 0.668886,-0.70649 1.383261,-1.60603 1.5875,-1.99899 z m 15.673217,2.99619 c 0.281265,-0.17829 0.262989,-0.25822 -0.09002,-0.39368 -0.488359,-0.1874 -0.924349,-0.01 -0.924349,0.37653 0,0.30774 0.541515,0.3169 1.014372,0.0171 z m -7.286894,-10.94683 c 0.462741,-0.2149 0.712866,-0.53921 0.714207,-0.92604 0.0011,-0.32742 -0.100822,-0.59531 -0.226573,-0.59531 -0.12575,0 -0.435995,-0.54296 -0.689432,-1.20657 -1.358701,-3.55771 -4.800759,-3.68883 -5.263502,-0.2005 -0.194465,1.46594 -0.0312,2.20082 0.48894,2.20082 0.184894,0 0.478459,0.17144 0.652366,0.38099 0.561459,0.67651 3.164355,0.88517 4.323994,0.34661 z m 11.828772,-0.952 c 0,-0.12342 0.47625,-0.43916 1.058333,-0.70164 0.582084,-0.26249 1.058334,-0.60912 1.058334,-0.77029 0,-0.16118 0.238125,-0.44176 0.529167,-0.62352 0.291041,-0.18176 0.529166,-0.49955 0.529166,-0.70621 0,-0.20665 0.153855,-0.53306 0.341903,-0.72536 0.828302,-0.84701 1.113226,-2.21381 1.093266,-5.24442 -0.01103,-1.67349 -0.102764,-3.47348 -0.203875,-3.99998 l -0.183837,-0.95727 2.186564,-0.27913 c 1.202608,-0.15353 2.233216,-0.23249 2.290236,-0.17547 0.05702,0.057 -0.09105,0.40085 -0.329041,0.76408 -0.237993,0.36322 -0.432716,0.96225 -0.432716,1.33117 0,0.36893 -0.119062,0.67077 -0.264583,0.67077 -0.145521,0 -0.264583,0.65484 -0.264583,1.45521 0,0.80036 0.119062,1.45521 0.264583,1.45521 0.145521,0 0.264583,0.17068 0.264583,0.3793 0,0.2171 0.31115,0.4151 0.727605,0.46302 0.558622,0.0643 0.746077,0.24265 0.807148,0.76806 0.07167,0.61658 0.244978,0.71482 1.750298,0.99219 0.918914,0.16931 1.924916,0.30784 2.23556,0.30784 0.310642,0 0.574207,0.14883 0.585695,0.33073 0.01672,0.26459 0.04758,0.26459 0.15434,0 0.0734,-0.1819 0.354629,-0.33073 0.624956,-0.33073 0.270325,0 0.565086,-0.11906 0.655024,-0.26458 0.08994,-0.14552 0.921895,-0.26458 1.8488,-0.26458 1.145246,0 1.812451,-0.12718 2.082151,-0.39688 0.453451,-0.45345 0.96384,-0.5235 0.96384,-0.13229 0,0.14552 0.297657,0.26458 0.661459,0.26458 0.396626,0 0.661458,-0.15121 0.661458,-0.37767 0,-0.20772 0.278747,-0.59693 0.61944,-0.86492 0.340691,-0.26799 0.756629,-0.7436 0.924309,-1.05691 0.167679,-0.31331 0.512249,-0.77703 0.765715,-1.0305 0.529042,-0.52904 1.120288,-2.07988 1.126135,-2.95385 0.0021,-0.32742 0.123047,-0.59531 0.268568,-0.59531 0.145521,0 0.264583,-0.1786 0.264583,-0.39688 0,-0.21828 -0.119062,-0.39687 -0.264583,-0.39687 -0.383098,0 -0.325668,-0.9908 0.06615,-1.14114 0.221509,-0.085 0.134133,-0.27198 -0.264584,-0.56622 -0.814808,-0.6013 -0.777673,-1.16454 0.06615,-1.00323 0.363802,0.0695 0.661459,0.24984 0.661459,0.40067 0,0.15082 0.208359,0.0365 0.463021,-0.25402 0.738198,-0.84218 1.140417,-0.82508 2.110374,0.0897 0.977295,0.9217 3.257191,1.59663 4.193861,1.24152 0.635383,-0.24089 1.170244,-0.75719 1.170244,-1.12964 0,-0.15592 0.235424,-0.51891 0.523166,-0.80665 0.544118,-0.54412 0.46745,-1.32892 -0.129829,-1.32892 -0.663934,0 -0.08734,-1.02539 0.67015,-1.19176 0.735333,-0.1615 2.174524,-1.18949 1.665299,-1.18949 -0.144429,0 -0.398217,-0.29766 -0.563978,-0.66146 -0.238419,-0.52327 -0.496023,-0.66146 -1.233094,-0.66146 -0.651801,0 -0.931714,0.11923 -0.931714,0.39688 0,0.21828 -0.119063,0.39687 -0.264583,0.39687 -0.145521,0 -0.264584,-0.13225 -0.264584,-0.29389 0,-0.16165 -0.227851,-0.0128 -0.506333,0.33073 l -0.506336,0.62462 -0.535397,-0.61665 c -0.627076,-0.72225 -2.638724,-1.00313 -2.869893,-0.40071 -0.07512,0.19575 -0.354415,0.3559 -0.620668,0.3559 -0.352764,0 -0.50659,0.23329 -0.567005,0.8599 -0.06149,0.63774 -0.212164,0.85989 -0.583218,0.85989 -0.369705,0 -0.642102,-0.39714 -1.043485,-1.52135 -0.31351,-0.87809 -0.701265,-1.52135 -0.917062,-1.52135 -0.2223,0 -0.312634,-0.15962 -0.222808,-0.3937 0.08309,-0.21654 0.06607,-0.37623 -0.03784,-0.35488 -0.329483,0.0677 -1.114957,-0.35683 -1.114957,-0.60265 0,-0.12995 0.297656,-0.23627 0.661458,-0.23627 0.363802,0 0.661459,-0.11907 0.661459,-0.26459 0,-0.14552 0.47625,-0.26458 1.058333,-0.26458 0.582083,0 1.058333,0.11906 1.058333,0.26458 0,0.40154 1.30914,0.31616 1.738691,-0.11339 0.207886,-0.20789 0.377976,-0.45452 0.377976,-0.54807 0,-0.0935 0.181793,-0.35188 0.403984,-0.57407 0.518938,-0.51894 0.251341,-2.15606 -0.453133,-2.7722 -0.518652,-0.45362 -1.511887,-0.37477 -1.865029,0.14806 -0.132742,0.19653 -0.19567,0.18291 -0.198438,-0.0429 -0.0026,-0.20879 -0.394266,-0.33073 -1.062384,-0.33073 -0.668118,0 -1.059828,0.12194 -1.062384,0.33073 -0.0027,0.22048 -0.08955,0.19844 -0.260533,-0.0661 -0.141065,-0.21828 -0.258304,-0.2726 -0.260532,-0.12072 -0.0021,0.15188 -0.748192,0.43146 -1.657697,0.62128 -2.357662,0.49206 -2.579688,0.56437 -2.579688,0.84019 0,0.13571 -0.164015,0.24675 -0.364479,0.24675 -0.200462,0 -0.512696,0.1786 -0.693854,0.39688 -0.449659,0.54181 -0.79375,0.49846 -0.79375,-0.1 0,-0.27327 -0.185568,-0.94099 -0.412374,-1.48381 -0.226806,-0.54282 -0.375542,-1.02378 -0.33052,-1.0688 0.04502,-0.045 0.627642,0.0201 1.294717,0.14473 0.867471,0.16206 1.507858,0.12148 2.248749,-0.14252 0.569738,-0.20301 1.247379,-0.37433 1.505871,-0.38072 0.677394,-0.0168 2.71594,-2.15195 3.119179,-3.26708 0.35448,-0.98031 0.776462,-1.07188 0.776462,-0.1685 0,0.28245 0.119062,0.51355 0.264583,0.51355 0.145521,0 0.264583,0.1786 0.264583,0.39688 0,0.21828 0.119063,0.39687 0.264584,0.39687 0.145521,0 0.264583,0.17187 0.264583,0.38192 0,0.21005 0.357188,0.59291 0.79375,0.85079 0.436563,0.25789 0.79375,0.55619 0.79375,0.6629 0,0.10671 0.68461,0.40522 1.521354,0.66335 0.836745,0.25814 1.600515,0.58227 1.697268,0.7203 0.09675,0.13803 0.989722,0.26033 1.984375,0.27179 1.985066,0.0229 1.837555,0.10321 4.391126,-2.39181 1.362242,-1.331 2.576711,-2.01049 2.576711,-1.44165 0,0.15533 -0.178594,0.28241 -0.396875,0.28241 -0.218281,0 -0.396875,0.15985 -0.396875,0.35521 0,0.19537 -0.416719,0.57963 -0.926042,0.85392 -0.918086,0.49442 -0.926042,0.5141 -0.926042,2.29062 0,1.01822 0.11424,1.79192 0.264584,1.79192 0.145521,0 0.264583,0.1603 0.264583,0.35622 0,0.57148 0.792009,1.99924 1.503945,2.71117 0.361241,0.36124 1.301726,0.85539 2.08997,1.09811 0.788241,0.24272 1.433169,0.53588 1.433169,0.65145 0,0.11557 0.297656,0.21013 0.661458,0.21013 0.363803,0 0.661463,-0.091 0.661463,-0.20217 0,-0.21248 1.93125,-1.12074 2.38306,-1.12074 0.14453,0 0.26277,-0.0972 0.26277,-0.2159 0,-0.31923 2.6768,-1.3716 3.4888,-1.3716 0.38524,0 0.75359,-0.14883 0.81856,-0.33073 0.065,-0.1819 0.21212,-0.2431 0.32702,-0.136 0.1149,0.1071 -0.10692,0.44316 -0.49294,0.74681 -0.41504,0.32646 -0.70185,0.81454 -0.70185,1.19433 0,0.35324 -0.11907,0.64225 -0.26459,0.64225 -0.14552,0 -0.26458,0.35719 -0.26458,0.79375 0,0.43657 0.10613,0.79375 0.23585,0.79375 0.12972,0 0.42642,0.47625 0.65932,1.05834 0.2329,0.58208 0.59627,1.05833 0.80748,1.05833 0.21121,0 0.53959,0.21699 0.72974,0.4822 0.19015,0.26521 0.73269,0.65146 1.20563,0.85834 0.47294,0.20687 0.8599,0.55216 0.8599,0.76729 0,0.26616 0.12757,0.20903 0.3992,-0.17878 0.21956,-0.31346 0.66604,-0.60785 0.99219,-0.65418 0.32614,-0.0463 0.59518,-0.26504 0.59787,-0.48601 0.003,-0.22098 0.24082,-0.65893 0.52917,-0.97323 0.90939,-0.99122 1.18573,-1.37314 1.18573,-1.63872 0,-0.14185 0.23813,-0.33349 0.52917,-0.42587 0.29104,-0.0924 0.54248,-0.36829 0.55874,-0.61314 0.0163,-0.24486 0.073,-0.81499 0.12599,-1.26697 0.0765,-0.65227 -0.0725,-0.97229 -0.72253,-1.55146 -0.75282,-0.67076 -1.04075,-0.74101 -3.56558,-0.86987 -1.51064,-0.0771 -2.74662,-0.23364 -2.74662,-0.34787 0,-0.11422 0.20836,-0.41642 0.46302,-0.67155 0.51674,-0.51767 0.60958,-3.20682 0.12114,-3.5087 -0.14906,-0.0921 -0.35278,-0.60339 -0.45273,-1.13617 -0.1,-0.53278 -0.38478,-1.18735 -0.63296,-1.4546 -0.24818,-0.26726 -0.53181,-0.69698 -0.63031,-0.95494 -0.0985,-0.25796 -0.39013,-0.54693 -0.6481,-0.64216 -0.25796,-0.0952 -0.5461,-0.28814 -0.6403,-0.4287 -0.50124,-0.74787 -5.34841,-0.60158 -5.84394,0.17637 -0.144849,0.22741 -0.195422,0.22487 -0.198441,-0.01 -0.0021,-0.17331 0.115021,-0.3887 0.260541,-0.47863 0.14552,-0.0899 0.26458,-0.51369 0.26458,-0.94166 0,-0.42797 0.11906,-0.77814 0.26458,-0.77814 0.14925,0 0.26459,-0.74965 0.26459,-1.71979 0,-0.94588 -0.10961,-1.71979 -0.24356,-1.71979 -0.13396,0 -0.32012,-0.34855 -0.41369,-0.77456 -0.17276,-0.78658 -1.735065,-2.66501 -2.216509,-2.66501 -0.144899,0 -0.470836,-0.20836 -0.724307,-0.46302 -0.478772,-0.48102 -2.612462,-1.0938 -3.876421,-1.11327 -0.400183,-0.006 -0.727605,-0.13027 -0.727605,-0.27579 0,-0.34284 -2.04471,-0.34683 -2.160764,-0.004 -0.04851,0.1432 -0.683507,0.29203 -1.411111,0.33073 -0.727604,0.0387 -1.480248,0.21919 -1.672545,0.40109 -0.192294,0.1819 -0.519716,0.33073 -0.727604,0.33073 -0.207886,0 -0.377976,0.11906 -0.377976,0.26458 0,0.14552 -0.223546,0.26459 -0.496771,0.26459 -0.273222,0 -0.644988,0.17859 -0.826146,0.39687 -0.181157,0.21828 -0.612454,0.39688 -0.958437,0.39688 -0.345985,0 -0.629063,0.10615 -0.629063,0.2359 0,0.12974 -0.302754,0.31188 -0.672787,0.40476 -0.370033,0.0929 -0.744522,0.35579 -0.832194,0.58426 -0.08768,0.22848 -0.439764,0.69577 -0.782424,1.03843 l -0.623011,0.623 v -0.77275 c 0,-0.77718 0.754721,-2.69893 1.124479,-2.86327 0.334174,-0.14852 0.220273,-0.57326 -0.153728,-0.57326 -0.193691,0 -0.516904,-0.30782 -0.718249,-0.68403 -0.201345,-0.37622 -0.697714,-0.85553 -1.103043,-1.06513 -0.405328,-0.2096 -0.736959,-0.47943 -0.736959,-0.59962 0,-0.12018 -0.773907,-0.428 -1.719792,-0.68404 -0.945886,-0.25604 -1.719792,-0.57137 -1.719792,-0.70073 0,-0.12936 -0.595312,-0.2352 -1.322917,-0.2352 -0.727604,0 -1.322916,0.11906 -1.322916,0.26458 0,0.14552 -0.601226,0.26459 -1.336056,0.26459 -1.469131,0 -2.721933,0.5146 -3.035742,1.24698 -0.111424,0.26004 -0.181838,1.30624 -0.156475,2.32489 0.06079,2.44153 -0.07745,2.62726 -1.659051,2.22901 -0.939025,-0.23645 -1.608071,-0.23995 -2.731648,-0.0143 -0.81842,0.16436 -1.884895,0.29884 -2.369948,0.29884 -0.485052,0 -0.881914,0.11906 -0.881914,0.26459 0,0.14552 -0.406847,0.26458 -0.904105,0.26458 -1.053113,0 -3.329228,0.90725 -3.329228,1.32701 0,0.15812 -0.414633,0.46074 -0.921406,0.67248 -0.591894,0.24731 -0.980631,0.62096 -1.087017,1.04483 -0.09108,0.36291 -0.232625,0.65985 -0.314531,0.65985 -0.309345,0 -1.11663,-0.89043 -1.11663,-1.23164 0,-0.19572 -0.116794,-0.35586 -0.259542,-0.35586 -0.142749,0 -0.33756,-0.31085 -0.432914,-0.69077 -0.166536,-0.66353 -0.226515,-0.68371 -1.521428,-0.51194 -0.741431,0.0984 -1.409823,0.27113 -1.485316,0.38394 -0.07549,0.1128 -0.970696,0.42515 -1.989342,0.6941 -1.018646,0.26895 -1.911962,0.57481 -1.985148,0.67969 -0.07319,0.10488 -0.668498,0.40203 -1.322917,0.66033 -0.654418,0.2583 -1.368445,0.66432 -1.586727,0.90227 -0.218281,0.23796 -0.605234,0.50994 -0.859895,0.60442 -0.254662,0.0945 -0.463021,0.35409 -0.463021,0.57694 0,0.22285 -0.181541,0.40518 -0.403424,0.40518 -0.221883,0 -0.512195,0.28609 -0.645138,0.63576 -0.132943,0.34966 -0.352154,0.70401 -0.487135,0.78743 -0.332327,0.20539 -0.08089,1.3983 0.374371,1.77613 0.202167,0.16778 0.367576,0.39695 0.367576,0.50926 0,0.43106 1.497071,1.75712 2.38125,2.10925 0.509323,0.20285 1.012086,0.50824 1.117251,0.67866 0.105164,0.17043 0.730242,0.46078 1.389062,0.64524 0.658819,0.18446 1.197854,0.43897 1.197854,0.56557 0,0.12661 0.416718,0.2302 0.926041,0.2302 0.509323,0 0.926042,-0.11177 0.926042,-0.24837 0,-0.1366 0.565547,-0.32043 1.256771,-0.40851 2.523819,-0.32159 2.918532,-0.42109 3.451603,-0.87008 0.298692,-0.25158 0.909313,-0.75376 1.356935,-1.11597 0.447622,-0.3622 0.813858,-0.80869 0.813858,-0.99218 0,-0.1835 0.119062,-0.33364 0.264583,-0.33364 0.145521,0 0.264583,-0.16585 0.264583,-0.36856 0,-0.20272 0.167358,-0.43279 0.371906,-0.51129 0.319172,-0.12247 0.319403,-0.0421 0.0016,0.56701 -0.203651,0.39034 -0.371009,0.91808 -0.371905,1.17274 -9e-4,0.25466 -0.177247,0.46302 -0.391891,0.46302 -0.49171,0 -0.242691,1.60958 0.298804,1.93138 0.195812,0.11637 0.35603,0.36541 0.35603,0.55343 0,0.18801 0.47625,0.48453 1.058333,0.65893 0.582084,0.1744 1.058334,0.41262 1.058334,0.52938 0,0.11677 0.416718,0.43672 0.926041,0.71101 0.509323,0.27428 0.926042,0.57415 0.926042,0.66635 0,0.0922 0.565547,0.45209 1.256771,0.79973 0.691224,0.34765 1.316302,0.69837 1.389062,0.77939 0.40943,0.45592 2.148205,0.87568 3.607647,0.87092 1.740858,-0.006 4.594437,-0.56345 4.594437,-0.89805 0,-0.1057 0.422905,-0.39286 0.939789,-0.63814 0.516885,-0.24527 1.049722,-0.73509 1.184077,-1.08848 0.289055,-0.76027 0.690462,-0.83291 0.902954,-0.16341 0.181348,0.57138 2.118797,1.48564 2.686574,1.26776 0.226698,-0.087 0.329584,-0.0402 0.237858,0.10825 -0.0889,0.14385 -0.333216,0.26155 -0.542909,0.26155 -0.241885,0 -0.38126,0.27294 -0.38126,0.74662 0,0.94537 -0.765391,3.22213 -1.083204,3.22213 -0.131842,0 -0.239712,0.23812 -0.239712,0.52917 0,0.29104 0.119062,0.52916 0.264583,0.52916 0.387681,0 0.323779,0.78955 -0.06615,0.81726 -0.981974,0.0698 -2.992011,-0.0948 -3.107486,-0.25441 -0.284094,-0.39278 -3.019481,-0.75504 -3.888785,-0.51501 -0.481296,0.13289 -0.875083,0.32801 -0.875083,0.4336 0,0.10559 -0.416719,0.4164 -0.926042,0.69069 -0.509323,0.27428 -0.926042,0.59901 -0.926042,0.72162 0,0.12261 -0.119062,0.22292 -0.264583,0.22292 -0.145521,0 -0.264583,-0.16415 -0.264583,-0.36478 0,-0.20062 -0.357188,-0.51272 -0.79375,-0.69355 -0.436563,-0.18083 -0.79375,-0.4334 -0.79375,-0.56127 0,-0.12786 -0.178594,-0.23248 -0.396875,-0.23248 -0.249061,0 -0.396875,-0.25139 -0.396875,-0.67496 0,-0.5213 -0.210831,-0.76305 -0.926042,-1.06189 -0.509323,-0.21281 -0.926042,-0.50279 -0.926042,-0.6444 0,-0.14162 -0.402576,-0.42569 -0.894614,-0.63128 -0.782116,-0.32679 -1.089882,-0.3205 -2.447396,0.05 -0.85403,0.23308 -1.640255,0.54852 -1.747167,0.70098 -0.333356,0.47536 -0.230913,3.27542 0.12824,3.50519 0.181901,0.11637 0.473421,0.39498 0.647822,0.61914 0.282848,0.36354 -0.13148,0.40307 -3.836458,0.36608 -4.369903,-0.0436 -9.49107,0.39695 -9.794872,0.84266 -0.09873,0.14485 -0.621226,0.46884 -1.161097,0.71998 -0.777681,0.36176 -1.017497,0.64805 -1.154473,1.37819 -0.09509,0.50687 -0.278455,0.98683 -0.407479,1.06657 -0.129024,0.0797 -0.23459,0.37609 -0.23459,0.65854 0,0.28245 -0.119062,0.51355 -0.264583,0.51355 -0.145521,0 -0.264583,0.62856 -0.264583,1.3968 0,1.13982 0.10611,1.46839 0.576759,1.78594 0.317218,0.21402 1.456999,1.25234 2.532846,2.30736 1.075848,1.05503 2.066462,1.91823 2.201366,1.91823 0.134903,0 0.245279,0.1786 0.245279,0.39688 0,0.22672 0.238092,0.39687 0.555326,0.39687 0.583489,0 2.38666,0.75478 2.628946,1.10043 0.570053,0.81326 3.532164,1.28759 4.452301,0.71295 0.610634,-0.38135 1.888427,-0.0832 1.888427,0.44062 0,0.21551 0.178594,0.39184 0.396875,0.39184 0.218281,0 0.396875,-0.10098 0.396875,-0.2244 z m 2.116667,-14.85685 c 0,-0.14552 0.119062,-0.26459 0.264583,-0.26459 0.145521,0 0.264584,0.11907 0.264584,0.26459 0,0.14552 -0.119063,0.26458 -0.264584,0.26458 -0.145521,0 -0.264583,-0.11906 -0.264583,-0.26458 z m 14.2875,-14.93582 c 0,-0.21105 -0.208359,-0.50508 -0.463021,-0.65341 -0.638844,-0.37209 0.02043,-0.35554 0.847448,0.0213 0.801555,0.36522 0.894262,1.01587 0.14474,1.01587 -0.291042,0 -0.529167,-0.17268 -0.529167,-0.38373 z m -8.73125,-2.52668 c -0.295209,-0.19078 -0.142711,-0.25752 0.595313,-0.26054 0.545703,-0.002 0.992187,-0.1145 0.992187,-0.24949 0,-0.13499 0.47625,-0.45556 1.058333,-0.71238 0.582084,-0.25681 1.058334,-0.56002 1.058334,-0.6738 0,-0.11378 0.357187,-0.39158 0.79375,-0.61734 0.436562,-0.22575 0.79375,-0.57326 0.79375,-0.77223 0,-0.19898 0.148828,-0.41832 0.330729,-0.48742 0.243589,-0.0926 0.343077,0.38798 0.37759,1.82377 0.04919,2.04633 -0.204547,2.4154 -1.067396,1.55255 -0.435194,-0.43519 -1.228423,-0.53733 -1.228423,-0.15818 0,0.629 -2.914071,1.06565 -3.704167,0.55506 z m -5.55625,-0.65341 c 0,-0.21386 -0.236091,-0.80917 -0.524647,-1.32292 -0.288555,-0.51375 -0.407618,-0.93409 -0.264583,-0.93409 0.143035,0 0.260063,0.11679 0.260063,0.25954 0,0.14275 0.297656,0.33425 0.661459,0.42556 0.363802,0.0913 0.661458,0.27183 0.661458,0.40116 0,0.12932 0.386953,0.40436 0.859896,0.61119 l 0.859896,0.37605 -0.992188,0.0216 c -0.545703,0.0119 -0.992187,0.14064 -0.992187,0.28616 0,0.14552 -0.119063,0.26458 -0.264584,0.26458 -0.145521,0 -0.264583,-0.17497 -0.264583,-0.38882 z m 3.704167,0.12424 c 0,-0.14552 0.178593,-0.26458 0.396875,-0.26458 0.218281,0 0.396875,0.11906 0.396875,0.26458 0,0.14552 -0.178594,0.26458 -0.396875,0.26458 -0.218282,0 -0.396875,-0.11906 -0.396875,-0.26458 z m 20.158361,-3.51228 c -0.0573,-0.8409 -0.528185,-1.08702 -2.629715,-1.37446 -0.763984,-0.1045 -1.389062,-0.28394 -1.389062,-0.39876 0,-0.18826 3.989506,-0.81934 4.181287,-0.66141 0.04413,0.0363 0.03688,0.76419 -0.01611,1.61743 -0.053,0.85325 -0.118875,1.22098 -0.146392,0.8172 z m -12.220861,-2.2822 c 0,-1.29362 0.0019,-1.29643 0.844063,-1.23812 0.464235,0.0321 0.890876,0.19887 0.94809,0.37051 0.05722,0.17165 0.421528,0.3218 0.809582,0.33367 0.69831,0.0213 0.696709,0.0255 -0.15562,0.39816 -0.473649,0.20711 -1.098727,0.61412 -1.389062,0.90446 -0.815412,0.81541 -1.057053,0.63969 -1.057053,-0.76868 z m 5.506641,-0.20709 c 0.190995,-0.0764 0.419198,-0.067 0.507119,0.0209 0.08792,0.0879 -0.06835,0.15045 -0.347266,0.13897 -0.308226,-0.0127 -0.370919,-0.0754 -0.159853,-0.15985 z m -41.098353,34.20466 c 0.384117,-0.0964 1.117488,-0.0967 1.629712,-5.3e-4 1.03013,0.19325 2.07684,-0.22152 2.314323,-0.91707 0.212579,-0.62262 0.774179,-1.45669 1.138902,-1.69146 0.466004,-0.29997 0.697933,-2.34996 0.391447,-3.45996 -0.157682,-0.57112 -0.16745,-0.9674 -0.02385,-0.9674 0.31794,0 0.307703,-0.73179 -0.03242,-2.31774 -0.209379,-0.9763 -0.457817,-1.39304 -1.033011,-1.73282 -1.367774,-0.80796 -3.576971,-0.51768 -3.833317,0.50368 -0.124026,0.49416 -0.336081,0.63646 -0.94845,0.63646 H 31.6744 l 0.01677,5.6224 c 0.01014,3.39978 0.106396,5.40049 0.243488,5.06106 0.124695,-0.30874 0.540996,-0.64022 0.925114,-0.73662 z m 28.249524,0.99043 c -0.181901,-0.0734 -0.330729,-0.30212 -0.330729,-0.50828 0,-0.20615 -0.119063,-0.37482 -0.264583,-0.37482 -0.297583,0 -0.358725,0.61141 -0.08819,0.88194 0.09701,0.097 0.364903,0.16699 0.595313,0.1555 0.273251,-0.0136 0.303919,-0.0673 0.08819,-0.15434 z M 35.18013,133.46307 c 1.273307,-1.26039 2.315104,-2.41804 2.315104,-2.57255 0,-0.15451 0.169105,-0.34582 0.375788,-0.42513 0.453773,-0.17413 0.81513,-2.67519 0.556588,-3.85232 -0.253878,-1.1559 -1.737762,-2.58189 -3.095449,-2.97468 -0.907029,-0.26241 -1.018528,-0.35201 -0.537879,-0.43224 0.333487,-0.0557 1.011937,-0.5068 1.507665,-1.00252 0.755219,-0.75522 0.930529,-1.15945 1.081481,-2.4937 0.09909,-0.8758 0.260927,-1.59237 0.359646,-1.59237 0.09872,0 0.401122,-0.50601 0.672007,-1.12448 0.270885,-0.61846 0.710517,-1.28006 0.97696,-1.47021 0.637777,-0.45516 0.613223,-0.98927 -0.06739,-1.46599 -0.512672,-0.35909 -0.455683,-0.38363 0.802985,-0.34573 0.745152,0.0224 1.439963,-0.085 1.544024,-0.23882 0.104061,-0.15378 0.580705,-0.438 1.059209,-0.6316 0.478504,-0.19359 0.988709,-0.57379 1.133789,-0.84487 0.145079,-0.27109 0.374549,-0.49288 0.509933,-0.49288 0.135383,0 0.60552,-0.35129 1.044748,-0.78065 1.314349,-1.28482 1.639831,-4.30074 0.496411,-4.59975 -0.287256,-0.0751 -0.585415,-0.378 -0.662577,-0.67306 -0.07716,-0.29507 -0.425512,-0.72336 -0.774114,-0.95178 -0.348602,-0.22841 -0.633822,-0.64217 -0.633822,-0.91946 0,-0.27729 -0.173885,-0.67805 -0.38641,-0.89058 -0.212526,-0.21253 -0.539948,-0.88986 -0.727604,-1.50519 -0.187657,-0.61533 -0.519788,-1.18743 -0.738069,-1.271332 -0.218282,-0.0839 -0.569228,-0.323059 -0.779882,-0.531461 -0.58356,-0.577323 -3.623715,-0.237291 -4.240901,0.474329 -0.255885,0.295034 -0.594695,0.536434 -0.752913,0.536434 -0.158217,0 -0.580779,0.29311 -0.939024,0.65135 -0.942938,0.94294 -0.634412,1.9049 0.561157,1.74965 0.181901,-0.0236 0.330729,0.0813 0.330729,0.23323 0,0.1519 -0.276028,0.27619 -0.613396,0.27619 -0.337368,0 -1.051743,0.38997 -1.5875,0.86661 -0.749462,0.66676 -0.974104,1.06738 -0.974104,1.73719 0,1.09531 0.231829,1.52392 1.570187,2.90301 0.591606,0.6096 1.075646,1.24697 1.075646,1.41637 0,0.16939 0.616375,0.88363 1.369721,1.58719 0.753347,0.70357 1.244137,1.27921 1.090646,1.27921 -0.440744,0 -2.311818,-0.82739 -2.481775,-1.09745 -0.289642,-0.46022 -1.977751,-0.56976 -2.392282,-0.15523 -0.214013,0.21401 -0.651452,0.47238 -0.972087,0.57414 -0.573865,0.18214 -0.582973,0.26329 -0.582973,5.19429 0,4.83286 0.01863,5.00925 0.529167,5.00925 0.291042,0 0.529167,0.11906 0.529167,0.26458 0,0.14552 -0.238125,0.26459 -0.529167,0.26459 -0.514712,0 -0.529167,0.17639 -0.529167,6.45752 v 6.45752 l 0.595313,-0.15249 c 0.327422,-0.0839 1.637109,-1.18373 2.910417,-2.44413 z m 1.142041,-31.72263 c -0.318917,-0.12489 -0.402648,-0.26768 -0.222314,-0.37914 0.347705,-0.21489 1.130794,0.0485 1.130794,0.3804 0,0.27539 -0.202753,0.27511 -0.90848,-10e-4 z m 10.510959,31.12764 c 0.781568,-0.36297 0.941631,-0.7276 0.319396,-0.7276 -0.546588,0 -0.50011,-0.50668 0.06615,-0.7211 0.985902,-0.37333 1.138141,-0.75681 0.674945,-1.70016 -0.239281,-0.48732 -0.563445,-0.97533 -0.720365,-1.08447 -0.192857,-0.13414 -0.156705,-0.28286 0.111566,-0.45897 0.352777,-0.23158 0.352777,-0.2633 0,-0.28547 -0.261545,-0.0164 -0.286648,-0.0696 -0.07362,-0.1559 0.214193,-0.0868 0.09923,-0.33859 -0.340748,-0.74634 -0.548752,-0.50857 -0.857447,-0.59014 -1.778466,-0.46995 -0.612953,0.08 -1.173991,0.21688 -1.246752,0.30421 -0.221084,0.26534 -1.161542,0.8259 -1.669829,0.9953 -0.263562,0.0878 -0.663443,0.62016 -0.888624,1.18294 -0.225181,0.56278 -0.515555,1.02324 -0.645275,1.02324 -0.129721,0 -0.235855,0.40303 -0.235855,0.89562 v 0.89562 l 1.521354,-0.0753 c 1.635613,-0.081 2.447396,-0.30849 2.447396,-0.68588 0,-0.52158 0.482651,-0.19305 0.640532,0.436 0.0928,0.36976 0.28294,0.6017 0.422527,0.51543 0.141308,-0.0873 0.183958,0.0251 0.09623,0.25376 -0.09216,0.24017 -0.475308,0.41062 -0.923011,0.41062 -0.420994,0 -0.765443,0.11906 -0.765443,0.26458 0,0.37573 2.138354,0.32839 2.987896,-0.0662 z m 83.26627,-11.55157 v -3.68022 l -1.38906,0.36979 c -0.76398,0.20338 -1.65695,0.3712 -1.98437,0.37293 -0.32743,0.002 -0.59532,0.10869 -0.59532,0.23769 0,0.23985 -0.89852,0.4771 -2.77812,0.73357 -1.3957,0.19044 -1.56915,0.39848 -1.21838,1.46132 0.20017,0.60651 0.61024,1.05725 1.28533,1.41279 0.54526,0.28716 1.14866,0.67117 1.34089,0.85336 0.19222,0.18218 0.82529,0.40732 1.40681,0.50031 0.58153,0.093 1.19816,0.30912 1.37029,0.48028 0.54331,0.54026 1.35031,0.92202 1.96662,0.93035 0.58922,0.008 0.59531,-0.0297 0.59531,-3.67217 z m -5.23312,-3.03905 c 0.54152,-0.0996 1.14459,-0.40947 1.34016,-0.68868 0.49403,-0.70533 2.49926,-1.02189 2.72624,-0.43037 0.21069,0.54903 0.79728,0.55572 1.00612,0.0115 0.0883,-0.23019 0.1606,-2.07559 0.1606,-4.1009 v -3.68238 l -1.92601,0.0805 c -1.05931,0.0442 -2.07134,0.17028 -2.24896,0.28005 -0.2092,0.12929 -0.32294,0.0293 -0.32294,-0.28391 0,-0.26593 -0.32743,-0.6865 -0.72761,-0.93462 -0.50169,-0.31105 -0.59069,-0.4533 -0.28663,-0.45815 0.24253,-0.004 0.48066,-0.0981 0.52917,-0.20931 0.0485,-0.11124 0.7728,-0.41499 1.60955,-0.67498 1.15269,-0.35816 1.52135,-0.59458 1.52135,-0.97562 0,-0.2766 0.41672,-0.90763 0.92604,-1.40227 0.72676,-0.70583 0.92604,-1.10833 0.92604,-1.87044 0,-0.81732 -0.228,-1.20648 -1.43996,-2.45776 -1.35806,-1.402116 -1.49605,-1.477581 -2.42599,-1.326673 -0.54231,0.088 -1.05761,0.275842 -1.14511,0.417415 -0.33753,0.546138 -1.62126,0.777528 -3.51785,0.634088 -1.74828,-0.13222 -2.01765,-0.0906 -2.3455,0.36214 -0.20371,0.28134 -0.7871,0.67505 -1.29642,0.87491 -0.50932,0.19986 -1.13904,0.58083 -1.39937,0.84659 -0.26033,0.26576 -0.61752,0.48716 -0.79375,0.492 -0.74854,0.0206 -2.00702,1.5787 -1.27509,1.5787 0.12978,0 0.34117,0.56555 0.46976,1.25677 l 0.2338,1.25677 1.67332,-0.0271 c 1.11828,-0.0181 1.75233,-0.14978 1.91149,-0.39688 0.16383,-0.25434 0.30011,-0.28005 0.43661,-0.0824 0.28545,0.4134 1.84933,0.90324 2.88375,0.90324 0.60937,0 0.88656,0.12336 0.88656,0.39457 0,0.6763 -1.55019,1.91446 -2.78678,2.22584 -0.65008,0.16369 -1.18197,0.39731 -1.18197,0.51915 0,0.31794 -1.54203,1.88752 -1.85438,1.88752 -0.14426,0 -0.26228,-0.52305 -0.26228,-1.16232 0,-0.8628 -0.11932,-1.20817 -0.46302,-1.34024 -0.90129,-0.34635 -4.71817,-0.4856 -5.26649,-0.19215 -0.29528,0.15802 -1.59748,0.35781 -2.89378,0.44396 -2.29159,0.15229 -2.33859,0.14394 -1.69546,-0.30119 0.83354,-0.57693 1.85208,-1.63883 1.85208,-1.93093 0,-0.12224 0.26789,-0.29163 0.59531,-0.3764 0.54151,-0.14021 0.92012,-0.41285 2.77902,-2.00118 0.3279,-0.28018 0.80415,-0.54882 1.05833,-0.59697 0.62381,-0.11817 0.80082,-1.74041 0.21445,-1.96542 -0.22758,-0.0873 -0.41378,-0.31005 -0.41378,-0.49495 0,-0.8434 -1.89672,-1.29149 -3.49032,-0.82458 -0.66557,0.19501 -0.7067,0.1594 -0.62823,-0.54375 0.0792,-0.70986 -0.53254,-2.713727 -0.91629,-3.001382 -0.0971,-0.07276 -0.25932,-0.662165 -0.36055,-1.30979 -0.24405,-1.561247 -0.5463,-1.8659 -1.8469,-1.861597 -1.55721,0.0052 -2.20147,0.229872 -2.65842,0.927268 -0.37854,0.577719 -0.34676,0.668914 0.58299,1.673064 1.24023,1.339471 1.40235,1.560891 2.00469,2.737867 0.27069,0.52895 0.71717,1.02056 0.99218,1.09247 0.27501,0.0719 0.50002,0.26097 0.50002,0.42011 0,0.52072 -0.74409,0.30367 -1.27565,-0.3721 -0.50366,-0.6403 -1.37018,-0.90809 -1.37018,-0.42345 0,0.13091 -0.59469,0.45186 -1.32152,0.71322 -0.75078,0.26998 -1.38699,0.68152 -1.47313,0.9529 -0.0834,0.26272 -0.38167,0.60081 -0.66285,0.7513 -0.726752,0.38894 -0.63409,1.00635 0.2825,1.88229 0.45217,0.43213 0.79375,1.03272 0.79375,1.39566 0,0.35041 0.1301,0.68048 0.28912,0.73348 0.15902,0.053 0.30168,0.53918 0.31703,1.08039 0.0269,0.94983 0.53567,1.3706 0.78987,0.65327 0.0767,-0.21651 0.35512,-0.0784 0.80615,0.4001 0.37891,0.40195 0.84211,0.6996 1.02932,0.66145 0.20706,-0.0422 0.34038,0.19663 0.34038,0.60973 0,0.96424 1.17705,1.92384 2.6428,2.15458 0.28937,0.0456 0.57053,0.31958 0.6248,0.60895 0.0543,0.28937 0.264,0.62134 0.46606,0.73772 0.20206,0.11637 0.36738,0.43577 0.36738,0.70977 0,0.274 0.23813,0.57377 0.52917,0.66614 0.29104,0.0924 0.52917,0.26734 0.52917,0.38882 0,0.34526 1.55598,0.80181 2.73267,0.80181 1.86091,0 2.76593,-0.49284 3.25456,-1.77228 0.23906,-0.62598 0.49842,-1.13814 0.57636,-1.13814 0.0779,0 0.63698,0.50601 1.24233,1.12448 1.17189,1.19727 1.84291,1.70879 2.56067,1.95198 0.2446,0.0829 0.50415,0.30556 0.57679,0.49485 0.0726,0.1893 0.55712,0.48446 1.07663,0.65591 0.51952,0.17145 0.94639,0.45133 0.94862,0.62194 0.003,0.22132 0.0598,0.22638 0.19844,0.0177 0.10691,-0.16091 0.63745,-0.37402 1.17897,-0.47358 z m -68.056462,-7.83281 c 0,-0.14553 0.208359,-0.264 0.463021,-0.26328 0.753099,0.002 3.081742,-0.89418 3.439583,-1.32392 0.291923,-0.35058 0.372957,-0.34285 0.690626,0.0658 0.501613,0.64534 1.6763,0.60421 1.889062,-0.0661 0.09237,-0.29105 0.260143,-0.52917 0.372824,-0.52917 0.112681,0 0.350234,-0.48517 0.527899,-1.07816 0.410367,-1.36969 0.136055,-3.84708 -0.468714,-4.23307 -0.316021,-0.2017 -0.343212,-0.31305 -0.10128,-0.41472 0.494244,-0.2077 0.3995,-0.54435 -0.197101,-0.70037 -0.290309,-0.0759 -0.609466,-0.35769 -0.70924,-0.62617 -0.09977,-0.26847 -0.398031,-0.6807 -0.662794,-0.91605 -0.264764,-0.23535 -0.481386,-0.55971 -0.481386,-0.720807 0,-0.161094 -0.357187,-0.477607 -0.79375,-0.703363 -0.436563,-0.225756 -0.79375,-0.498382 -0.79375,-0.605838 0,-0.324196 -2.064676,-1.113954 -2.912232,-1.113954 -0.435564,0 -0.791935,-0.119062 -0.791935,-0.264583 0,-0.145521 -0.357187,-0.264583 -0.79375,-0.264583 -0.436562,0 -0.79375,0.103285 -0.79375,0.229523 0,0.427601 -2.622865,0.778372 -3.726173,0.498324 -0.56998,-0.144677 -1.036327,-0.367628 -1.036327,-0.495448 0,-0.440222 -1.346114,-0.231402 -1.913037,0.296767 -0.312396,0.291042 -0.724137,0.529167 -0.914978,0.529167 -0.190842,0 -0.346985,0.156144 -0.346985,0.346985 0,0.190841 -0.238125,0.602581 -0.529167,0.91498 -0.291042,0.312396 -0.529167,0.663485 -0.529167,0.780195 0,0.116713 -0.302474,0.538415 -0.672165,0.937105 -0.369691,0.3987 -0.548285,0.7249 -0.396875,0.7249 0.15141,0 0.27529,0.364 0.27529,0.80888 0,1.38595 0.568945,3.16254 1.104592,3.44921 0.279531,0.1496 0.618655,0.56242 0.753608,0.91737 0.134954,0.35496 0.418406,0.64538 0.629895,0.64538 0.211488,0 0.573447,0.18892 0.804352,0.41982 0.276677,0.27668 1.198861,0.49084 2.704555,0.62807 1.801118,0.16417 2.374307,0.31963 2.707926,0.73445 0.232759,0.28942 0.810151,0.69069 1.283094,0.89173 0.472942,0.20103 0.859895,0.45551 0.859895,0.56551 0,0.11 0.238125,0.2 0.529167,0.2 0.291042,0 0.529167,-0.11906 0.529167,-0.26458 z m -24.077084,-4.42928 c 0,-0.33937 -0.162042,-0.59781 -0.374827,-0.59781 -0.206154,0 -0.43488,-0.14883 -0.508278,-0.33073 -0.0734,-0.1819 -0.142852,0.23583 -0.15434,0.92829 -0.01982,1.19473 0.0061,1.24213 0.508278,0.92854 0.291042,-0.18176 0.529167,-0.59949 0.529167,-0.92829 z m 50.805195,-1.41739 c 0.744786,-0.15973 1.418228,-0.45738 1.496539,-0.66146 0.07831,-0.20407 0.354158,-0.37104 0.612997,-0.37104 0.684348,0 1.704301,-0.58458 2.673877,-1.53252 1.199036,-1.17229 1.067353,-2.896477 -0.329896,-4.319483 -0.239845,-0.244266 -0.522097,-0.835739 -0.627224,-1.314384 -0.105129,-0.478646 -0.444672,-1.087062 -0.754544,-1.352037 -0.554421,-0.474093 -0.541729,-0.479147 0.796338,-0.317103 1.379717,0.167088 3.27047,-0.24338 3.27047,-0.709994 0,-0.134235 0.169979,-0.244064 0.377732,-0.244064 0.207754,0 0.587854,-0.47625 0.844669,-1.058334 0.256815,-0.582083 0.563084,-1.058333 0.680601,-1.058333 0.117515,0 0.213664,-0.164984 0.213664,-0.366631 0,-0.201647 0.177861,-0.707663 0.395246,-1.124479 0.217384,-0.416817 0.395978,-1.08527 0.396875,-1.485453 8.97e-4,-0.400182 0.120692,-0.727604 0.266213,-0.727604 0.152871,0 0.264583,-0.837847 0.264583,-1.984375 0,-1.146528 -0.111712,-1.984375 -0.264583,-1.984375 -0.145521,0 -0.265316,-0.327422 -0.266213,-0.727604 -7.94e-4,-0.400182 -0.179491,-1.068636 -0.396875,-1.485452 -0.217385,-0.416817 -0.395246,-1.101426 -0.395246,-1.521354 0,-0.419929 -0.119062,-0.763507 -0.264583,-0.763507 -0.145521,0 -0.264583,-0.461671 -0.264583,-1.025936 0,-0.570351 -0.169257,-1.166407 -0.381148,-1.342261 -0.209632,-0.173979 -0.31659,-0.484559 -0.237686,-0.690178 0.194095,-0.505805 -0.941121,-0.910375 -2.554492,-0.910375 -0.807939,0 -1.438981,-0.152186 -1.695754,-0.408959 -0.487862,-0.487864 -4.472046,-1.018214 -4.616834,-0.614565 -0.05126,0.142912 -0.378685,0.54532 -0.727604,0.894239 -0.723855,0.723855 -0.816226,1.325813 -0.237524,1.547882 0.218281,0.08376 0.396875,0.334626 0.396875,0.557474 0,0.222849 0.148828,0.407003 0.330729,0.409231 0.222435,0.0027 0.200776,0.09199 -0.06615,0.27262 -0.294455,0.19926 -0.209103,0.224953 0.330729,0.09956 0.844003,-0.19605 1.008555,0.363356 0.31183,1.06008 -0.228674,0.228675 -0.288205,0.415774 -0.132291,0.415774 0.155916,0 0.283482,0.416718 0.283482,0.926041 0,0.509323 -0.09078,0.926042 -0.201742,0.926042 -0.110958,0 -0.421796,0.768378 -0.69075,1.707507 -0.268955,0.939129 -0.570196,1.742801 -0.669423,1.785938 -0.371406,0.161458 -1.348502,2.014247 -1.348502,2.557056 0,0.310245 -0.148828,0.565906 -0.330729,0.568134 -0.224224,0.0027 -0.202922,0.09444 0.06615,0.284727 0.298664,0.211219 0.315034,0.313883 0.06615,0.414871 -0.181901,0.07381 -0.330729,0.292948 -0.330729,0.486976 0,0.194027 0.148828,0.413166 0.330729,0.486975 0.249703,0.101319 0.233497,0.208888 -0.06615,0.439066 -0.299643,0.230178 -0.315849,0.337747 -0.06615,0.439067 0.181901,0.07381 0.330729,0.421932 0.330729,0.773607 0,0.45654 -0.146875,0.63941 -0.513551,0.63941 -0.282453,0 -0.587137,-0.119063 -0.677074,-0.264584 -0.08994,-0.14552 -0.454152,-0.264583 -0.809365,-0.264583 -0.355214,0 -0.645843,-0.119062 -0.645843,-0.264583 0,-0.145521 -0.178594,-0.264584 -0.396875,-0.264584 -0.218281,0 -0.396875,0.119063 -0.396875,0.264584 0,0.145521 -0.278239,0.264583 -0.618308,0.264583 -0.384968,0 -1.133832,0.502153 -1.984375,1.330628 l -1.366067,1.330627 v -0.901356 c 0,-1.306785 -0.443175,-1.564915 -2.082972,-1.213241 -0.746136,0.160017 -1.356612,0.400137 -1.356612,0.5336 0,0.133462 -0.217064,0.242659 -0.482362,0.242659 -0.613404,0 -3.221805,2.41737 -3.221805,2.98585 0,0.235091 -0.171473,0.523401 -0.381052,0.640688 -0.509778,0.285284 -0.961832,2.37191 -0.676466,3.12248 0.123849,0.325745 0.531516,0.669145 0.905931,0.763115 0.374414,0.094 0.680754,0.28766 0.680754,0.43041 0,0.14274 0.342218,0.25954 0.760484,0.25954 0.418267,0 1.221939,0.15638 1.785938,0.34752 1.222121,0.41417 1.951495,0.3049 1.951495,-0.29235 0,-0.23936 0.292399,-0.68645 0.649777,-0.99354 0.48424,-0.41609 0.759865,-1.09228 1.081905,-2.654251 0.449982,-2.182503 0.649568,-2.718101 0.649568,-1.743143 0,0.315295 0.117655,0.573264 0.261456,0.573264 0.143801,0 0.339548,0.488347 0.434991,1.085213 0.111561,0.697677 0.490164,1.42993 1.060196,2.050521 0.487664,0.530916 0.88723,1.100246 0.887926,1.265176 7.94e-4,0.16493 0.209624,0.36983 0.464285,0.45534 0.551892,0.18531 1.239883,0.63945 2.062502,1.36146 1.45442,1.27653 2.856597,2.17205 3.480726,2.22301 0.174739,0.0143 0.927076,-0.10474 1.671862,-0.26447 z m -0.798944,-11.351252 -0.661458,-0.211836 0.711989,-0.02637 c 0.391593,-0.0145 0.785574,0.09269 0.875511,0.23821 0.185883,0.300763 0.0131,0.300763 -0.926042,0 z M 80.886902,92.58527 c 0,-0.220486 0.235185,-0.396875 0.529167,-0.396875 0.293981,0 0.529166,0.176389 0.529166,0.396875 0,0.220486 -0.235185,0.396875 -0.529166,0.396875 -0.293982,0 -0.529167,-0.176389 -0.529167,-0.396875 z m 14.079435,10.46784 c 0.241287,-0.2818 0.476107,-0.96641 0.521822,-1.52135 0.07238,-0.87866 0.162488,-1.00041 0.697608,-0.94257 0.337971,0.0365 0.792959,0.2449 1.011087,0.46302 0.218128,0.21813 0.544234,0.3966 0.724683,0.3966 0.180446,0 0.574619,0.22968 0.875937,0.5104 0.301321,0.28072 0.710724,0.53296 0.909786,0.56052 0.76516,0.10594 1.28798,-0.0249 1.28798,-0.32248 0,-0.17044 0.16513,-0.49786 0.36696,-0.7276 0.51398,-0.58505 0.24172,-2.166252 -0.40197,-2.33458 -0.27179,-0.07107 -0.49416,-0.331978 -0.49416,-0.579784 0,-0.254299 -0.37457,-0.615424 -0.859897,-0.829038 -0.709731,-0.312385 -0.903292,-0.586396 -1.108405,-1.569103 -0.136679,-0.654844 -0.401143,-1.34453 -0.587695,-1.532637 -0.186553,-0.188106 -0.417487,-0.932247 -0.513181,-1.653646 l -0.173995,-1.311634 h -1.260523 c -1.532745,0 -1.694558,0.286144 -1.329148,2.350403 0.144682,0.817331 0.244401,2.498087 0.221599,3.735014 l -0.04146,2.248958 -0.38455,-0.992187 c -0.211503,-0.545703 -0.467937,-0.992188 -0.569855,-0.992188 -0.101915,0 -0.379791,0.69954 -0.6175,1.554536 -0.300337,1.080256 -0.585423,1.594606 -0.934411,1.685866 -0.570857,0.14928 -0.908264,1.6094 -0.472583,2.04508 0.490707,0.49071 2.647297,0.32434 3.131871,-0.2416 z M 130.0994,97.339467 c 0,-4.430924 0.0409,-4.36373 -2.33247,-3.832595 -1.52016,0.340197 -2.14195,0.820844 -2.15703,1.667394 -0.01,0.536142 0.67479,1.700178 1.37383,2.336831 0.25841,0.23535 0.46984,0.608415 0.46984,0.829035 0,0.22062 0.23669,0.463026 0.52598,0.538676 0.28929,0.07565 0.64353,0.446725 0.7872,0.824608 0.14367,0.377884 0.38323,0.687064 0.53236,0.687064 0.14912,0 0.27113,0.17859 0.27113,0.39687 0,0.21828 0.11906,0.39688 0.26458,0.39688 0.16425,0 0.26458,-1.457978 0.26458,-3.844763 z m -97.580737,1.16771 c 0.535391,-0.330891 0.442976,-3.217258 -0.121068,-3.781302 -0.252236,-0.252236 -0.458611,-0.569169 -0.458611,-0.704296 0,-0.381814 0.52282,-0.289828 0.986154,0.173506 0.342494,0.342493 0.936178,0.403005 3.244809,0.330729 2.761056,-0.08644 2.841537,-0.106597 3.5223,-0.882211 0.507683,-0.578418 0.698949,-1.091124 0.705043,-1.889922 0.0058,-0.759257 0.139629,-1.146544 0.435451,-1.260061 0.288906,-0.110864 0.386402,-0.376739 0.301333,-0.821746 -0.167767,-0.877618 0.322383,-1.540926 0.859077,-1.162566 0.298626,0.210526 0.315001,0.31301 0.06615,0.413986 -0.391447,0.158835 -0.450158,1.413017 -0.06615,1.413017 0.145521,0 0.264583,0.178594 0.264583,0.396875 0,0.218282 0.103845,0.396875 0.230768,0.396875 0.126921,0 0.306922,0.47625 0.400001,1.058334 0.1017,0.635994 0.313554,1.058333 0.530883,1.058333 0.198907,0 0.502745,0.340635 0.675195,0.756966 0.225161,0.543587 0.625769,0.857436 1.421162,1.113384 0.609189,0.196029 1.170175,0.444236 1.246636,0.551571 0.07646,0.107334 1.072238,0.252109 2.21284,0.321722 1.841617,0.112396 2.087872,0.07283 2.19932,-0.353345 0.06902,-0.263952 0.517571,-0.691057 0.996769,-0.949122 0.479198,-0.258065 1.084853,-0.83673 1.3459,-1.285922 0.261048,-0.449192 0.552457,-0.876243 0.647576,-0.949004 0.284694,-0.217773 1.057534,-1.904818 1.057534,-2.308507 0,-0.206318 0.178594,-0.553718 0.396875,-0.771999 0.301397,-0.301397 0.3959,-1.044758 0.392823,-3.089956 -0.0022,-1.481194 -0.09153,-2.812142 -0.198437,-2.957663 -0.794997,-1.082089 -3.81627,-1.474929 -6.317994,-0.821495 -0.89413,0.233541 -1.935927,0.42462 -2.315105,0.42462 -0.379177,0 -0.689412,0.109602 -0.689412,0.243561 0,0.133958 -0.369739,0.324769 -0.821641,0.424023 -1.079706,0.237143 -3.411693,2.602326 -3.411693,3.460259 0,0.349061 -0.107951,0.634657 -0.239891,0.634657 -0.13194,0 -0.324829,-1.132901 -0.42864,-2.517559 -0.103812,-1.384657 -0.28915,-2.57961 -0.411862,-2.65545 -0.122712,-0.07584 -0.963272,-0.168048 -1.86791,-0.204905 -0.998804,-0.04069 -1.686723,-0.19279 -1.751546,-0.387258 -0.133458,-0.400372 -4.560568,-0.454405 -4.560568,-0.05566 0,0.145521 -0.297347,0.264584 -0.660771,0.264584 h -0.660771 l 0.02555,9.061979 c 0.01554,5.510456 0.114565,8.759736 0.252673,8.29078 0.124917,-0.424159 0.379015,-0.865074 0.564663,-0.97981 z m 87.108057,-1.187715 c 0.45471,-0.174485 0.58553,-1.162317 0.15393,-1.162317 -0.14552,0 -0.26458,-0.359456 -0.26458,-0.798791 0,-0.719925 0.0653,-0.7824 0.66146,-0.632775 0.5489,0.137764 0.66146,0.07109 0.66146,-0.391835 0,-0.306817 -0.11907,-0.557849 -0.26459,-0.557849 -0.14552,0 -0.26458,0.119062 -0.26458,0.264583 0,0.145521 -0.17859,0.264583 -0.39688,0.264583 -0.21828,0 -0.39687,-0.119062 -0.39687,-0.264583 0,-0.145521 0.14883,-0.266406 0.33073,-0.268635 0.22048,-0.0027 0.19844,-0.08955 -0.0662,-0.260532 -0.26458,-0.170987 -0.28663,-0.25783 -0.0661,-0.260531 0.2451,-0.003 0.33073,-0.788745 0.33073,-3.034771 v -3.03072 l -0.94581,-0.177434 c -0.52517,-0.09852 -1.06146,-0.06178 -1.20585,0.08261 -0.14303,0.143026 -0.33228,0.959909 -0.42056,1.815295 -0.0883,0.855387 -0.31956,1.714289 -0.51394,1.908672 -0.19439,0.194383 -0.35343,0.523513 -0.35343,0.7314 0,0.396986 -0.0967,0.426095 -1.5875,0.478016 -0.74693,0.02601 -0.94239,0.147395 -1.01059,0.627565 -0.0948,0.667659 -0.51763,0.793072 -0.73796,0.218894 -0.24747,-0.644908 -0.94862,-0.726591 -1.46639,-0.170833 -0.26907,0.288819 -0.48922,0.590665 -0.48922,0.67077 0,0.32279 1.4342,1.728565 1.76352,1.728565 0.19423,0 0.35314,0.238125 0.35314,0.529166 0,0.293982 0.17639,0.529167 0.39688,0.529167 0.21828,0 0.39687,0.119062 0.39687,0.264583 0,0.145521 0.4068,0.264584 0.904,0.264584 0.82469,0 0.93891,-0.09864 1.30202,-1.12448 0.21892,-0.618463 0.40744,-0.916119 0.41893,-0.661458 0.0115,0.254661 0.13995,0.463021 0.28547,0.463021 0.14552,0 0.26458,0.204569 0.26458,0.454597 0,0.435099 1.18633,1.66207 1.60702,1.66207 0.11098,0 0.39012,-0.07227 0.6203,-0.1606 z m -3.10926,-3.719956 c -0.27447,-0.274471 -0.20739,-1.146528 0.0882,-1.146528 0.14552,0 0.26459,0.297656 0.26459,0.661458 0,0.692696 -0.0611,0.776731 -0.35278,0.48507 z m -1.19295,-0.617361 c 0,-0.363802 0.0601,-0.51263 0.13345,-0.330729 0.0734,0.181901 0.0734,0.479557 0,0.661458 -0.0734,0.181901 -0.13345,0.03307 -0.13345,-0.330729 z m -0.88513,-0.709907 c 0.19099,-0.07643 0.4192,-0.06703 0.50712,0.02089 0.0879,0.08792 -0.0684,0.150453 -0.34727,0.138965 -0.30823,-0.01269 -0.37092,-0.07539 -0.15985,-0.159853 z m -49.467962,2.332518 c 0.313309,-0.27173 0.56965,-0.63147 0.56965,-0.799422 0,-0.167952 0.297656,-0.440989 0.661459,-0.606748 0.363802,-0.165759 0.661458,-0.401332 0.661458,-0.523494 0,-0.122163 0.223583,-0.222114 0.496856,-0.222114 0.882457,0 2.412161,-0.78531 2.454973,-1.260321 0.137232,-1.522541 0.120695,-1.946783 -0.08074,-2.071276 -0.32262,-0.199388 -0.279258,-2.224653 0.04763,-2.224653 0.15009,0 0.33364,0.158316 0.407893,0.351814 0.07425,0.193497 0.546764,0.513376 1.050028,0.710842 0.503266,0.197465 0.915027,0.518346 0.915027,0.713068 0,0.679929 1.331047,0.925927 3.103618,0.573596 0.912386,-0.181354 1.658882,-0.426953 1.658882,-0.545777 0,-0.118823 0.166947,-0.216043 0.370991,-0.216043 0.204046,0 0.492294,-0.347963 0.640551,-0.77325 0.148254,-0.425288 0.517091,-0.905727 0.819631,-1.067643 0.302543,-0.161915 0.550077,-0.446346 0.550077,-0.632068 0,-0.185721 0.240646,-0.59598 0.534773,-0.911686 0.294124,-0.315705 0.607158,-0.935946 0.695632,-1.378313 0.08847,-0.442366 0.264544,-0.868382 0.391269,-0.946703 0.126724,-0.07832 0.230409,-0.364994 0.230409,-0.637053 0,-0.272059 0.16999,-0.664642 0.377754,-0.872407 0.615598,-0.615599 0.793546,-2.155113 0.305514,-2.643146 -0.230277,-0.230276 -0.418684,-0.583419 -0.418684,-0.784761 0,-0.686037 -1.069414,-2.582137 -1.456344,-2.582137 -0.212111,0 -0.461737,0.327422 -0.554725,0.727604 -0.09298,0.400182 -0.349888,0.871864 -0.570894,1.048182 -0.221004,0.176317 -0.535607,0.588915 -0.699117,0.916884 -0.189457,0.380009 -0.680003,0.68545 -1.352378,0.842064 -0.580295,0.135167 -1.142558,0.377413 -1.249471,0.538325 -0.135279,0.203605 -0.195617,0.192001 -0.198437,-0.03816 -0.0021,-0.181901 -0.323647,-0.330729 -0.714267,-0.330729 -0.390618,0 -1.241483,-0.257183 -1.89081,-0.571518 -1.039535,-0.50323 -1.215607,-0.523637 -1.473613,-0.170792 -0.161161,0.220398 -0.554361,0.483671 -0.873781,0.585051 -0.319419,0.10138 -0.654408,0.416361 -0.744419,0.699959 -0.09001,0.283598 -0.274693,0.515633 -0.410408,0.515633 -0.135713,0 -0.246753,0.164015 -0.246753,0.364478 0,0.200463 -0.178594,0.512698 -0.396875,0.693855 -0.218282,0.181158 -0.396875,0.540185 -0.396875,0.79784 0,0.257654 -0.163878,0.531348 -0.36417,0.608208 -0.231275,0.08875 -0.316574,0.388741 -0.233741,0.822057 0.128751,0.673516 0.109463,0.682312 -1.496216,0.682312 -1.201833,0 -1.66642,0.103648 -1.778942,0.396875 -0.08376,0.218281 -0.274733,0.396875 -0.424379,0.396875 -0.149645,0 -0.523859,0.268812 -0.831588,0.597359 -0.313825,0.335057 -1.48894,0.885436 -2.676173,1.253419 -2.737014,0.848338 -3.0227,1.192671 -3.033906,3.65672 -0.009,1.983764 0.279944,2.959169 0.876657,2.959169 0.185722,0 0.568487,0.212163 0.850588,0.471474 0.512548,0.471141 3.341923,1.295005 4.639615,1.350974 0.377915,0.0163 0.943462,-0.192689 1.256771,-0.46442 z m 3.017046,-8.412423 c -0.392697,-0.158457 -0.446974,-0.883105 -0.06615,-0.883105 0.145521,0 0.264584,0.168672 0.264584,0.374826 0,0.206155 0.148828,0.43488 0.330729,0.508279 0.181901,0.0734 0.211666,0.133452 0.06615,0.133452 -0.145521,0 -0.413412,-0.06005 -0.595313,-0.133452 z m 35.675796,8.089538 c 0.3038,-0.303796 0.95864,-0.722113 1.45521,-0.929592 0.49657,-0.20748 0.90285,-0.480814 0.90285,-0.60741 0,-0.126595 0.23891,-0.292651 0.53092,-0.369012 0.33216,-0.08686 0.59217,-0.445091 0.69453,-0.9569 0.09,-0.449934 0.26779,-0.818062 0.39512,-0.818062 0.12733,0 0.23151,-0.184507 0.23151,-0.410015 0,-0.411264 0.72597,-1.987834 1.02953,-2.235819 0.0891,-0.07276 0.3307,-0.459713 0.53696,-0.859896 0.20626,-0.400182 0.52757,-0.727604 0.71403,-0.727604 0.18646,0 0.43424,-0.165322 0.55061,-0.367382 0.11637,-0.20206 0.44543,-0.411227 0.73125,-0.464815 0.35022,-0.06566 0.59641,-0.421955 0.75505,-1.092748 0.29577,-1.250661 0.11077,-1.999482 -0.73776,-2.986146 -0.36773,-0.427598 -0.66875,-0.916819 -0.66893,-1.087157 -5.3e-4,-0.437087 -1.35679,-0.682327 -2.69928,-0.488058 -0.62563,0.09053 -2.01284,0.200612 -3.0827,0.244621 -1.06985,0.04401 -2.02235,0.18922 -2.11666,0.322691 -0.0943,0.133471 -0.49889,0.451029 -0.89908,0.705684 -0.47329,0.301182 -0.7276,0.692064 -0.7276,1.118368 0,0.406152 -0.15092,0.655359 -0.39688,0.655359 -0.21828,0 -0.39687,0.111039 -0.39687,0.246753 0,0.135715 -0.26789,0.327641 -0.595313,0.426502 -0.327422,0.09886 -0.892969,0.467954 -1.256771,0.820207 -0.363802,0.352252 -1.052518,0.993764 -1.530477,1.425581 -0.477959,0.431818 -0.74585,0.785124 -0.595313,0.785124 0.150538,0 0.273707,0.30063 0.273707,0.668068 0,0.892472 0.917411,3.462139 1.412951,3.957682 0.217742,0.217739 0.47483,0.755293 0.57131,1.194562 0.09648,0.43927 0.433631,0.934569 0.749223,1.100664 0.315595,0.166096 0.633343,0.376759 0.706103,0.468142 0.26882,0.33762 1.47701,0.777688 2.18281,0.795058 0.40464,0.01 0.97278,-0.227266 1.27996,-0.53445 z m 18.30302,0.394198 c 0.20574,-0.205732 -0.0615,-0.900174 -0.34641,-0.900174 -0.1209,0 -0.20189,0.238125 -0.17997,0.529166 0.04,0.530998 0.23145,0.665939 0.52638,0.371008 z m 0.19462,-1.281434 c 0,-0.06417 -0.11906,-0.190262 -0.26458,-0.280199 -0.14552,-0.08994 -0.26458,-0.03743 -0.26458,0.116677 0,0.154109 0.11906,0.280198 0.26458,0.280198 0.14552,0 0.26458,-0.0525 0.26458,-0.116676 z m 3.87541,-1.520933 c 1.41174,-0.510494 1.77953,-2.595724 0.45782,-2.595724 -0.20046,0 -0.36448,-0.194546 -0.36448,-0.432324 0,-0.889096 -0.62597,-2.478093 -0.97622,-2.478093 -0.19982,0 -0.43183,-0.178594 -0.5156,-0.396875 -0.0868,-0.226226 -0.48142,-0.396875 -0.91773,-0.396875 -0.50401,0 -0.76545,0.135553 -0.76545,0.396875 0,0.218281 -0.11906,0.396875 -0.26458,0.396875 -0.14552,0 -0.26458,0.178594 -0.26458,0.396875 0,0.218281 0.11906,0.396875 0.26458,0.396875 0.14552,0 0.26532,0.267891 0.26621,0.595313 8e-4,0.327422 0.17949,0.936344 0.39688,1.35316 0.21738,0.416817 0.39524,1.160957 0.39524,1.653646 0,0.619876 0.12225,0.895798 0.39688,0.895798 0.21828,0 0.39687,0.119063 0.39687,0.264583 0,0.348526 0.4318,0.334045 1.49416,-0.05011 z m 3.73738,-10.856743 c -0.36314,-0.247908 -4.45596,-0.124588 -4.89625,0.147529 -0.52819,0.326439 -0.61404,1.840985 -0.17023,3.003088 0.2398,0.627909 0.52004,1.141652 0.62276,1.141652 0.10272,0 0.33695,0.506015 0.52052,1.124479 0.18357,0.618464 0.55051,1.329006 0.81543,1.578982 0.26491,0.249977 0.63293,0.872839 0.81782,1.384138 0.26593,0.735433 0.56033,1.004405 1.40926,1.287558 l 1.07311,0.357924 0.0722,-4.897732 c 0.055,-3.733923 -0.008,-4.952358 -0.26458,-5.127618 z m -70.833272,4.490706 c 0.273145,-0.327422 0.500589,-0.74414 0.505431,-0.926041 0.0048,-0.181901 0.136368,-0.33073 0.292285,-0.33073 0.36631,0 1.039434,-0.673125 1.039434,-1.039434 0,-0.155915 0.114475,-0.283482 0.254386,-0.283482 0.359701,0 0.878041,-2.083625 0.648642,-2.60742 -0.324175,-0.740199 -0.404259,-1.625914 -0.147013,-1.625914 0.134723,0 0.317016,0.287128 0.405096,0.638062 0.12432,0.495328 0.394904,0.677724 1.209598,0.815366 0.577199,0.09752 1.157192,0.110718 1.288873,0.02934 0.13168,-0.08138 0.318746,-0.745954 0.415697,-1.476824 0.147164,-1.109365 0.266499,-1.328855 0.722493,-1.328855 0.803555,0 2.407078,-0.819263 2.960494,-1.512558 0.265224,-0.33226 0.698802,-0.604109 0.963504,-0.604109 0.292706,0 0.546328,-0.259171 0.647295,-0.661459 0.09131,-0.363802 0.282811,-0.661458 0.425559,-0.661458 0.142748,0 0.259543,-0.155991 0.259543,-0.346647 0,-0.190656 0.368184,-0.723235 0.818187,-1.183509 l 0.81819,-0.836863 3.644246,-0.07326 3.644244,-0.07326 -0.220572,-0.595312 c -0.21757,-0.587197 -0.285616,-0.595313 -4.991603,-0.595313 h -4.771025 v 0.661459 c 0,0.866768 -0.684856,0.866768 -0.902399,0 l -0.166015,-0.661459 h -4.883137 -4.883137 l 0.15875,0.79375 c 0.137125,0.685629 0.08103,0.79375 -0.411792,0.79375 -0.313802,0 -0.637339,0.174062 -0.718977,0.386804 -0.08163,0.212741 -0.359772,0.45388 -0.618081,0.535864 -0.737524,0.234082 -1.041528,3.924665 -0.659561,8.00702 0.09871,1.055026 0.285106,1.918229 0.414206,1.918229 0.129099,0 0.234726,0.178594 0.234726,0.396875 0,0.218282 -0.119063,0.396875 -0.264584,0.396875 -0.145521,0 -0.264583,0.357188 -0.264583,0.79375 0,0.436563 0.111039,0.793751 0.246753,0.793751 0.135715,0 0.322332,0.238125 0.414705,0.529166 0.222016,0.699511 0.855171,0.671023 1.470142,-0.06615 z m 2.790777,-8.498001 c 0.207201,-1.532234 -0.336452,-4.135853 -0.863592,-4.135853 -0.19504,0 -0.354618,-0.182431 -0.354618,-0.405401 0,-0.222971 -0.267891,-0.51308 -0.595313,-0.644688 -0.420285,-0.168934 0.143693,-0.244124 1.918229,-0.25574 l 2.513542,-0.01645 v 2.491628 2.491628 l -1.058333,0.464318 c -0.582084,0.255375 -1.210382,0.652047 -1.396217,0.881493 -0.280437,0.346247 -0.308269,0.198173 -0.163698,-0.870931 z m 37.529618,5.821828 c 0.3713,-0.344109 0.67509,-0.759819 0.67509,-0.9238 0,-0.163981 0.238127,-0.446858 0.529167,-0.628617 0.29104,-0.181758 0.52917,-0.480424 0.52917,-0.6637 0,-0.183277 0.11906,-0.333231 0.26458,-0.333231 0.14552,0 0.26458,-0.289151 0.26458,-0.642559 0,-0.353408 0.1786,-0.821154 0.39688,-1.039435 0.44895,-0.448952 0.53289,-1.228422 0.13229,-1.228422 -0.14552,0 -0.26458,-0.245953 -0.26458,-0.546561 0,-1.213334 -1.20938,-2.131392 -1.7198,-1.305523 -0.08993,0.145521 -0.38611,0.264584 -0.658171,0.264584 -0.272057,0 -0.673245,0.178593 -0.891526,0.396875 -0.23685,0.236848 -0.883844,0.396875 -1.604585,0.396875 -1.52305,0 -3.328006,0.751339 -3.328006,1.385331 0,0.256714 0.119063,0.466752 0.264584,0.466752 0.145521,0 0.264583,0.238125 0.264583,0.529167 0,0.507227 0.257019,0.646238 1.008126,0.545256 0.663189,-0.08916 2.166874,0.556532 2.166874,0.930471 0,0.206996 0.113454,0.376356 0.252119,0.376356 0.147042,0 0.186817,0.55135 0.09543,1.322917 -0.143909,1.215097 -0.111659,1.322916 0.395711,1.322916 0.303813,0 0.856179,-0.281543 1.227479,-0.625652 z M 48.020435,82.342861 c 0.52903,-0.187509 1.497519,-0.906472 2.1522,-1.597696 0.65468,-0.691224 1.279364,-1.256771 1.388187,-1.256771 0.371752,0 1.51863,-1.320025 1.966025,-2.26284 0.350993,-0.739663 0.413812,-1.376546 0.293145,-2.972033 -0.08447,-1.11685 -0.279748,-2.072693 -0.433959,-2.124097 -0.15421,-0.0514 -0.280382,-0.202601 -0.280382,-0.335995 0,-0.133394 1.131094,-0.242535 2.513542,-0.242535 1.886004,0 2.513542,-0.08587 2.513542,-0.343958 0,-0.847992 -0.630644,-0.978959 -4.71397,-0.978959 h -4.078969 l 0.126445,0.661459 c 0.110453,0.577796 0.03302,0.661458 -0.612212,0.661458 -0.564575,0 -0.758583,-0.1403 -0.823205,-0.595312 -0.08308,-0.584967 -0.156935,-0.596579 -4.249805,-0.668168 l -4.165257,-0.07285 0.06422,0.602021 c 0.0616,0.577483 -0.02476,0.605154 -2.118597,0.678868 -2.004238,0.07056 -2.182813,0.0352 -2.182813,-0.432163 0,-0.598517 -0.671141,-0.82659 -2.447396,-0.831696 l -1.256771,-0.0036 v 2.00331 2.003311 l 0.727605,-0.08508 c 0.707622,-0.08275 0.72557,-0.05238 0.653557,1.105544 -0.05644,0.907477 -0.229472,1.305986 -0.727604,1.675714 -0.520819,0.386566 -0.653558,0.719252 -0.653558,1.638031 0,0.634118 0.114162,1.223498 0.253694,1.309733 0.139531,0.08624 0.943203,0.221582 1.785937,0.300771 1.490955,0.140099 1.5559,0.118572 2.410083,-0.798868 0.482811,-0.518566 0.82273,-1.03384 0.755375,-1.145052 -0.06735,-0.111212 0.04363,-0.355726 0.246641,-0.543365 0.309621,-0.286181 0.369104,-0.211562 0.369104,0.463021 0,0.4423 0.09806,0.804182 0.21792,0.804182 0.119856,0 0.328215,0.433289 0.463021,0.962866 0.218337,0.857727 0.389555,1.007818 1.568017,1.374543 0.727604,0.226422 1.382448,0.491791 1.455209,0.589707 0.07276,0.09792 0.846666,0.370373 1.719791,0.605459 1.707085,0.459626 3.534815,0.406262 5.101243,-0.148942 z M 37.711217,74.409815 c -0.244652,-0.166277 -0.151471,-0.224477 0.313184,-0.195609 1.216856,0.0756 1.322916,0.0017 1.322916,-0.921881 0,-1.425803 0.221333,-1.741431 1.221175,-1.741431 0.803589,0 0.867816,0.0515 0.59969,0.480834 -0.165156,0.264458 -0.552815,0.59188 -0.861462,0.727604 -0.330946,0.145529 -0.616698,0.572419 -0.696506,1.04052 -0.109306,0.641124 -0.271408,0.798838 -0.843025,0.820209 -0.389233,0.01455 -0.864421,-0.08006 -1.055972,-0.210246 z m 85.773603,7.52257 c 0,-0.111014 0.25815,-0.319373 0.57367,-0.463021 0.31552,-0.143648 0.70247,-0.499303 0.8599,-0.790345 0.15742,-0.291041 0.37769,-0.597069 0.48949,-0.680061 0.44518,-0.330463 0.68645,-1.8587 0.41596,-2.634637 -0.15076,-0.432489 -0.35801,-0.786343 -0.46055,-0.786343 -0.10254,0 -0.40051,-0.595313 -0.66215,-1.322917 -0.26164,-0.727604 -0.55841,-1.322917 -0.65948,-1.322917 -0.10107,0 -0.40471,-0.535781 -0.67476,-1.190625 -0.54111,-1.31216 -0.50182,-1.30057 -4.04831,-1.194044 -1.1633,0.03494 -1.36225,-0.02568 -1.22846,-0.374318 0.0878,-0.228807 0.31847,-0.416013 0.51259,-0.416013 0.19413,0 0.42654,-0.119062 0.51647,-0.264583 0.10609,-0.171652 -1.11977,-0.261758 -3.49011,-0.256538 -2.89429,0.0064 -3.54366,0.07155 -3.12447,0.313591 1.3128,0.758024 1.28905,1.00128 -0.0978,1.00128 -0.72941,0 -1.39352,0.108934 -1.47581,0.242075 -0.0823,0.133142 -0.22146,0.936813 -0.30928,1.785938 l -0.15967,1.543862 1.08207,0.968028 c 0.69013,0.617392 1.46735,1.033121 2.14575,1.147736 0.58502,0.09884 1.06368,0.288304 1.06368,0.421034 0,0.13273 0.26789,0.243151 0.59531,0.245379 0.76837,0.0052 1.14523,0.263684 1.35188,0.927146 0.0915,0.293877 0.61359,0.769545 1.16014,1.057039 0.54654,0.287494 1.13976,0.718054 1.31827,0.956799 0.1785,0.238746 0.62499,0.509487 0.99219,0.601648 0.36719,0.09216 0.66763,0.284359 0.66763,0.427107 0,0.142749 0.59531,0.259543 1.32291,0.259543 0.72761,0 1.32292,-0.09083 1.32292,-0.201843 z m 6.61458,-7.618981 c 0,-2.500674 -0.0928,-3.794706 -0.26458,-3.688552 -0.14552,0.08994 -0.26458,0.335089 -0.26458,0.544782 0,0.294312 -0.40729,0.381238 -1.78594,0.381163 l -1.78594,-9.6e-5 0.0553,1.653742 c 0.0304,0.909559 0.0602,1.798466 0.0662,1.97535 0.0157,0.466425 1.51138,1.927351 1.97315,1.927351 0.21596,0 0.48786,0.161135 0.60423,0.358079 0.19525,0.33042 0.72407,0.628871 1.20378,0.679367 0.10914,0.01149 0.19843,-1.712546 0.19843,-3.831186 z m -56.676545,2.689219 c -0.18764,-0.203007 -0.432401,-0.313842 -0.543914,-0.246301 -0.30253,0.183235 0.04395,0.615406 0.493381,0.615406 0.32172,0 0.330748,-0.06594 0.05053,-0.369105 z m 1.643213,-0.689229 c 0,-0.145521 -0.119062,-0.264583 -0.264583,-0.264583 -0.145521,0 -0.264583,0.119062 -0.264583,0.264583 0,0.145521 0.119062,0.264584 0.264583,0.264584 0.145521,0 0.264583,-0.119063 0.264583,-0.264584 z m 1.719792,-0.529166 c 0.206952,-0.334856 -0.143306,-0.334856 -0.661458,0 -0.342024,0.221032 -0.335039,0.25704 0.05053,0.260531 0.246073,0.0022 0.520991,-0.115011 0.610928,-0.260531 z m -1.010081,-0.661459 c 0.03862,-0.380833 0.01627,-0.403936 -0.07971,-0.08242 -0.07335,0.245713 -0.393938,0.503341 -0.712412,0.572507 -0.485307,0.105398 -0.472403,0.11874 0.07971,0.08242 0.44716,-0.02942 0.675992,-0.213313 0.712415,-0.572507 z m 1.936123,0 c 0,-0.218281 -0.119063,-0.396875 -0.264583,-0.396875 -0.145521,0 -0.264584,0.178594 -0.264584,0.396875 0,0.218281 0.119063,0.396875 0.264584,0.396875 0.14552,0 0.264583,-0.178594 0.264583,-0.396875 z m 14.708214,-0.198437 c 1.317969,-1.094159 2.270588,-2.377244 2.138887,-2.880872 -0.117391,-0.4489 0.05196,-0.492566 1.910339,-0.492566 2.02148,0 3.46152,0.394643 3.465497,0.949718 0.0011,0.158543 0.299721,0.423881 0.663521,0.58964 0.3638,0.165759 0.66146,0.413762 0.66146,0.551117 0,0.357153 1.53164,0.784858 2.81265,0.785421 0.71555,3.17e-4 1.28265,-0.176339 1.64258,-0.511666 0.30235,-0.281681 0.65116,-0.512147 0.77515,-0.512147 0.12398,0 0.6223,-0.386953 1.10738,-0.859895 l 0.88196,-0.859896 -1.82019,-0.132292 -1.82019,-0.132292 0.64431,-0.597962 0.64432,-0.597963 -12.422008,0.0688 -12.422005,0.0688 -0.08455,0.595313 c -0.07694,0.541767 0.02265,0.595312 1.107255,0.595312 0.655492,0 1.492457,0.114308 1.859921,0.254018 0.632883,0.240622 0.851011,0.39697 2.162712,1.550175 0.656383,0.577073 2.563926,1.370807 3.29439,1.370807 0.288097,0 0.523812,0.119063 0.523812,0.264584 0,0.379435 1.799143,0.327074 2.272797,-0.06615 z m 9.567304,-3.564836 c 0.47295,-0.05869 0.8599,-0.218231 0.8599,-0.354532 0,-0.136301 0.17859,-0.24782 0.39687,-0.24782 0.21829,0 0.39688,0.106324 0.39688,0.236276 0,0.343935 -0.71458,0.56366 -1.67529,0.515131 l -0.83825,-0.04234 z"
       style="fill:#000000;stroke-width:0.264583" />
  </g>
</svg>
