<?xml version="1.0" encoding="UTF-8" standalone="no"?>
<svg
   xmlns:dc="http://purl.org/dc/elements/1.1/"
   xmlns:cc="http://creativecommons.org/ns#"
   xmlns:rdf="http://www.w3.org/1999/02/22-rdf-syntax-ns#"
   xmlns:svg="http://www.w3.org/2000/svg"
   xmlns="http://www.w3.org/2000/svg"
   xmlns:sodipodi="http://sodipodi.sourceforge.net/DTD/sodipodi-0.dtd"
   xmlns:inkscape="http://www.inkscape.org/namespaces/inkscape"
   sodipodi:docname="VectorSlice.svg"
   inkscape:version="1.0 (4035a4fb49, 2020-05-01)"
   id="svg8"
   version="1.1"
   viewBox="0 0 210 297"
   height="297mm"
   width="210mm">
  <defs
     id="defs2" />
  <sodipodi:namedview
     inkscape:window-maximized="1"
     inkscape:window-y="-6"
     inkscape:window-x="-6"
     inkscape:window-height="850"
     inkscape:window-width="1368"
     showgrid="false"
     inkscape:document-rotation="0"
     inkscape:current-layer="layer1"
     inkscape:document-units="mm"
     inkscape:cy="335.62655"
     inkscape:cx="394.3875"
     inkscape:zoom="1.4"
     inkscape:pageshadow="2"
     inkscape:pageopacity="0.0"
     borderopacity="1.0"
     bordercolor="#666666"
     pagecolor="#ffffff"
     id="base" />
  <metadata
     id="metadata5">
    <rdf:RDF>
      <cc:Work
         rdf:about="">
        <dc:format>image/svg+xml</dc:format>
        <dc:type
           rdf:resource="http://purl.org/dc/dcmitype/StillImage" />
        <dc:title></dc:title>
      </cc:Work>
    </rdf:RDF>
  </metadata>
  <g
     id="layer1"
     inkscape:groupmode="layer"
     inkscape:label="Layer 1">
    <path
       id="path24"
       d="M 103.02613,85.735743 V 36.258658 h 49.47709 49.47708 v 49.477085 49.477087 h -49.47708 -49.47709 z m 10.1483,48.476897 c -1.1296,-1.09973 -1.93625,-2.12678 -2.29078,-2.91672 -0.3981,-0.88697 -0.82659,-1.31142 -2.29464,-2.27295 -1.00692,-0.65951 -1.27238,-0.72702 -1.91091,-0.486 -0.72156,0.27235 -0.74155,0.25572 -0.74155,-0.61706 0,-0.9664 -0.55888,-1.49339 -1.91823,-1.80876 l -0.7276,-0.16881 v 3.31233 c 0,1.82178 0.0643,3.31233 0.143,3.31233 0.21521,0 1.82832,-1.16125 1.92957,-1.38906 0.19558,-0.44006 0.5161,-0.1535 0.66587,0.59531 0.0999,0.49963 0.32158,0.79375 0.5982,0.79375 0.36862,0 0.41315,0.19191 0.27626,1.19063 l -0.1632,1.19062 h 3.5948 3.59479 z m 24.924,0.14757 c -0.59241,-0.84578 -0.51474,-1.3181 0.38187,-2.32238 0.43656,-0.48898 0.79375,-1.16934 0.79375,-1.51191 0,-0.51985 0.1151,-0.60744 0.69595,-0.52966 0.38278,0.0513 0.8659,0.32323 1.07362,0.60437 0.35518,0.48074 0.39328,0.4836 0.64011,0.0481 0.14435,-0.25466 0.38354,-0.46302 0.53154,-0.46302 0.148,0 0.70763,-0.32261 1.24362,-0.7169 0.536,-0.3943 1.02234,-0.74968 1.08077,-0.78974 0.0584,-0.0401 -0.20469,-0.38377 -0.58471,-0.76379 -0.65298,-0.65297 -0.66805,-0.72591 -0.27425,-1.32693 0.53283,-0.81319 1.54035,-0.88244 1.33356,-0.0917 -0.10393,0.39744 0.0305,0.62308 0.49831,0.83622 0.35236,0.16054 0.64065,0.36477 0.64065,0.45384 0,0.0891 0.42562,0.39116 0.94582,0.67131 1.09801,0.59132 1.69639,0.37371 1.98987,-0.72366 0.18791,-0.70264 -0.19966,-1.27208 -1.08361,-1.59207 -0.21828,-0.079 0.67431,-0.14429 1.98353,-0.14504 2.0226,-10e-4 2.42031,-0.0734 2.64584,-0.48053 0.50055,-0.90358 2.08869,-2.21023 2.68639,-2.21023 0.46502,0 0.63347,-0.19094 0.75858,-0.85989 0.46616,-2.49269 0.22352,-3.29114 -1.42719,-4.69636 -0.5983,-0.50932 -1.535,-1.31242 -2.08155,-1.78467 -0.54655,-0.47225 -1.18227,-0.8592 -1.41272,-0.8599 -0.23045,-6.9e-4 -0.93487,-0.47751 -1.56538,-1.05959 -0.63051,-0.58209 -1.19709,-1.05834 -1.25906,-1.05834 -0.062,0 -0.41785,-0.24005 -0.79084,-0.53344 -0.49917,-0.39264 -0.90263,-0.49133 -1.5286,-0.3739 -0.59283,0.11122 -1.18248,-0.01 -1.94667,-0.39972 l -1.09625,-0.55926 -0.5826,0.54277 c -0.32043,0.29853 -0.74446,0.48067 -0.94228,0.40476 -0.36626,-0.14054 -1.11411,0.42811 -1.11411,0.84715 0,0.1269 -0.14883,0.55361 -0.33073,0.94824 -0.27904,0.60538 -0.44736,0.6924 -1.07695,0.5568 -0.53233,-0.11464 -0.84029,-0.0321 -1.0744,0.28811 -0.28929,0.39562 -1.06431,0.58643 -2.61115,0.64285 -0.30924,0.0113 -0.46303,0.23031 -0.46303,0.65945 0,0.67603 -0.61514,1.4713 -1.14337,1.47816 -0.21735,0.003 -0.22475,0.063 -0.0244,0.19844 0.15806,0.10691 0.42136,0.58593 0.5851,1.06449 0.25987,0.75949 0.22833,0.93949 -0.24818,1.416 -0.68565,0.68565 -0.95759,3.40244 -0.34057,3.40244 0.24329,0 0.37771,0.28247 0.37771,0.79375 0,0.43656 -0.11679,0.79375 -0.25954,0.79375 -0.14275,0 -0.33425,0.29765 -0.42556,0.66146 -0.10602,0.42241 -0.35231,0.66145 -0.6815,0.66145 -0.47985,0 -0.48701,-0.0407 -0.10361,-0.58804 0.56853,-0.81168 0.5201,-1.2045 -0.27739,-2.25007 -1.14228,-1.4976 -2.11695,-1.54954 -3.90255,-0.20794 -0.69591,0.52287 -0.94056,1.19397 -0.43525,1.19397 0.14552,0 0.26458,0.24354 0.26458,0.54119 0,0.29766 0.29043,0.83163 0.6454,1.1866 0.5254,0.5254 0.86977,0.63227 1.85208,0.57478 1.175,-0.0688 1.60877,0.20557 0.80981,0.51217 -0.21828,0.0838 -0.39687,0.30822 -0.39687,0.49881 0,0.19059 -0.1358,0.39178 -0.30177,0.44711 -0.17953,0.0598 -0.0254,0.3988 0.38052,0.83678 0.38345,0.41376 0.6161,0.90865 0.53119,1.12994 -0.17068,0.44478 0.4069,1.68095 0.7854,1.68095 0.41422,0 2.95157,1.3438 3.16201,1.67462 0.14653,0.23034 0.19808,0.22497 0.20109,-0.021 0.002,-0.19019 0.34135,-0.33073 0.79781,-0.33073 0.70555,0 0.79375,0.0882 0.79375,0.79375 0,0.62465 0.11592,0.79375 0.54416,0.79375 0.50949,0 0.51792,-0.0375 0.1323,-0.58804 z m -0.77095,-5.36508 c -0.21829,-0.21829 -0.50298,-0.39688 -0.63265,-0.39688 -0.12967,0 -0.48211,-0.28332 -0.78319,-0.62959 -0.30108,-0.34627 -0.7095,-0.68716 -0.90761,-0.75753 -0.76541,-0.27187 0.0317,-0.40569 3.4729,-0.58301 1.96268,-0.10114 3.50729,-0.12268 3.43247,-0.0479 -0.51935,0.51935 -1.71543,0.90958 -2.01806,0.65841 -0.23901,-0.19835 -0.57461,-0.176 -1.15713,0.0771 -0.71498,0.31062 -0.8079,0.46703 -0.72261,1.21635 0.10737,0.94346 -0.0781,1.06901 -0.68412,0.46303 z m 12.787,5.31137 c 0.56408,-1.48364 0.41797,-2.40979 -0.53212,-3.37311 -0.80233,-0.8135 -3.51115,-2.33514 -4.157,-2.33514 -0.12731,0 -0.56709,0.35031 -0.97729,0.77847 -0.52338,0.54629 -0.70114,0.94931 -0.59601,1.35131 0.0824,0.31506 0.027,0.88749 -0.12319,1.27205 -0.15014,0.38457 -0.42985,1.21025 -0.62158,1.83486 l -0.34859,1.13565 3.56614,-0.0381 c 3.42446,-0.0366 3.57503,-0.0615 3.78964,-0.62596 z m 5.41778,0.39928 c 0.23668,-0.38296 -0.39304,-2.92797 -0.73586,-2.97394 -1.2341,-0.16551 -1.9768,-0.0945 -2.48442,0.23742 -0.55284,0.36152 -0.5657,0.43824 -0.21443,1.27897 0.20554,0.49191 0.52972,1.07112 0.72041,1.28714 0.38189,0.43259 2.47119,0.56376 2.7143,0.17041 z m 6.23138,-0.1544 c -0.18116,-0.21829 -0.48489,-0.39688 -0.67496,-0.39688 -0.19007,0 -0.54518,-0.1996 -0.78914,-0.44356 -0.48146,-0.48146 -2.95382,-0.78404 -3.47587,-0.4254 -0.17036,0.11704 -0.39162,0.53903 -0.4917,0.93776 l -0.18195,0.72495 h 2.9715 c 2.61133,0 2.93157,-0.0481 2.64212,-0.39687 z m 4.42125,-0.1323 c 0.0761,-0.29104 0.24356,-0.52916 0.3721,-0.52916 0.12855,0 0.23373,0.23812 0.23373,0.52916 0,0.50715 0.17639,0.52917 4.23851,0.52917 h 4.2385 l -0.13111,-0.7276 c -0.12998,-0.72133 -1.43594,-2.02766 -2.32663,-2.32729 -0.25466,-0.0857 -0.46302,-0.33156 -0.46302,-0.54641 0,-0.21486 -0.14883,-0.37132 -0.33073,-0.3477 -0.69627,0.0904 -0.99219,-0.0338 -0.99219,-0.41662 0,-0.21829 0.0999,-0.39688 0.22212,-0.39688 0.42445,0 0.81971,-1.23359 0.49826,-1.55504 -0.85222,-0.85222 -2.30486,0.55874 -2.30689,2.24068 -0.001,0.79411 -0.0379,0.81924 -1.27009,0.86285 -1.22567,0.0434 -1.26825,0.0199 -1.24405,-0.68564 0.0138,-0.40181 -0.12949,-0.96541 -0.31839,-1.25245 -0.1889,-0.28704 -0.34346,-0.72162 -0.34346,-0.96573 0,-0.58269 -1.63307,-2.20272 -2.57005,-2.54954 -0.40548,-0.15009 -1.42185,-0.41299 -2.25859,-0.58423 -1.2213,-0.24994 -1.52136,-0.41243 -1.52136,-0.82383 0,-0.28187 -0.30556,-0.85543 -0.67903,-1.27458 -0.6731,-0.75544 -1.37442,-0.83732 -2.1317,-0.24888 -0.16346,0.12702 -0.49088,0.15661 -0.72761,0.0658 -0.23672,-0.0908 -0.43041,-0.0414 -0.43041,0.1099 0,0.15128 -0.20836,0.3419 -0.46302,0.42359 -1.41216,0.45299 -2.2605,1.81087 -2.69659,4.31622 -0.17532,1.00723 -0.1291,1.16516 0.45262,1.54631 0.59593,0.39047 0.74051,0.38914 1.80294,-0.0166 1.5838,-0.60485 2.29161,-0.46377 2.41669,0.48171 0.18308,1.38385 1.30846,2.39193 3.12375,2.79818 0.79697,0.17835 1.44903,0.4348 1.44903,0.56988 0,0.13509 0.20836,0.2464 0.46302,0.24736 0.25466,0.001 0.82021,0.2383 1.25677,0.52742 1.05752,0.70036 2.25373,0.70036 2.43688,0 z m 17.40687,0 c -0.51142,-0.56511 -1.31861,-0.69964 -1.5875,-0.26458 -0.0899,0.14552 -0.31096,0.26458 -0.49116,0.26458 -0.23377,0 -0.30836,-0.49274 -0.26033,-1.71979 0.0758,-1.93585 0.0978,-1.9203 -1.91247,-1.34894 -0.71763,0.20396 -1.75127,0.44748 -2.29698,0.54115 -1.55263,0.26651 -1.32035,1.32415 0.56927,2.59199 0.54861,0.36808 1.2704,0.46163 3.57278,0.46302 2.86857,0.002 2.88251,-10e-4 2.40639,-0.52743 z m 9.46838,0.19844 c 0.0958,-0.26458 0.23181,-0.26458 0.67992,0 0.30808,0.1819 0.91895,0.33073 1.35749,0.33073 0.85587,0 0.85053,0.0139 0.86696,-2.24896 0.007,-1.0209 -0.0253,-1.06116 -0.92411,-1.13849 -0.5809,-0.05 -1.0865,0.0746 -1.34266,0.33073 -0.24825,0.24825 -0.87655,0.41089 -1.58734,0.41089 -0.64705,0 -1.53554,0.0718 -1.97443,0.15959 -0.75213,0.15043 -0.79021,0.21756 -0.66272,1.16806 0.12078,0.90048 0.0681,1.02118 -0.49186,1.12729 -0.34492,0.0653 0.40475,0.13504 1.66593,0.15486 1.62156,0.0255 2.32813,-0.0608 2.41282,-0.2947 z m -73.36526,-0.49388 c 0,-0.12855 -0.16867,-0.23372 -0.37482,-0.23372 -0.20616,0 -0.43522,-0.14883 -0.50903,-0.33073 -0.10165,-0.25053 -0.19957,-0.23664 -0.40378,0.0573 -0.36458,0.52471 0.0975,1.05212 0.7682,0.87674 0.28569,-0.0747 0.51943,-0.24101 0.51943,-0.36956 z m 10.91315,-0.0722 c 0.56985,-0.43261 0.84564,-1.70324 0.62498,-2.87945 -0.13784,-0.73472 -0.38892,-0.99401 -1.4823,-1.53071 -1.04895,-0.5149 -1.31801,-0.78052 -1.32451,-1.30761 -0.0118,-0.96031 -0.25669,-1.22426 -1.72517,-1.85991 -1.109,-0.48005 -1.68947,-0.55331 -3.66643,-0.46275 -1.87393,0.0859 -2.4192,0.20383 -2.69686,0.58356 -0.38547,0.52717 -0.45388,3.97278 -0.0928,4.67317 0.11925,0.23129 1.0563,0.82145 2.08233,1.31146 1.02603,0.49002 1.86551,0.98539 1.86551,1.10083 0,0.11544 0.18793,0.20989 0.41762,0.20989 0.51123,0 2.4928,-2.01522 2.4928,-2.53513 0,-0.44437 0.24931,-0.47154 0.79375,-0.0865 0.29866,0.21122 0.31503,0.31388 0.0661,0.41487 -0.40046,0.16249 -0.44342,0.88385 -0.0526,0.88385 0.15295,0 0.4522,0.41672 0.66501,0.92604 0.41985,1.00483 1.17222,1.21153 2.03255,0.5584 z m -3.32123,-4.03489 c -0.0931,-0.0931 -0.10909,-0.26645 -0.0356,-0.38532 0.16497,-0.26692 0.91037,-0.006 0.91037,0.31824 0,0.27149 -0.6226,0.31924 -0.87475,0.0671 z m 60.74055,4.24437 c 0.21196,-0.21196 -0.0654,-0.90017 -0.36285,-0.90017 -0.12995,0 -0.23628,0.23813 -0.23628,0.52917 0,0.51572 0.28064,0.6895 0.59913,0.371 z m 13.6722,-8.77152 -0.002,-8.66511 -0.93925,1.04639 c -0.78098,0.87007 -0.91219,1.18214 -0.77872,1.85208 0.0883,0.44313 0.27688,0.84539 0.41911,0.89389 0.38393,0.13094 0.31315,0.82109 -0.12962,1.26386 -0.38906,0.38906 -0.29216,1.93036 0.13956,2.21982 0.10852,0.0728 0.23863,0.54178 0.28912,1.04225 0.0738,0.73145 -0.013,0.93906 -0.44273,1.05833 -1.7212,0.47777 -2.59631,2.27008 -2.33395,4.78017 0.22295,2.1331 1.09112,3.1668 2.66292,3.17067 l 1.11734,0.003 -0.002,-8.6651 z m -23.67649,5.71221 c 0.37065,-0.16888 0.67391,-0.39407 0.67391,-0.50044 0,-0.10636 0.44648,-0.3817 0.99219,-0.61187 1.56496,-0.66009 1.87122,-1.01292 1.87896,-2.16475 0.009,-1.34959 0.15476,-2.3106 0.41382,-2.72977 0.21055,-0.34066 -0.11937,-0.81374 -1.52281,-2.18357 -0.79208,-0.77313 -1.68231,-0.85674 -3.09996,-0.29113 -0.64764,0.25839 -2.10178,1.89388 -2.10178,2.36389 0,0.12385 -0.38696,0.45075 -0.8599,0.72645 -2.0059,1.1693 -2.3293,2.3093 -0.79375,2.79795 0.5457,0.17365 1.17078,0.52912 1.38906,0.78993 0.21828,0.26081 0.69453,0.84125 1.05834,1.28988 0.73001,0.90023 0.98009,0.96534 1.97192,0.51343 z m 6.75933,-0.2395 c 0,-0.30061 0.12179,-0.77413 0.27064,-1.05227 0.20824,-0.38909 0.16248,-0.59863 -0.19843,-0.90865 -0.258,-0.22162 -0.73698,-0.64106 -1.0644,-0.93211 -0.32742,-0.29104 -0.71438,-0.52916 -0.8599,-0.52916 -0.45411,0 -0.28896,0.75035 0.19926,0.90531 0.43488,0.13802 1.12366,1.77002 1.12366,2.6624 0,0.22057 0.11906,0.40104 0.26458,0.40104 0.14552,0 0.26459,-0.24595 0.26459,-0.54656 z m 10.18646,0.0795 c 0.68062,-0.50005 1.25944,-2.18517 1.11653,-3.25059 -0.16994,-1.26705 0.22498,-2.63234 0.76143,-2.63234 0.20405,0 0.37099,-0.23813 0.37099,-0.52917 0,-0.5575 -0.0138,-0.56646 -1.05833,-0.6906 -1.78054,-0.21158 -3.08488,-0.46122 -3.48656,-0.66729 -0.54342,-0.27879 -1.27594,-0.0309 -1.27594,0.43185 0,0.18714 -0.17646,0.40797 -0.39213,0.49073 -0.21567,0.0828 -0.46901,0.63128 -0.56298,1.21893 -0.12903,0.80692 -0.29211,1.06846 -0.66621,1.06846 -0.27244,0 -0.49535,0.15214 -0.49535,0.33808 0,0.18594 -0.23812,0.54196 -0.52916,0.79116 -0.77034,0.65958 -0.65498,0.94193 0.46302,1.13322 1.1505,0.19685 4.33252,1.68345 4.64335,2.16931 0.23582,0.36861 0.70974,0.4233 1.11134,0.12825 z m -79.5073,-1.96239 c 0.85917,-0.0607 1.17153,0.01 1.12203,0.254 -0.0377,0.18595 0.14086,0.41539 0.39687,0.50986 0.25601,0.0945 0.56409,0.29953 0.68463,0.45566 0.12452,0.1613 0.16725,-0.0391 0.099,-0.46399 -0.12509,-0.77835 0.61262,-1.76567 1.31928,-1.76567 0.19084,0 0.34698,-0.10932 0.34698,-0.24294 0,-0.13362 0.0664,-0.41592 0.14751,-0.62734 0.0811,-0.21142 -0.0191,-0.55104 -0.2228,-0.75471 -0.63952,-0.63952 -0.96133,-1.44358 -0.80976,-2.02321 0.0887,-0.33917 -0.0726,-0.86592 -0.41046,-1.34039 -0.30611,-0.4299 -0.55657,-0.95974 -0.55657,-1.17742 0,-0.25796 -0.47621,-0.51003 -1.36751,-0.72385 -0.86322,-0.20708 -1.58615,-0.58225 -1.96042,-1.01735 l -0.5929,-0.6893 -1.39025,0.75085 c -0.76463,0.41297 -1.54932,0.90993 -1.74375,1.10436 -0.41637,0.41637 -0.46507,0.92047 -0.0889,0.92047 0.14552,0 0.26458,0.17859 0.26458,0.39688 0,0.21828 -0.15467,0.39687 -0.34372,0.39687 -0.38788,0 -0.9792,1.43675 -0.9792,2.3792 0,0.34201 -0.18797,0.82956 -0.41772,1.08343 -0.86216,0.95267 -0.49988,2.62279 0.56891,2.62279 0.20789,0 0.37798,0.11906 0.37798,0.26458 0,0.14552 0.22848,0.26458 0.50773,0.26458 0.5878,0 2.13396,0.82446 2.13643,1.13921 9.3e-4,0.11724 0.38863,-0.20211 0.86157,-0.70966 0.69472,-0.74555 1.0886,-0.93896 2.05052,-1.00691 z m 52.49393,-2.26309 c 0.10704,-0.10704 0.54889,-0.21244 0.98189,-0.23421 0.92238,-0.0464 1.8221,-0.76941 1.8221,-1.46426 0,-0.26849 -0.0951,-0.48816 -0.21143,-0.48816 -0.11629,0 -0.36199,-0.41635 -0.546,-0.92522 -0.32994,-0.91245 -1.25854,-1.44843 -1.8626,-1.0751 -0.27985,0.17295 -1.3377,-0.31815 -1.6754,-0.7778 -0.11441,-0.15574 -0.19772,-0.10131 -0.20249,0.13229 -0.007,0.35277 -0.0366,0.35277 -0.26458,0 -0.40367,-0.62463 -0.32852,-0.7159 0.72872,-0.88496 1.0767,-0.17217 1.80858,-0.83944 2.07203,-1.88912 0.0919,-0.36603 0.27319,-0.66551 0.40293,-0.66551 0.12975,0 0.23374,-0.20836 0.2311,-0.46302 -0.007,-0.64231 1.40065,-3.4912 1.72459,-3.49118 0.22369,2e-5 1.00615,0.92605 1.67589,1.98341 0.1746,0.27565 2.57768,1.2996 3.08661,1.31521 0.14553,0.004 0.39277,0.0885 0.54943,0.18681 0.30277,0.18995 4.80963,0.0365 5.94773,-0.20247 0.37198,-0.0781 0.871,-0.47158 1.10893,-0.87437 0.50056,-0.84738 0.85749,-4.69331 0.45846,-4.93992 -0.14263,-0.0881 -0.25934,-0.4051 -0.25934,-0.70432 0,-0.50935 -0.097,-0.53115 -1.52135,-0.34189 -0.83675,0.11119 -1.75948,0.19055 -2.05052,0.17637 -0.90255,-0.044 -2.77813,-0.63883 -2.77813,-0.8811 0,-0.1266 -0.29765,-0.23019 -0.66146,-0.23019 -0.3638,0 -0.66145,0.11906 -0.66145,0.26458 0,0.14552 -0.29766,0.26458 -0.66146,0.26458 -0.75185,0 -0.81895,-0.17526 -0.29588,-0.77291 0.20107,-0.22974 0.4409,-0.66571 0.53297,-0.96882 0.20842,-0.68621 -0.59864,-1.07556 -1.98521,-0.95776 -0.84446,0.0718 -0.99262,0.19703 -1.28662,1.08784 -0.18274,0.55371 -0.24706,1.27517 -0.14293,1.60325 0.16707,0.52639 0.31054,0.57713 1.22048,0.43162 1.10736,-0.17707 1.33391,0.0542 0.53926,0.55043 -0.27054,0.16895 -0.56578,0.67665 -0.65609,1.12822 -0.0905,0.45271 -0.37434,0.88625 -0.6326,0.9664 -0.25761,0.0799 -0.68834,0.26398 -0.95717,0.40896 -0.59628,0.32158 -0.70172,0.22976 -0.84613,-0.73682 -0.29086,-1.94672 -0.75361,-2.9235 -1.89504,-4 -0.81775,-0.77124 -1.08088,-0.8782 -1.77545,-0.72168 -0.44849,0.10106 -1.17261,0.20808 -1.60918,0.23782 -1.1871,0.0809 -2.42864,0.84001 -2.61987,1.60192 -0.0926,0.36889 -0.34466,0.6707 -0.56017,0.6707 -0.2155,0 -0.39183,0.0999 -0.39183,0.22211 0,0.17918 -1.12085,0.83622 -1.4265,0.83622 -0.0433,0 -0.42463,-0.29751 -0.84745,-0.66113 -0.42282,-0.36363 -0.96224,-0.66128 -1.19871,-0.66146 -0.23647,-1.8e-4 -0.78376,-0.0711 -1.2162,-0.15758 -1.64663,-0.32932 -3.15227,2.28168 -1.84629,3.20173 0.45809,0.32272 0.50578,0.45762 0.22398,0.6335 -0.28171,0.17583 -0.29268,0.34562 -0.0515,0.79629 0.16861,0.31504 0.2324,0.80644 0.14178,1.09198 -0.0935,0.29449 -0.0426,0.51917 0.11763,0.51917 0.15533,0 0.28241,-0.11906 0.28241,-0.26458 0,-0.14552 0.1786,-0.26458 0.39688,-0.26458 0.23398,0 0.39854,0.24433 0.40092,0.59531 0.005,0.73288 0.42576,1.44433 0.69499,1.1751 0.10925,-0.10925 0.22302,-0.70112 0.25282,-1.31526 0.0298,-0.61413 0.066,-1.21524 0.0803,-1.33579 0.0144,-0.12055 0.50239,-0.67676 1.08448,-1.23603 0.58208,-0.55927 1.05833,-1.15227 1.05833,-1.31779 0,-0.16552 0.1195,-0.22709 0.26556,-0.13682 0.14605,0.0903 0.20171,0.42472 0.12369,0.74322 -0.15503,0.63286 0.80907,1.87513 1.66645,2.14725 0.48181,0.15292 1.1193,2.35948 1.1193,3.87424 0,0.37896 0.23905,0.79732 0.57574,1.00758 0.56489,0.35278 0.55808,0.36563 -0.36137,0.68172 -1.10023,0.37824 -1.83438,1.04729 -2.27694,2.07503 -0.56863,1.32049 -0.42314,1.70933 0.71124,1.90098 0.56646,0.0957 1.84638,0.51449 2.84427,0.93065 1.84906,0.77113 2.76347,0.94726 3.1114,0.59932 z m 20.00191,-0.07 c 0,-0.14552 -0.11907,-0.26459 -0.26459,-0.26459 -0.14552,0 -0.26458,0.11907 -0.26458,0.26459 0,0.14552 0.11906,0.26458 0.26458,0.26458 0.14552,0 0.26459,-0.11906 0.26459,-0.26458 z m -15.17135,-1.91819 c 0.20801,0.51266 0.58659,0.39612 1.28925,-0.39688 1.00911,-1.13885 1.04475,-1.19782 1.36551,-2.25995 0.24235,-0.80246 0.22817,-1.14655 -0.0709,-1.71979 -0.20562,-0.39413 -0.37458,-0.96992 -0.37548,-1.27953 -0.002,-0.69407 -0.40494,-1.04259 -1.75679,-1.51955 -1.42631,-0.50323 -2.32973,-0.0275 -3.02414,1.59249 -0.60528,1.41207 -0.62729,1.90342 -0.11555,2.57948 0.20899,0.2761 0.3194,0.60002 0.24535,0.71983 -0.21941,0.35502 0.66027,1.82088 1.09272,1.82088 0.21911,0 0.47075,0.18857 0.5592,0.41906 0.13056,0.34024 0.20743,0.35268 0.40871,0.0661 0.19387,-0.27598 0.27716,-0.28082 0.3821,-0.0222 z M 121.0178,124.0442 c 0.3638,-0.003 1.26934,0.08 2.0123,0.18374 1.54495,0.21579 2.04701,-0.25336 1.14486,-1.0698 -0.55476,-0.50205 -0.67408,-1.43505 -0.23915,-1.86998 0.1865,-0.18651 0.10323,-0.48695 -0.26459,-0.95454 -0.29521,-0.37531 -0.53675,-0.87196 -0.53675,-1.10367 0,-0.2317 -0.11766,-0.42128 -0.26146,-0.42128 -0.1438,0 -0.33707,-0.47289 -0.42949,-1.05086 -0.12081,-0.75548 -0.3262,-1.10017 -0.73074,-1.22629 -0.30948,-0.0965 -0.63897,-0.29417 -0.7322,-0.43931 -0.0932,-0.14513 -0.24602,-0.0228 -0.33953,0.27179 -0.0935,0.29462 -0.55301,0.68715 -1.02111,0.87229 -0.4681,0.18513 -1.07329,0.52536 -1.34487,0.75606 -0.45555,0.38697 -0.48627,0.3822 -0.39687,-0.0617 0.0738,-0.36625 1.12148,-1.19964 1.74778,-1.39026 0.0349,-0.0106 0.1376,-0.39035 0.22831,-0.84386 0.14998,-0.74992 0.083,-0.85879 -0.73965,-1.20252 -0.4975,-0.20787 -1.2427,-0.69134 -1.656,-1.07436 -0.41329,-0.38303 -0.88619,-0.69642 -1.05088,-0.69642 -0.46458,0 -1.28712,-1.09081 -1.36628,-1.81188 -0.0392,-0.35702 -0.30195,-0.87982 -0.58391,-1.16178 -0.50716,-0.50715 -0.52316,-0.50184 -1.49099,0.4947 -0.94187,0.96981 -0.97139,1.05695 -0.792,2.33847 0.10249,0.73211 0.17261,1.73455 0.15583,2.22764 -0.0318,0.93339 0.66286,2.40779 1.13767,2.41482 0.15052,0.002 0.0951,0.12129 -0.1232,0.26458 -0.29385,0.1929 -0.31532,0.31344 -0.0827,0.46436 0.17279,0.1121 0.43457,0.52048 0.58172,0.90752 0.24316,0.63955 0.38015,0.69734 1.50274,0.63397 0.82379,-0.0465 1.31738,-0.21658 1.48195,-0.51065 0.3451,-0.61667 1.0142,-0.55089 1.0142,0.0997 0,0.98708 0.92067,3.69197 1.25677,3.69234 0.1819,2e-4 0.33073,0.17896 0.33073,0.39724 0,0.21828 -0.11906,0.39688 -0.26458,0.39688 -0.14552,0 -0.26458,0.19247 -0.26458,0.42772 0,0.33597 0.15608,0.38723 0.7276,0.23898 0.40018,-0.1038 1.02526,-0.19096 1.38906,-0.19367 z m 77.80461,-0.49165 c 0.40146,-0.63439 0.27886,-0.97448 -0.41398,-1.14836 -0.3638,-0.0913 -0.66146,-0.32961 -0.66146,-0.52955 0,-0.32607 -0.5347,-0.68472 -1.02082,-0.68472 -0.10108,0 -0.13817,0.4784 -0.0824,1.06311 0.14525,1.5231 1.51873,2.34234 2.17867,1.29952 z m -92.25822,-0.90742 c -0.0365,-1.14231 -0.21619,-2.1196 -0.38828,-2.11186 -0.0589,0.003 -0.36498,0.18546 -0.68021,0.40626 -0.46994,0.32915 -0.55775,0.61414 -0.48769,1.58268 0.047,0.64969 0.0966,1.21892 0.11012,1.26497 0.0136,0.046 0.35209,0.046 0.75228,0 0.66528,-0.0766 0.7247,-0.17436 0.69378,-1.14205 z m 79.70988,0.52707 c 0.16559,-0.05 0.34798,-0.58279 0.40532,-1.18408 0.104,-1.09057 0.10053,-1.09525 -1.40773,-1.89915 -0.8316,-0.44324 -1.57581,-0.97216 -1.65379,-1.17539 -0.18966,-0.49425 -1.45813,-0.47321 -1.65022,0.0274 -0.0838,0.21828 -0.29248,0.39687 -0.46382,0.39687 -0.17133,0 -0.52001,0.35296 -0.77484,0.78435 -0.44517,0.7536 -0.44351,0.80416 0.0422,1.28984 0.27802,0.27803 0.55993,0.66879 0.62645,0.86837 0.27516,0.82547 3.27671,1.37439 4.87646,0.89181 z m 4.06457,-0.02 c 0,-0.46723 -0.56959,-0.38586 -0.73312,0.10473 -0.0576,0.17281 0.0838,0.3142 0.31419,0.3142 0.23041,0 0.41893,-0.18852 0.41893,-0.41893 z m 2.16967,-2.66091 c 0.39296,-0.19786 0.95,-0.35975 1.23787,-0.35975 0.85963,0 1.42633,-0.76761 1.24309,-1.6838 -0.0884,-0.44189 -0.29726,-0.88784 -0.46419,-0.99101 -0.21539,-0.13312 -0.17583,-0.31527 0.13627,-0.62737 0.24188,-0.24188 0.43979,-0.51678 0.43979,-0.6109 0,-0.43176 -1.48201,-1.37858 -2.15782,-1.37858 -0.41393,0 -0.7526,-0.11907 -0.7526,-0.26459 0,-0.14552 0.17233,-0.26458 0.38295,-0.26458 0.44075,0 1.8147,-2.56534 1.57857,-2.9474 -0.0864,-0.13981 -0.24004,-0.81377 -0.3414,-1.49767 -0.15311,-1.03308 -0.27219,-1.23161 -0.70377,-1.17335 -0.28571,0.0386 -1.15459,0.14555 -1.93085,0.23775 -0.95819,0.11381 -1.5096,0.32493 -1.71729,0.65749 -0.16825,0.26941 -0.39951,0.48985 -0.51391,0.48985 -0.37243,0 -2.04597,1.66257 -2.04597,2.03256 0,0.19802 -0.29765,0.49565 -0.66145,0.66141 -0.36381,0.16576 -0.66146,0.45495 -0.66146,0.64264 0,0.18769 -0.20836,0.46262 -0.46302,0.61094 -0.30732,0.179 -0.34229,0.27239 -0.10399,0.27773 0.20566,0.005 0.29537,0.17398 0.20999,0.39645 -0.082,0.21362 -0.055,0.44651 0.0599,0.51752 0.11491,0.071 0.16583,0.46178 0.11316,0.86837 -0.11854,0.91509 0.0442,1.12935 1.37461,1.80944 0.58209,0.29756 1.21366,0.86311 1.4035,1.25677 0.18984,0.39366 0.49651,0.71575 0.68148,0.71575 0.18498,0 0.61372,0.29528 0.95276,0.65617 0.65846,0.70089 1.2627,0.69378 2.70381,-0.0318 z m -2.03738,-4.85766 c -0.0899,-0.14552 -0.0374,-0.26459 0.11667,-0.26459 0.15411,0 0.2802,0.11907 0.2802,0.26459 0,0.14552 -0.0525,0.26458 -0.11667,0.26458 -0.0642,0 -0.19026,-0.11906 -0.2802,-0.26458 z m -60.52344,4.07259 c 0.1819,-0.18185 0.33073,-0.51681 0.33073,-0.74436 0,-0.22755 0.35719,-0.73199 0.79375,-1.12097 0.90076,-0.80258 0.9563,-1.02418 0.39687,-1.5836 -0.55774,-0.55775 -0.49333,-0.86393 0.14655,-0.6966 0.35403,0.0926 0.73482,-0.0633 1.09259,-0.44735 0.30204,-0.3242 0.88408,-0.70621 1.29343,-0.84891 0.57378,-0.20002 0.76291,-0.45171 0.82564,-1.09877 l 0.0814,-0.83933 1.75637,0.0887 c 1.07171,0.0541 1.82556,-0.0232 1.93385,-0.19843 0.0976,-0.15794 0.40006,-0.28716 0.67212,-0.28716 0.27206,0 0.65411,-0.15946 0.84901,-0.35435 0.19489,-0.1949 0.70941,-0.47211 1.14338,-0.61604 0.53605,-0.17778 0.81878,-0.46712 0.88184,-0.90242 0.0511,-0.3524 0.22965,-0.72821 0.39688,-0.83512 0.20646,-0.13199 0.17667,-0.19698 -0.0928,-0.20249 -0.32246,-0.007 -0.32985,-0.0506 -0.0394,-0.23464 0.2527,-0.16014 -0.0131,-0.35284 -0.90703,-0.65741 -0.69549,-0.23697 -1.48641,-0.43086 -1.75762,-0.43086 -0.2712,0 -0.71649,-0.20836 -0.98953,-0.46302 -0.47778,-0.44563 -0.44629,-0.46457 0.83835,-0.50421 0.81903,-0.0253 1.60297,-0.2312 2.02885,-0.53297 0.38174,-0.27048 1.02149,-0.65902 1.42167,-0.86342 0.40019,-0.2044 0.72761,-0.53011 0.72761,-0.7238 0,-0.19369 0.0893,-0.35385 0.19844,-0.3559 0.55944,-0.0105 2.45367,-2.1236 2.79702,-3.12017 0.53267,-1.546097 0.22132,-2.67273 -1.11031,-4.017737 -0.60027,-0.6063 -1.0914,-1.287438 -1.0914,-1.513644 0,-0.226203 -0.30228,-0.67102 -0.67174,-0.988483 -0.83383,-0.716495 -2.50059,-0.659038 -3.49143,0.120359 -0.36888,0.290163 -0.80347,0.53014 -0.96574,0.533286 -0.16228,0.0031 -0.6511,0.419865 -1.08628,0.926042 -0.43517,0.506177 -0.97095,0.916538 -1.19062,0.91191 -0.34582,-0.0073 -0.34317,-0.05166 0.0198,-0.330729 0.23055,-0.177274 0.49858,-0.64125 0.59561,-1.031055 0.16715,-0.67146 0.1012,-0.730613 -1.25366,-1.124479 -0.78655,-0.228658 -1.58441,-0.41574 -1.77302,-0.41574 -0.24001,0 -0.25935,-0.08357 -0.0644,-0.278471 0.25358,-0.25358 1.13638,-0.449808 2.23613,-0.497049 0.23341,-0.01003 0.74556,-0.315886 1.13811,-0.679688 0.39255,-0.363803 0.91595,-0.665245 1.16311,-0.669873 1.23557,-0.02312 1.71742,-1.189011 2.04031,-4.936675 0.0651,-0.755266 0.13772,-1.469641 0.16144,-1.5875 0.0881,-0.437708 -0.61176,-1.89666 -0.9771,-2.036852 -0.61174,-0.234749 -0.43515,-0.667282 0.34922,-0.855359 1.30399,-0.312668 2.18281,-0.888365 2.18281,-1.429911 1e-5,-0.287306 -0.15974,-0.522373 -0.35498,-0.522373 -0.33874,0 -0.96793,-1.594029 -0.96793,-2.452208 0,-0.394899 -1.40912,-1.077558 -1.67514,-0.811538 -0.073,0.07295 -1.09411,-0.06348 -2.26925,-0.303162 -1.17515,-0.239684 -2.25668,-0.361593 -2.40341,-0.270907 -0.14673,0.09068 -0.26678,0.530992 -0.26678,0.978463 0,0.447472 -0.13956,1.279396 -0.31013,1.848721 -0.29805,0.994786 -0.27763,1.064823 0.52372,1.796746 0.54569,0.498414 1.35523,0.869844 2.34256,1.074814 1.23667,0.25673 1.42251,0.361447 1.03066,0.580739 -0.26293,0.147146 -1.02476,0.301945 -1.69295,0.344004 -0.84669,0.0533 -1.34975,0.243006 -1.65983,0.625943 -0.36422,0.449792 -0.4723,0.478171 -0.59576,0.156429 -0.21947,-0.571912 -0.51709,-0.48959 -1.4487,0.400707 -0.59865,0.572098 -1.08881,0.79375 -1.75528,0.79375 -0.77644,0 -1.03063,0.16007 -1.58539,0.998368 -0.75659,1.143294 -1.27719,3.474601 -1.04833,4.694547 0.19788,1.054791 1.26926,2.069177 2.62756,2.487782 0.58208,0.17939 1.22643,0.380309 1.43189,0.44649 0.2613,0.08417 0.0741,0.394634 -0.62307,1.033198 l -0.99663,0.912876 0.6932,0.864931 c 0.38127,0.475712 0.81048,1.008737 0.9538,1.184494 0.14333,0.17576 0.2606,0.493723 0.2606,0.706583 0,0.214892 0.35302,0.464556 0.79375,0.561356 0.88354,0.194059 0.98726,0.436068 0.39687,0.926045 -0.21828,0.18115 -0.39687,0.67198 -0.39687,1.09073 0,0.41875 -0.11907,0.76136 -0.26459,0.76136 -0.60538,0 -0.19545,0.97065 0.65432,1.54932 0.5034,0.34281 0.98702,0.8493 1.07469,1.12555 0.0877,0.27625 0.47866,0.68426 0.86885,0.9067 l 0.70944,0.40444 -0.85396,-0.16064 c -1.06037,-0.19947 -1.92417,0.0548 -1.92417,0.56638 0,0.21305 -0.16785,0.45176 -0.373,0.53049 -0.20515,0.0787 -0.44153,0.41621 -0.5253,0.74998 -0.11384,0.45356 -0.47073,0.69429 -1.41294,0.95306 -1.45301,0.39905 -2.50838,1.00574 -2.30945,1.32761 0.0755,0.12215 0.0102,1.01728 -0.14504,1.98918 -0.24666,1.54402 -0.22569,1.82962 0.16606,2.2625 0.26444,0.29221 0.323,0.49543 0.14276,0.49543 -0.16808,0 -0.30559,-0.11907 -0.30559,-0.26459 0,-0.14552 -0.16388,-0.26458 -0.36417,-0.26458 -0.50864,0 -2.57527,-1.99539 -2.65925,-2.56758 -0.0876,-0.59668 -2.41722,-1.06402 -3.12455,-0.62682 -0.56899,0.3517 -2.05411,0.37472 -2.05411,0.0319 0,-0.46827 0.61221,-1.59995 0.86553,-1.59995 0.13828,0 -0.0268,-0.22534 -0.36697,-0.50075 -0.55887,-0.45254 -0.58436,-0.56434 -0.26483,-1.1614 0.19446,-0.36336 0.63242,-0.7877 0.97323,-0.94299 0.69857,-0.31828 1.43549,-1.57063 1.4589,-2.47927 0.009,-0.33227 -0.11768,-1.15338 -0.28052,-1.82468 -0.35585,-1.46694 -1.0858,-1.93029 -2.43251,-1.54405 -0.48146,0.13808 -1.19367,0.25106 -1.58268,0.25106 -0.38902,0 -0.76046,0.14882 -0.82542,0.33073 -0.065,0.1819 -0.21092,0.2443 -0.32434,0.13868 -0.26369,-0.24556 0.35138,-0.99859 0.81564,-0.99859 0.19387,0 0.43067,-0.41672 0.52622,-0.926038 0.20167,-1.075034 0.5449,-1.16236 1.29989,-0.330729 0.64513,0.710617 1.56583,1.256767 2.11864,1.256767 0.22026,0 0.40047,0.11906 0.40047,0.26459 0,0.14552 0.17859,0.26459 0.39687,0.26459 0.21828,0 0.3987,0.14882 0.40093,0.33073 0.002,0.20482 0.078,0.23 0.19844,0.0661 0.10691,-0.14552 0.55157,-0.39877 0.98813,-0.56276 0.43656,-0.16401 0.98258,-0.37762 1.21336,-0.47469 0.36218,-0.15233 0.40374,0.0333 0.30367,1.35653 -0.0698,0.9226 -0.27274,1.65696 -0.50975,1.8443 -0.55392,0.43786 -0.2137,1.29083 0.65517,1.6426 0.55801,0.22592 0.95554,0.20057 1.77714,-0.11333 0.58208,-0.22239 1.2553,-0.47051 1.49604,-0.55138 0.47484,-0.15951 0.87305,-1.48278 1.15703,-3.84486 0.15836,-1.317191 0.1182,-1.530424 -0.33386,-1.772354 -0.28263,-0.15126 -0.75781,-0.211227 -1.05595,-0.13326 -0.64984,0.169937 -1.02716,-0.317862 -0.62278,-0.805117 0.34032,-0.410056 0.24461,-1.640967 -0.19009,-2.444771 -0.36202,-0.669404 -3.43363,-1.935099 -4.43056,-1.825662 -0.37174,0.04081 -1.45809,-0.12931 -2.4141,-0.378037 -1.31877,-0.343106 -1.83964,-0.619392 -2.15854,-1.144965 -0.55479,-0.91435 -0.20457,-1.219769 0.56725,-0.494681 0.33623,0.31587 0.75248,0.574307 0.925,0.574307 0.17253,0 0.31368,0.100004 0.31368,0.222234 0,0.12223 0.49734,0.386371 1.10521,0.586986 0.85502,0.282184 1.12953,0.291769 1.21267,0.04235 0.0591,-0.177321 0.27614,-0.322402 0.48229,-0.322402 0.20616,0 0.37483,-0.180862 0.37483,-0.401916 0,-0.281964 0.17767,-0.360063 0.59531,-0.261681 0.49048,0.115541 0.67685,-0.03861 1.05834,-0.875389 0.46652,-1.023306 0.64713,-3.752681 0.24832,-3.752681 -0.11808,0 -0.4632,-0.231519 -0.76692,-0.514485 -0.40382,-0.376214 -0.96832,-0.524169 -2.10042,-0.550516 -2.94465,-0.06853 -3.85451,-0.517904 -2.20963,-1.091311 0.43656,-0.152189 0.79375,-0.359143 0.79375,-0.459902 0,-0.281122 2.23104,-0.128624 2.83324,0.19366 0.29326,0.15695 0.93662,0.335449 1.42967,0.39666 0.49306,0.06121 1.08946,0.191739 1.32534,0.290052 0.26912,0.112165 0.48779,0.02524 0.58701,-0.233328 0.087,-0.226644 0.34273,-0.41208 0.56835,-0.41208 0.31215,0 0.36794,-0.16845 0.23339,-0.70457 -0.21526,-0.857634 -0.57542,-1.32203 -2.59411,-3.34487 -1.8127,-1.816423 -2.68513,-2.257984 -4.25408,-2.153098 -1.21102,0.08096 -3.30381,1.008523 -3.30381,1.464313 0,0.43466 -0.60023,0.928121 -1.36127,1.119132 -0.482,0.120973 -0.73946,0.397806 -0.84124,0.90452 -0.0807,0.401609 -0.22038,1.027854 -0.31047,1.391656 -0.13951,0.563351 -0.006,0.758134 0.90035,1.313267 1.114,0.682334 0.99532,1.222563 -0.17115,0.779071 -0.80963,-0.307767 -1.27218,-0.771219 -1.50645,-1.509317 -0.10176,-0.320635 -0.3556,-0.582972 -0.56407,-0.582972 -0.20847,0 -0.37905,-0.110559 -0.37905,-0.245684 0,-0.135128 -0.18427,-0.429959 -0.40949,-0.655183 -0.36961,-0.369607 -0.36961,-0.526989 0,-1.615646 0.51408,-1.514187 0.54634,-1.380136 -0.38122,-1.583862 -0.43489,-0.09552 -0.85864,-0.283573 -0.94166,-0.417899 -0.083,-0.134324 -0.43454,-0.244226 -0.78117,-0.244226 -0.34662,0 -0.70381,-0.119063 -0.79375,-0.264584 -0.0899,-0.14552 -0.45415,-0.264583 -0.80936,-0.264583 -0.35522,0 -0.64585,-0.105182 -0.64585,-0.233738 0,-0.128559 -0.31027,-0.293053 -0.6895,-0.365548 -0.54808,-0.104773 -0.93768,0.105981 -1.89942,1.02749 -0.66545,0.637612 -1.2441,1.159296 -1.28589,1.159296 -0.0418,0 -0.50045,-0.202414 -1.01925,-0.44981 -0.5945,-0.283498 -1.00533,-0.699262 -1.11113,-1.124479 -0.17713,-0.711878 -0.78308,-1.31362 -1.33699,-1.327714 -0.25185,-0.0064 -0.33073,1.056455 -0.33073,4.45643 v 4.464844 l 0.75526,0.151053 c 0.4154,0.08308 1.30837,-0.0154 1.98438,-0.218855 0.69564,-0.209357 1.22911,-0.260564 1.22911,-0.11798 0,0.138559 -0.10616,0.251928 -0.2359,0.251928 -0.12975,0 -0.30317,0.267891 -0.38539,0.595313 -0.0822,0.327421 -0.32249,0.831858 -0.53395,1.120965 -0.35511,0.485521 -0.42164,0.493287 -0.87139,0.101682 -0.2678,-0.233185 -0.81434,-0.501761 -1.21452,-0.596839 -0.72558,-0.172389 -0.7276,-0.168886 -0.7276,1.26261 0,1.305216 0.048,1.422921 0.52916,1.297099 0.29105,-0.07611 0.52917,-0.243557 0.52917,-0.372105 0,-0.128548 0.17859,-0.233725 0.39688,-0.233725 0.21828,0 0.39687,0.231098 0.39687,0.513551 0,0.627388 0.47774,0.966632 0.8446,0.599763 0.18272,-0.182719 0.55546,-0.149778 1.15908,0.102428 1.21536,0.50781 1.4359,0.470919 1.4359,-0.240183 0,-0.336566 0.29862,-1.23094 0.66359,-1.987492 0.99272,-2.057797 0.61051,-3.967674 -0.72973,-3.646485 -0.5714,0.136935 -0.58439,-0.07764 -0.0508,-0.839425 0.22671,-0.323676 0.32346,-0.732084 0.21501,-0.907574 -0.10846,-0.17549 -0.22814,-0.609269 -0.26596,-0.963951 -0.0685,-0.642393 -0.0655,-0.641776 0.77718,0.159885 1.0444,0.993561 2.46362,1.361318 2.91508,0.755369 0.23178,-0.311094 0.56614,-0.376965 1.29905,-0.255928 1.05892,0.174881 1.11193,0.624625 0.0736,0.624625 -0.36512,0 -0.69021,0.193829 -0.7766,0.463021 -0.0817,0.254662 -0.50625,0.701146 -0.9434,0.992188 -0.53404,0.355539 -0.85091,0.833014 -0.96575,1.455208 -0.094,0.509323 -0.30257,1.024403 -0.46348,1.144622 -0.20924,0.156321 -0.19837,0.256805 0.0382,0.352777 0.39271,0.159348 0.44693,0.883851 0.0662,0.883851 -0.14552,0 -0.26459,0.178594 -0.26459,0.396875 0,0.218281 0.11907,0.396875 0.26459,0.396875 0.14552,0 0.26458,0.238125 0.26458,0.529167 0,0.554043 0.63958,0.728096 0.93269,0.25382 0.18905,-0.305882 1.22118,-0.06592 1.48539,0.345339 0.18655,0.290381 1.1625,0.152855 2.65984,-0.374808 0.63779,-0.224753 1.18884,-0.688131 1.5875,-1.334919 0.33584,-0.544864 0.72968,-0.954852 0.87521,-0.911082 0.14552,0.04377 0.32958,0.635611 0.40903,1.315199 0.14399,1.231628 0.14185,1.235631 -0.66146,1.239726 -0.44325,0.0024 -1.79925,0.277202 -3.01333,0.610979 -2.69394,0.74063 -3.95789,1.769226 -3.87202,3.151039 0.0829,1.3348 -0.10175,1.580174 -0.74109,0.984539 -0.72385,-0.674365 -0.85141,-0.655979 -1.4589,0.210272 -0.38223,0.545045 -0.491,1.082519 -0.4335,2.142152 0.0422,0.777999 0.13446,1.472255 0.20499,1.54279 0.14435,0.144346 1.291,-0.412324 1.49982,-0.728128 0.0746,-0.112813 0.48709,-0.243819 0.91664,-0.291121 0.60749,-0.0669 0.80459,0.03156 0.88717,0.443161 0.0584,0.291042 0.23627,0.611069 0.3953,0.711174 0.26108,0.164333 0.32365,0.547868 0.41535,2.545598 0.0172,0.37387 0.14139,0.54087 0.32016,0.43038 0.16066,-0.0993 0.88762,-0.23644 1.61545,-0.30476 l 1.32334,-0.12423 -1.08629,0.9814 c -0.59746,0.53977 -1.08629,1.11967 -1.08629,1.28868 0,0.16901 -0.23812,0.51118 -0.52917,0.76037 -0.6067,0.51948 -0.68699,1.31913 -0.18359,1.82843 0.19007,0.1923 0.55972,0.71422 0.82145,1.15984 0.26173,0.44562 0.82025,1.04093 1.24116,1.32292 0.42091,0.28199 0.76564,0.69996 0.76606,0.92883 9.2e-4,0.50225 2.03595,1.56825 2.99385,1.56825 0.3774,0 0.98994,-0.1384 1.3612,-0.30756 0.92713,-0.42243 1.01849,-0.29122 1.16819,1.67772 0.0186,0.24427 0.18259,0.60364 0.3645,0.7986 0.60308,0.64638 1.25966,2.01029 1.20544,2.50405 -0.0294,0.26761 0.21067,1.04496 0.53347,1.72745 0.55607,1.1757 1.62058,1.97032 3.22202,2.40511 0.49475,0.13433 2.66327,-0.58316 3.10886,-1.02861 z m 4.92354,-20.875684 c -0.0842,-0.219406 0.0504,-0.709412 0.29902,-1.088901 0.40186,-0.61332 0.49619,-0.645887 0.84897,-0.293111 0.35277,0.35278 0.34649,0.473769 -0.0566,1.088904 -0.51267,0.782436 -0.86713,0.877628 -1.09143,0.293108 z M 119.9955,97.968833 c -0.0652,-0.606001 -1.69145,-1.39455 -2.54957,-1.236295 -1.27877,0.235826 -4.63021,0.27476 -4.63021,0.05379 0,-0.224433 0.9362,-0.307774 2.44218,-0.217409 1.12104,0.06727 2.78705,-0.414192 3.33731,-0.964451 0.56138,-0.56138 1.23711,-0.303546 1.20106,0.458285 -0.017,0.359259 0.0827,0.726197 0.22159,0.815414 0.13887,0.08922 0.19876,0.446405 0.13308,0.79375 -0.0657,0.347345 -0.13562,0.48096 -0.15544,0.296918 z m -9.03187,-0.591423 c 0,-0.341019 0.13399,-0.5286 0.33073,-0.463021 0.1819,0.06064 0.33073,0.268994 0.33073,0.463021 0,0.194027 -0.14883,0.402386 -0.33073,0.463021 -0.19674,0.06558 -0.33073,-0.122002 -0.33073,-0.463021 z m 6.87917,-10.451042 c 0,-0.218281 0.11906,-0.396875 0.26458,-0.396875 0.14553,0 0.26459,0.178594 0.26459,0.396875 0,0.218281 -0.11906,0.396875 -0.26459,0.396875 -0.14552,0 -0.26458,-0.178594 -0.26458,-0.396875 z m 3.08681,-4.277432 c -0.30444,-0.304437 -0.19268,-0.61736 0.22048,-0.61736 0.21828,0 0.39688,0.178594 0.39688,0.396875 0,0.413166 -0.31292,0.524926 -0.61736,0.220485 z m 77.35012,36.142784 c 0.28689,-1.35186 0.28217,-1.66238 -0.03,-1.97244 -0.31643,-0.31432 -0.49311,-0.30838 -1.21113,0.0407 -0.67324,0.32729 -0.87687,0.62308 -1.02255,1.48538 -0.15817,0.9362 -0.10026,1.1395 0.44377,1.55789 1.10868,0.85263 1.44692,0.64605 1.8199,-1.1115 z m -36.55658,0.31664 c 0.31331,-0.27173 0.56803,-0.71821 0.56604,-0.99219 -0.006,-0.89703 -0.31611,-1.68875 -0.6604,-1.68875 -0.18574,0 -0.40913,-0.18614 -0.49644,-0.41365 -0.2081,-0.54232 -0.69163,-0.23179 -0.69163,0.44418 0,0.29065 -0.36871,0.86523 -0.81936,1.27683 -0.70552,0.6444 -0.77775,0.82613 -0.51986,1.30801 0.38462,0.71866 1.82704,0.75474 2.62165,0.0656 z m -51.44261,-0.72488 c 0.59626,-0.2288 0.51794,-0.63315 -0.12264,-0.63315 -0.46796,0 -0.5192,-0.11707 -0.37879,-0.86548 0.14257,-0.75998 0.0287,-1.00189 -0.93442,-1.98438 -0.60324,-0.61539 -1.2083,-1.11889 -1.3446,-1.11889 -0.20476,0 -0.62374,0.19685 -1.5351,0.72121 -0.0571,0.0329 0.0499,0.24495 0.2377,0.47129 0.28472,0.34308 0.25964,0.47143 -0.15075,0.77152 -0.41169,0.30104 -0.43605,0.42774 -0.14877,0.77389 0.18894,0.22765 0.2704,0.53222 0.18104,0.67681 -0.25015,0.40476 0.91693,0.91987 2.16288,0.95464 0.61596,0.0172 1.20135,0.11267 1.30087,0.21219 0.21977,0.21978 0.21336,0.2196 0.73258,0.0204 z m 90.83987,-1.85824 c 0.56353,-0.15103 0.59531,-0.29158 0.59531,-2.6333 v -2.47376 l -0.92604,0.54638 c -0.82298,0.48557 -0.92572,0.66861 -0.92313,1.64472 0.004,1.37621 0.27802,3.08389 0.49473,3.07911 0.0901,-0.002 0.43171,-0.0754 0.75913,-0.16315 z m -4.40937,-4.41459 c -0.34266,-0.34266 -0.39772,0.29556 -0.0909,1.05398 0.17261,0.42673 0.20691,0.40986 0.28698,-0.14117 0.05,-0.3442 -0.0382,-0.75497 -0.19605,-0.91281 z m -89.31928,0.47779 c 0.7276,-0.21651 1.56104,-0.51042 1.85208,-0.65313 0.29104,-0.14271 0.86869,-0.38265 1.28367,-0.53319 0.5329,-0.19333 0.70699,-0.39753 0.59274,-0.69526 -0.089,-0.23184 -0.0294,-0.91317 0.13244,-1.51408 0.2546,-0.9455 0.47797,-2.8708 0.52144,-4.49432 0.017,-0.63627 -0.4973,-1.23563 -1.06034,-1.23563 -0.62937,0 -2.92516,0.80481 -2.92516,1.02545 0,0.10007 -0.56554,0.34476 -1.25677,0.54375 -0.69122,0.199 -1.44915,0.55241 -1.68429,0.78537 -0.23513,0.23296 -0.68162,0.59867 -0.99219,0.8127 -0.49861,0.34362 -0.56466,0.64181 -0.56466,2.54925 0,2.06642 0.0316,2.18046 0.7276,2.62908 0.40018,0.25792 0.82282,0.6288 0.93919,0.82418 0.27033,0.45385 0.79248,0.44438 2.43425,-0.0442 z m 46.05325,-0.58268 c 0.64618,-0.54014 1.17488,-1.14136 1.17488,-1.33605 0,-0.1947 0.1872,-0.71601 0.41601,-1.15848 0.23667,-0.45766 0.33263,-0.99381 0.22258,-1.24363 -0.10639,-0.24153 -0.17036,-0.54097 -0.14215,-0.66543 0.12874,-0.56803 -0.55729,-0.90582 -1.56513,-0.77064 -0.68636,0.0921 -1.04798,0.0372 -1.04798,-0.15886 0,-0.44353 -1.64355,-0.36302 -2.32439,0.11386 -0.53489,0.37466 -0.60487,0.37466 -0.74864,0 -0.0872,-0.2273 -0.31452,-0.41328 -0.50511,-0.41328 -0.19058,0 -0.38791,-0.12419 -0.43851,-0.27599 -0.0506,-0.15179 -0.4179,-0.31073 -0.81622,-0.3532 -0.39832,-0.0425 -0.80341,-0.1564 -0.90019,-0.25318 -0.3427,-0.3427 -0.84849,-0.16952 -0.83838,0.28706 0.006,0.25466 -0.052,1.17739 -0.12806,2.05052 -0.0761,0.87312 -0.0744,1.91364 0.004,2.31225 0.15512,0.79225 1.62936,1.8871 2.23429,1.65931 0.19831,-0.0747 0.94629,0.16203 1.66218,0.52602 1.74858,0.88905 2.35676,0.83699 3.74122,-0.32028 z m -4.64596,-0.98508 c 0,-0.0633 0.13549,-0.45024 0.30108,-0.85989 0.16559,-0.40966 0.28696,-1.00097 0.26971,-1.31404 -0.0245,-0.44452 0.0843,-0.53894 0.49679,-0.43108 0.68853,0.18005 0.91862,0.57513 0.54979,0.94397 -0.16195,0.16194 -0.29445,0.45773 -0.29445,0.6573 0,0.43141 -0.63863,1.11881 -1.03944,1.11881 -0.15591,0 -0.28348,-0.0518 -0.28348,-0.11507 z m 51.85674,0.1642 c 0.97758,-0.2141 1.22557,-0.67609 0.95072,-1.77118 -0.12048,-0.48001 -0.48214,-0.71665 -1.58551,-1.0374 -0.78619,-0.22855 -1.92658,-0.41555 -2.53421,-0.41555 h -1.10478 l 0.17307,-0.8599 c 0.30623,-1.52153 0.42657,-1.78593 0.81285,-1.78593 0.20847,0 0.37904,0.11664 0.37904,0.2592 0,0.30976 1.66553,1.1763 2.77547,1.44402 0.43511,0.10495 0.87977,0.3302 0.98814,0.50057 0.10837,0.17036 0.19886,-1.62502 0.20109,-3.98973 0.004,-4.682233 0.0695,-4.516982 -1.5852,-4.024256 -0.50836,0.151376 -1.40054,0.374851 -1.98262,0.496616 -0.58209,0.12175 -1.25044,0.30206 -1.48523,0.40066 -0.33807,0.14199 -0.46145,-0.0368 -0.59295,-0.859116 -0.17235,-1.077812 -0.74732,-1.801783 -1.20588,-1.518377 -0.38496,0.237921 -2.0099,-0.504333 -2.43606,-1.112766 -0.20093,-0.286864 -0.78204,-0.612053 -1.29135,-0.722649 -0.50932,-0.110593 -1.01351,-0.334949 -1.12042,-0.498567 -0.14156,-0.216647 -0.19549,-0.213326 -0.19844,0.01222 -0.002,0.170339 -0.37594,0.391388 -0.83047,0.49122 -0.45453,0.09983 -1.21362,0.409967 -1.68687,0.689192 -0.47325,0.279223 -1.20269,0.482891 -1.62098,0.452597 -1.25702,-0.09105 -1.83148,0.389797 -1.87865,1.57249 -0.0348,0.872776 0.065,1.092726 0.60829,1.340256 0.69716,0.31764 1.3847,1.50163 1.06035,1.82598 -0.1083,0.1083 -0.34265,-0.002 -0.52078,-0.24603 -0.30188,-0.41284 -0.34343,-0.41163 -0.61161,0.0178 -0.22307,0.35718 -0.17442,0.60547 0.21646,1.10481 0.46421,0.593 0.52597,0.60736 0.77869,0.18106 0.55854,-0.94219 1.1245,-0.30259 1.66729,1.88424 0.28898,1.16427 0.34706,1.2196 1.49131,1.4204 0.71324,0.12516 1.68407,0.0932 2.42129,-0.0797 1.24397,-0.29175 3.3897,-0.12713 4.26569,0.32726 0.41026,0.21281 0.42095,0.29173 0.085,0.62764 -0.21132,0.21133 -0.51179,0.38423 -0.66771,0.38423 -0.29977,0 -0.40252,0.51687 -0.30924,1.55564 0.0599,0.66749 0.59708,1.35477 1.0588,1.35477 0.1524,0 0.66692,0.24266 1.14338,0.53924 0.88434,0.55047 1.79776,0.55902 4.17198,0.0391 z m -4.23174,-7.08907 c 0,-0.68769 0.067,-1.18337 0.14883,-1.10151 0.28647,0.28647 0.37892,2.02568 0.1163,2.18799 -0.16283,0.10063 -0.26513,-0.3186 -0.26513,-1.08648 z m -0.2207,-2.25715 c 0.0486,-0.34363 0.20747,-0.59502 0.353,-0.55864 0.39057,0.0976 0.3216,0.92908 -0.0884,1.06576 -0.24201,0.0807 -0.3252,-0.0788 -0.26459,-0.50712 z m -11.2143,7.26336 c 0.39566,-0.43323 0.92774,-0.86351 1.1824,-0.95618 0.48981,-0.17823 0.5647,-0.66886 0.30234,-1.98066 -0.15217,-0.76088 -0.68157,-1.14508 -1.68071,-1.21974 -0.21244,-0.0159 -0.46508,-0.41464 -0.56156,-0.88639 -0.22611,-1.10557 -0.69297,-1.65455 -1.40703,-1.65455 -0.71295,0 -1.74627,0.70322 -1.74627,1.1884 0,0.20056 -0.14179,0.69983 -0.3151,1.10948 -0.1733,0.40966 -0.32213,0.98295 -0.33072,1.27399 -0.0101,0.34117 -0.22714,0.55921 -0.61095,0.61372 -0.42574,0.0605 -0.59531,0.26281 -0.59531,0.71038 0,1.22097 0.44403,1.87129 1.49545,2.19019 2.35886,0.71545 3.3408,0.62602 4.26746,-0.38864 z m -22.12481,-0.6121 c 0.21861,0 0.56214,-0.32743 0.76338,-0.72761 0.20125,-0.40018 0.59275,-1.06357 0.87,-1.4742 0.35811,-0.53038 0.4612,-1.01089 0.35598,-1.65926 -0.0815,-0.50197 -0.0325,-1.24421 0.10873,-1.64942 0.18798,-0.53924 0.15089,-0.99028 -0.13834,-1.68251 -0.42106,-1.00775 -1.79484,-2.33201 -2.4192,-2.33201 -0.20711,0 -0.37657,-0.119062 -0.37657,-0.264583 0,-0.145521 -0.15292,-0.264584 -0.33983,-0.264584 -0.55039,0 -1.24767,1.452415 -1.24767,2.598867 0,1.37865 -0.21374,1.89906 -0.77996,1.89906 -0.34005,0 -0.54279,0.3755 -0.78352,1.45121 -0.17862,0.79817 -0.25106,1.57048 -0.16098,1.71624 0.0901,0.14576 0.0534,0.66487 -0.0815,1.15357 -0.36733,1.33039 0.002,1.77687 1.42433,1.72306 0.64776,-0.0245 1.25685,0.0346 1.35355,0.13126 0.0967,0.0967 0.37344,-0.003 0.61499,-0.22164 0.24155,-0.2186 0.61805,-0.39745 0.83666,-0.39745 z m 8.95336,-0.39663 c 0.77788,-0.93729 0.38971,-3.78842 -0.52741,-3.8738 -0.21913,-0.0204 -0.75562,-0.0562 -1.19218,-0.0794 -0.67975,-0.0363 -1.34043,-0.22638 -2.01637,-0.58023 -0.0904,-0.0473 -0.41778,0.13385 -0.7276,0.40256 -0.55256,0.47923 -0.81791,2.14629 -0.34164,2.14629 0.12192,0 0.72152,0.50601 1.33243,1.12448 0.88257,0.89347 1.32092,1.13642 2.1338,1.18264 0.62887,0.0357 1.14476,-0.0885 1.33897,-0.3225 z m -15.47792,-2.24921 c 0.0924,-0.29104 0.32284,-0.52916 0.51216,-0.52916 0.42969,0 0.747,-2.11216 0.38316,-2.55056 -0.26553,-0.31995 -0.18322,-0.41922 1.81836,-2.19305 0.97257,-0.861899 1.469,-2.40015 0.77459,-2.40015 -0.77913,0 -0.75096,-0.542467 0.0425,-0.819084 0.97902,-0.341288 1.13262,-0.716687 0.922,-2.253377 -0.12407,-0.905158 -0.31565,-1.276313 -0.76435,-1.480751 -0.36535,-0.166465 -0.66012,-0.595667 -0.75611,-1.100952 -0.15597,-0.821048 -1.49498,-2.018753 -2.25693,-2.018753 -0.19259,0 -0.60813,0.267891 -0.92341,0.595313 -0.31529,0.327422 -1.01355,0.951833 -1.5517,1.387581 -0.93484,0.756959 -1.27775,1.45669 -0.71386,1.45669 0.14552,0 0.26458,0.178593 0.26458,0.396875 0,0.218281 -0.12575,0.396875 -0.27946,0.396875 -0.26994,0 -0.9493,-1.408991 -1.46437,-3.037086 -0.13713,-0.43347 -0.53133,-0.928717 -0.87599,-1.100551 -0.34466,-0.171833 -0.69987,-0.419248 -0.78936,-0.549812 -0.0895,-0.130561 -0.54964,-0.393898 -1.02259,-0.585192 -0.47294,-0.191294 -0.85989,-0.456163 -0.85989,-0.588597 0,-0.395772 0.83144,-0.591297 1.045,-0.245745 0.14852,0.240302 0.42225,0.19486 1.09778,-0.182243 l 0.89993,-0.502367 0.0626,-2.177227 c 0.0571,-1.988921 0.12643,-2.241098 0.80101,-2.915679 0.59782,-0.597818 0.85694,-0.694622 1.3606,-0.508302 0.89478,0.330999 1.22167,-0.06403 1.73801,-2.100339 0.6948,-2.740044 0.69318,-2.704778 0.12366,-2.704778 -0.29939,0 -0.51398,-0.180652 -0.51398,-0.432681 0,-0.237974 -0.29765,-0.708538 -0.66146,-1.045699 -0.3638,-0.337161 -0.66146,-0.499642 -0.66146,-0.361069 0,0.42109 -0.49796,0.283154 -1.08038,-0.299265 -0.64833,-0.648338 -0.51426,-0.935741 0.24658,-0.528556 0.29394,0.157311 0.83992,0.28602 1.21329,0.28602 0.37337,0 0.67885,0.149696 0.67885,0.332656 0,0.336907 1.86576,1.584743 2.82446,1.889022 0.86846,0.275637 1.93804,-1.15963 1.93804,-2.600648 0,-0.647515 0.11938,-1.251083 0.2653,-1.341263 0.32538,-0.201099 -0.14593,-1.190183 -0.56715,-1.190183 -0.15577,0 -0.6332,-0.294484 -1.06094,-0.65441 -1.12555,-0.947084 -2.69477,-1.364848 -3.74749,-0.997675 -0.46356,0.161684 -1.52903,0.375338 -2.3677,0.474784 -0.83866,0.09945 -1.60044,0.30312 -1.69282,0.452604 -0.33182,0.536893 -0.11501,1.90391 0.35736,2.253147 0.44032,0.325554 0.44365,0.374285 0.0411,0.60262 -0.33554,0.190331 -0.40482,0.495538 -0.29624,1.305105 0.0811,0.604266 0.0151,1.209231 -0.15398,1.412989 -0.17057,0.205534 -0.32513,1.662075 -0.36523,3.441991 -0.0688,3.055475 -0.0757,3.085677 -0.70027,3.085804 -0.87433,1.72e-4 -2.67653,0.564851 -2.67653,0.838629 0,0.210896 -2.20989,1.335725 -3.24115,1.649735 -0.86146,0.262308 -0.48145,1.629518 0.91378,3.287665 0.6779,0.805638 1.53362,1.125969 1.53362,0.574095 0,-0.14552 0.17859,-0.264583 0.39687,-0.264583 0.58604,0 0.49254,0.233238 -0.46302,1.154941 -1.00289,0.967367 -1.78593,2.28464 -1.78593,3.004386 0,0.278194 0.38695,0.859544 0.85989,1.291886 0.47294,0.432345 1.69333,1.730402 2.71198,2.884573 1.01865,1.15417 2.11997,2.375561 2.4474,2.714211 0.32742,0.33866 0.59531,0.71549 0.59531,0.83743 0,0.12193 0.26789,0.29452 0.59531,0.38354 0.42092,0.11442 0.70166,0.007 0.95831,-0.36602 0.19966,-0.29032 0.46755,-0.52786 0.59532,-0.52786 0.38898,0 0.25943,0.5833 -0.20499,0.92288 -0.29011,0.21214 -0.35948,0.44459 -0.20609,0.69063 0.12716,0.20398 0.26368,0.60899 0.30338,0.90003 0.16627,1.21914 0.37032,1.7198 0.70092,1.7198 0.19295,0 0.56632,0.23812 0.82971,0.52916 0.26339,0.29104 0.75007,0.52917 1.08151,0.52917 0.37025,0 0.66739,-0.20405 0.77058,-0.52917 z m -2.18131,-7.989552 c -0.0403,-1.681414 0.0289,-2.60255 0.18376,-2.446761 0.13662,0.137417 0.31729,0.642842 0.40151,1.123164 0.24392,1.391298 0.69135,1.904812 1.65968,1.904812 0.59019,0 0.8624,0.125273 0.8624,0.396875 0,0.218282 -0.12538,0.396875 -0.27862,0.396875 -0.15324,0 -0.71666,0.297657 -1.25205,0.661459 -0.53538,0.363798 -1.09461,0.661168 -1.24273,0.660818 -0.16079,-2.6e-4 -0.29536,-1.087205 -0.33395,-2.697242 z m -49.35559,7.058672 c 0.49723,-0.51198 1.01619,-0.86158 1.15324,-0.77688 0.13704,0.0847 0.43536,-0.0322 0.66292,-0.25974 0.22756,-0.22756 0.70289,-0.41375 1.0563,-0.41375 0.50195,0 0.64835,-0.14474 0.66902,-0.66146 0.0145,-0.3638 0.0384,-0.93195 0.0529,-1.26256 0.0145,-0.3306 -0.065,-0.74914 -0.17685,-0.93006 -0.35827,-0.57969 -2.04131,-1.114673 -3.50672,-1.114673 h -1.42289 v 3.175003 c 0,2.21473 0.0919,3.175 0.304,3.175 0.1672,0 0.71083,-0.41889 1.20806,-0.93088 z m 73.74026,0.24112 c 0.23018,-0.0883 0.41851,-0.38372 0.41851,-0.65642 0,-0.29643 0.24424,-0.55712 0.60734,-0.64825 1.07761,-0.27046 2.22936,-2.12948 2.45261,-3.958698 0.0178,-0.145521 0.18168,-0.820508 0.36428,-1.499968 0.30036,-1.117672 0.45394,-1.287844 1.61178,-1.785938 0.70389,-0.302805 1.45121,-0.550553 1.66072,-0.550553 0.51418,0 1.28488,-1.612429 0.95861,-2.00556 -0.16378,-0.197337 -0.009,-0.650999 0.45264,-1.329793 1.0978,-1.612956 0.66361,-4.07298 -0.71888,-4.07298 -0.29492,0 -0.88115,-0.178374 -1.30273,-0.396386 -0.70184,-0.362934 -1.51643,-0.591883 -2.28521,-0.642286 -0.16494,-0.01082 -0.35678,-0.317318 -0.42633,-0.68112 -0.11478,-0.600427 -0.0436,-0.661458 0.77121,-0.661458 0.61272,0 0.95248,-0.146968 1.07036,-0.463021 0.095,-0.254662 0.38892,-0.618601 0.65316,-0.808752 0.27707,-0.199385 0.48044,-0.675378 0.48044,-1.124479 0,-0.4875 0.1372,-0.778748 0.36685,-0.778748 0.20176,0 0.4317,-0.327422 0.51097,-0.727605 0.0793,-0.400182 0.25218,-1.144323 0.38424,-1.653646 0.26137,-1.008083 -0.25725,-2.857693 -0.91249,-3.254293 -0.19226,-0.116371 -0.34957,-0.452297 -0.34957,-0.746503 0,-1.029949 -0.62158,-1.292106 -3.22326,-1.359434 -2.2782,-0.05896 -2.50585,-0.114557 -3.04201,-0.742961 -0.31874,-0.373581 -0.6575,-0.989896 -0.7528,-1.369592 -0.20749,-0.82672 -0.85552,-1.453451 -1.58089,-1.528927 -1.22104,-0.12705 -3.03785,0.02357 -2.97656,0.246767 0.0818,0.297762 -1.93876,2.139868 -2.34743,2.140154 -0.16331,1.13e-4 -0.37663,0.498684 -0.47405,1.107932 -0.0974,0.60925 -0.34544,1.472454 -0.55116,1.918229 -0.35668,0.772917 -0.89891,2.217153 -1.51005,4.022011 -0.45897,1.355455 0.67492,3.206731 1.61009,2.628765 0.29985,-0.185314 1.85757,1.369581 2.16732,2.163374 0.19295,0.494503 0.42381,0.591253 1.36332,0.571346 1.27614,-0.02704 3.55389,-1.133139 4.01399,-1.949236 0.16062,-0.284895 0.44086,-0.680352 0.62276,-0.878795 0.33606,-0.366609 0.39199,-1.27826 0.33228,-5.416232 -0.0184,-1.273308 0.0272,-2.315105 0.10119,-2.315105 0.28327,0 1.40804,1.231929 1.96722,2.154635 0.49238,0.812496 0.53825,1.082799 0.29183,1.719792 -0.41883,1.082648 -0.7516,4.840158 -0.50042,5.650574 0.092,0.296976 -0.11009,0.404992 -0.80303,0.429127 -0.50933,0.01773 -1.01534,0.0475 -1.12448,0.06615 -0.10914,0.01863 -0.24547,0.0041 -0.30295,-0.03225 -0.24716,-0.156422 -1.21841,0.985379 -1.21841,1.432361 0,0.769639 -1.31371,2.072796 -2.09425,2.077419 -0.92694,0.0055 -1.27006,0.265403 -1.48596,1.125579 -0.10041,0.400098 -0.29368,0.796121 -0.42948,0.88005 -0.35896,0.22185 -1.58783,-0.655162 -1.74152,-1.242878 -0.0722,-0.27622 -0.26628,-0.504042 -0.43121,-0.50627 -0.16513,-0.0021 -0.12789,-0.112855 0.0829,-0.2462 0.31589,-0.19985 0.27099,-0.332644 -0.25706,-0.760235 -0.4975,-0.402847 -0.64483,-0.784587 -0.66234,-1.716175 -0.0183,-0.970751 -0.19588,-1.39587 -0.9362,-2.240436 -0.50252,-0.573294 -1.21015,-1.135023 -1.57249,-1.248288 -0.36235,-0.113266 -0.72128,-0.302321 -0.79762,-0.420127 -0.0763,-0.117806 -0.6498,-0.329004 -1.27435,-0.469331 -0.96583,-0.217009 -1.15771,-0.189553 -1.28382,0.183705 -0.0815,0.241367 -0.43082,1.05655 -0.77617,1.811523 -0.34534,0.754975 -0.6279,1.558647 -0.6279,1.785938 0,0.227293 -0.17859,0.41326 -0.39687,0.41326 -0.49507,0 -0.52635,-0.952037 -0.0374,-1.139645 0.19768,-0.07586 0.44121,-0.654145 0.54117,-1.285078 0.3086,-1.947805 0.93552,-3.003672 2.42358,-4.08182 1.44136,-1.044308 1.86993,-1.877232 1.25936,-2.447584 -0.19262,-0.179935 -0.35204,-0.64988 -0.35427,-1.044326 -0.006,-1.045867 -0.32873,-1.407372 -1.7327,-1.940309 -1.36747,-0.519081 -1.70283,-0.461756 -1.70283,0.291071 0,0.755901 -0.28506,1.328941 -0.66108,1.328941 -0.40622,0 -0.74482,1.1738 -0.53201,1.844294 0.0832,0.262006 0.62166,0.80241 1.19667,1.200894 0.57501,0.398486 0.97744,0.834615 0.89427,0.969179 -0.0924,0.149503 -0.27068,0.14864 -0.45838,-0.0021 -0.16895,-0.135784 -0.68854,-0.32839 -1.15465,-0.428016 -0.46611,-0.09963 -1.12499,-0.399436 -1.46419,-0.666247 -0.72633,-0.571336 -2.06171,-0.431864 -2.23571,0.233508 -0.0619,0.23686 -0.5524,0.725977 -1.08991,1.086921 -1.3009,0.873564 -1.61766,1.320361 -1.4971,2.111685 0.37583,2.466935 0.39481,2.511388 1.25295,2.934377 0.46957,0.231458 1.07808,0.846789 1.35224,1.367396 0.49097,0.932334 1.0422,1.243753 2.21409,1.250865 0.42013,0.0026 0.59531,-0.152109 0.59531,-0.525555 0,-0.71688 0.42928,-0.671592 0.62699,0.06615 0.37759,1.408962 0.20164,2.978822 -0.67779,6.047545 -0.15041,0.524872 -0.19507,1.201359 -0.0992,1.503304 0.24929,0.785442 2.3916,1.965849 3.55258,1.957459 1.96929,-0.01423 4.26712,-0.388178 4.56097,-0.742249 0.16685,-0.201046 0.55668,-0.367361 0.86629,-0.369589 0.3096,-0.0021 0.68198,-0.09152 0.8275,-0.198437 0.30776,-0.226108 1.14656,-2.423361 1.43776,-3.766262 0.33385,-1.539552 0.61549,-0.277479 0.33292,1.491864 -0.13623,0.852964 -0.22901,2.877039 -0.20619,4.497943 0.0327,2.323969 0.15143,3.176469 0.56142,4.031869 0.28596,0.59662 0.62533,1.08613 0.75416,1.0878 0.12884,0.002 0.48602,0.27117 0.79375,0.5989 0.99006,1.05438 2.58999,1.52651 3.71287,1.09562 z m 2.53518,-10.819618 c 0,-0.218282 0.11906,-0.396875 0.26458,-0.396875 0.14552,0 0.26459,0.178593 0.26459,0.396875 0,0.218281 -0.11907,0.396875 -0.26459,0.396875 -0.14552,0 -0.26458,-0.178594 -0.26458,-0.396875 z m -6.68073,-11.691761 c -0.25466,-0.06655 -0.46302,-0.231331 -0.46302,-0.366181 0,-0.321294 0.45427,-0.315846 0.65432,0.0079 0.086,0.139166 0.35069,0.178462 0.58818,0.08733 0.28864,-0.110763 0.36838,-0.06307 0.2405,0.143846 -0.19854,0.321233 -0.25189,0.327885 -1.01998,0.127161 z m 0.63276,-1.443477 c -0.31387,-0.502576 -0.30353,-0.547997 0.0903,-0.396875 0.24459,0.09386 0.49451,0.170654 0.55537,0.170654 0.0609,0 0.11065,0.178594 0.11065,0.396875 0,0.567431 -0.34382,0.489852 -0.75631,-0.170654 z m -8.1365,20.654156 c 0.37263,-0.63081 0.61386,-0.78229 1.06535,-0.66897 0.67262,0.16882 2.53579,-0.28376 2.53579,-0.61595 0,-0.2803 -1.95173,-1.074623 -2.64048,-1.074623 -0.77382,0 -1.74125,1.203663 -1.81202,2.254493 -0.0766,1.13746 0.21989,1.17404 0.85136,0.10505 z m 31.66478,-4.769612 c 0.27128,-0.438936 -0.0488,-1.558681 -0.44553,-1.558681 -0.20132,0 -0.36603,0.119062 -0.36603,0.264583 0,0.145521 -0.19523,0.264583 -0.43385,0.264583 -0.38465,0 -1.12276,0.688504 -1.14524,1.068258 -0.0159,0.267886 2.22358,0.231593 2.39065,-0.03874 z M 103.81988,95.78991 c 0,-0.145521 0.23813,-0.264583 0.52917,-0.264583 0.29104,0 0.52917,0.119062 0.52917,0.264583 0,0.145521 0.17859,0.264583 0.39687,0.264583 0.21828,0 0.39688,-0.121615 0.39688,-0.270256 0,-0.14864 0.32742,-0.415142 0.7276,-0.592227 1.10734,-0.490006 1.91823,-1.562703 1.91823,-2.537563 0,-0.602422 -1.66913,-1.303047 -3.66842,-1.539833 l -1.35866,-0.160912 v 2.550396 c 0,1.523875 0.10649,2.550395 0.26458,2.550395 0.14552,0 0.26458,-0.119062 0.26458,-0.264583 z m 92.86274,-0.992188 c 0.35999,-0.691224 0.7329,-1.316302 0.8287,-1.389062 0.18477,-0.140343 1.55857,-4.350285 1.55857,-4.776158 0,-0.138009 0.23812,-0.489051 0.52916,-0.780092 0.76112,-0.761114 0.65449,-1.42911 -0.35048,-2.195637 l -0.87965,-0.670944 -0.774,0.920036 c -0.42569,0.506021 -0.96317,1.453293 -1.1944,2.105049 -0.576,1.623623 -1.0348,2.055812 -1.0348,0.974794 0,-0.453539 -0.14883,-0.890607 -0.33073,-0.971259 -0.22195,-0.09841 -0.20019,-0.138864 0.0662,-0.122992 0.86447,0.05151 1.02899,-0.07563 1.33436,-1.031235 0.17439,-0.545703 0.42174,-1.105297 0.54969,-1.243542 0.12794,-0.138244 0.23262,-0.525197 0.23262,-0.859895 0,-0.334698 0.14182,-0.608542 0.31515,-0.608542 0.17333,0 0.0998,-0.157491 -0.16347,-0.349978 -0.39,-0.285173 -0.44405,-0.55464 -0.2919,-1.455208 0.1027,-0.607878 0.28088,-1.105231 0.39596,-1.105231 0.11507,0 0.3542,-0.350001 0.53139,-0.77778 0.32681,-0.788971 0.20259,-1.338887 -0.30243,-1.338887 -0.27027,0 -0.79492,-0.420327 -2.39433,-1.918229 -0.4273,-0.400182 -0.86476,-0.727604 -0.97214,-0.727604 -0.10737,0 -0.39394,-0.416719 -0.63682,-0.926042 -0.38095,-0.798859 -0.56929,-0.926041 -1.37131,-0.926041 -1.51256,0 -3.31219,2.101514 -3.31219,3.867806 0,0.36735 -0.17391,0.841825 -0.38648,1.054388 -0.53403,0.534033 -0.84663,2.295589 -0.4319,2.433831 0.17531,0.05844 0.46093,0.284038 0.63471,0.501341 0.17378,0.217302 0.58386,0.686829 0.91128,1.043392 0.32742,0.356563 0.59531,0.770451 0.59531,0.91975 0,0.467997 0.68694,0.986843 2.18186,1.647968 0.9341,0.413107 1.49577,0.836882 1.59079,1.200253 0.226,0.864211 -0.52162,1.128339 -1.50185,0.530593 -1.47987,-0.90242 -2.855,-0.500301 -3.21665,0.94062 -0.10295,0.410191 -0.4085,0.803677 -0.679,0.874414 -0.57349,0.149971 -0.67216,1.125228 -0.11384,1.125228 0.20789,0 0.55611,0.17813 0.77382,0.395848 1.00166,1.001654 2.85956,1.192416 3.87529,0.397902 0.70739,-0.553329 1.5875,-0.700014 1.5875,-0.264584 0,0.145521 -0.1168,0.264584 -0.25955,0.264584 -0.14274,0 -0.3355,0.327421 -0.42835,0.727604 -0.0928,0.400182 -0.34333,1.00671 -0.55663,1.347838 -0.45302,0.724495 -0.2533,1.893308 0.32353,1.893308 0.2155,0 0.39183,0.119062 0.39183,0.264583 0,0.145521 0.38716,0.264583 0.86035,0.264583 0.75813,0 0.93812,-0.14932 1.51488,-1.256771 z m 5.0331,-4.472778 c 0,-4.389872 -0.002,-4.40481 -0.52917,-3.927743 -0.29104,0.26339 -0.52916,0.707065 -0.52916,0.985949 0,0.278881 -0.1786,0.685652 -0.39688,0.903933 -0.56363,0.563631 -0.51949,2.37803 0.0661,2.719134 0.25697,0.149669 0.31584,0.273267 0.13229,0.27773 -0.35269,0.0086 -0.48428,1.859542 -0.13229,1.860892 0.10914,5.29e-4 0.43656,0.357261 0.72761,0.792988 0.29104,0.435726 0.55893,0.79257 0.59531,0.792988 0.0364,5.29e-4 0.0661,-1.982222 0.0661,-4.405871 z m -13.27591,-2.031439 c 0.0577,-0.297413 -0.0931,-0.441095 -0.46302,-0.441095 -0.69195,0 -0.69857,-0.534935 -0.0204,-1.647251 0.2905,-0.476459 0.52862,-1.320798 0.52916,-1.876309 8e-4,-0.925277 -0.049,-0.994704 -0.59432,-0.827513 -0.89456,0.274243 -1.20494,0.602334 -1.39698,1.476708 -0.12304,0.560205 -0.0443,0.936808 0.26805,1.281946 0.24325,0.26879 0.40867,0.707279 0.36759,0.974418 -0.17863,1.161656 1.09094,2.188134 1.30991,1.059096 z M 131.8198,82.219192 c 0.15591,-0.187851 0.40413,-0.879977 0.55161,-1.53806 0.30762,-1.372677 0.76697,-2.341263 1.42006,-2.994353 0.65645,-0.65645 0.57535,-0.865952 -0.53669,-1.38639 -0.5457,-0.255392 -1.12061,-0.633156 -1.27758,-0.839476 -0.23777,-0.312533 -0.40332,-0.257193 -0.99218,0.331669 -0.38874,0.388739 -0.7068,0.879978 -0.7068,1.091644 0,0.514305 -0.43169,0.491353 -0.63315,-0.03366 -0.24897,-0.648804 -0.19149,-1.174234 0.17013,-1.555234 0.83148,-0.876044 1.22966,-1.465834 0.98959,-1.465834 -0.14409,0 -0.26199,-0.178594 -0.26199,-0.396875 0,-0.218282 -0.17859,-0.396875 -0.39687,-0.396875 -0.52694,0 -0.53278,-1.571271 -0.008,-2.264535 0.21365,-0.282474 0.39224,-0.72195 0.39687,-0.976611 0.005,-0.254662 0.13598,-0.463021 0.2919,-0.463021 0.15591,0 0.0964,-0.187098 -0.13229,-0.415774 -0.22868,-0.228675 -0.4176,-0.794221 -0.41983,-1.256771 -0.005,-1.038966 -0.21611,-1.37594 -1.01914,-1.626757 -0.57697,-0.18021 -0.61598,-0.302884 -0.49514,-1.557014 0.15533,-1.611998 -0.14149,-2.55128 -0.8661,-2.740772 -0.29173,-0.07629 -0.52598,-0.361075 -0.52598,-0.639445 0,-0.500309 -0.36907,-1.271337 -0.98717,-2.062296 -0.17914,-0.229238 -0.47679,-0.623552 -0.66146,-0.876253 -0.57779,-0.790677 -1.85324,-0.866037 -2.69433,-0.159194 -1.43035,1.202063 -3.23609,3.035103 -3.39319,3.444499 -0.0875,0.228044 -0.59197,0.495832 -1.12103,0.595084 -0.52906,0.09925 -1.18658,0.405118 -1.46117,0.679703 -0.27458,0.274583 -0.98035,0.643386 -1.56836,0.819562 -0.91471,0.27405 -1.09348,0.450167 -1.23779,1.219372 -0.13121,0.699447 -0.0588,0.982286 0.32636,1.273931 0.27225,0.206185 0.40152,0.378664 0.28726,0.383294 -0.54208,0.02196 0.43268,1.045049 1.14467,1.201428 0.8833,0.194003 3.69329,2.6709 3.69329,3.255481 0,0.199557 0.24021,0.668211 0.5338,1.041451 0.31344,0.398475 0.46992,0.879903 0.37905,1.166212 -0.0851,0.268176 -0.0277,0.487592 0.12765,0.487592 0.15533,0 0.28365,0.386953 0.28515,0.859896 0.002,0.607372 0.20221,1.015296 0.68197,1.389063 0.37358,0.291041 1.18934,0.975651 1.81279,1.521354 0.62346,0.545703 1.3286,0.992187 1.56699,0.992187 0.23839,0 0.65366,0.20836 0.92284,0.463021 0.87274,0.825696 1.62811,1.389063 1.86247,1.389063 0.12604,0 0.37738,0.178594 0.55854,0.396875 0.49386,0.595066 0.7907,0.484595 1.10269,-0.410382 0.38311,-1.098997 0.55095,-0.816131 0.55095,0.928523 0,1.423469 0.0213,1.466234 0.72829,1.466234 0.40055,0 0.85583,-0.153697 1.01174,-0.341551 z m 12.56901,-0.650637 c 0.0941,-0.494096 0.0539,-0.859896 -0.0943,-0.859896 -0.14189,0 -0.25797,0.436563 -0.25797,0.97014 0,1.133949 0.12273,1.095539 0.35225,-0.110244 z m 57.30417,0 c -0.0226,-0.985829 -0.0242,-0.987247 -0.25333,-0.221107 -0.20961,0.700929 -0.1423,1.213295 0.15939,1.213295 0.0642,0 0.10645,-0.446484 0.0939,-0.992188 z M 149.8155,80.214942 c 0.16856,-0.562587 0.30647,-1.612678 0.30647,-2.333535 0,-1.068274 -0.12233,-1.417014 -0.66146,-1.885784 -0.3638,-0.316322 -0.66146,-0.456856 -0.66146,-0.312298 0,0.14456 -0.35315,0.262834 -0.78477,0.262834 -0.81541,0 -2.64292,0.729798 -2.98149,1.190625 -0.30722,0.418166 -0.23572,0.661459 0.19439,0.661459 0.21828,0 0.39687,0.119062 0.39687,0.264583 0,0.145521 0.23813,0.264583 0.52917,0.264583 0.62477,0 0.66625,0.392428 0.14672,1.388349 -0.3394,0.650618 -0.33228,0.749689 0.0678,0.944157 0.24583,0.119499 0.92321,0.249979 1.50529,0.289955 0.58209,0.03998 1.10795,0.121123 1.16858,0.180321 0.28224,0.275558 0.49118,0.02846 0.77392,-0.915249 z m 51.8942,-0.895345 -0.006,-1.124479 -0.43513,0.883068 c -0.37159,0.754139 -0.38037,0.91772 -0.0601,1.120426 0.20626,0.130548 0.40477,0.239186 0.44115,0.241413 0.0364,0.0021 0.0634,-0.501964 0.0601,-1.120428 z m -0.9374,-1.455208 c 0.83984,-0.417952 0.93104,-0.570738 0.93691,-1.56967 0.008,-1.431528 -0.18177,-1.50214 -4.42526,-1.642944 -1.09618,-0.03637 -1.10692,-0.410305 -0.0207,-0.72182 1.2736,-0.365263 1.26865,-0.894212 -0.008,-0.894212 -0.7374,0 -1.17181,0.15122 -1.41111,0.491209 -0.19015,0.270166 -0.60753,0.573913 -0.92751,0.674992 -0.6409,0.202462 -0.68773,0.106873 0.92884,1.896195 1.01867,1.127535 2.70278,2.22927 3.40765,2.22927 0.32404,0 1.00784,-0.208359 1.51957,-0.46302 z m -82.03737,-0.09883 c 0.53419,-0.243395 0.70428,-0.594976 0.93849,-1.939904 0.48286,-2.77282 0.39989,-3.384669 -0.53082,-3.914389 -1.02979,-0.586113 -1.19605,-0.580294 -1.88992,0.06615 -0.3124,0.291042 -0.91341,0.529167 -1.33559,0.529167 -0.80372,0 -1.75358,0.856348 -1.76965,1.595424 -0.005,0.222642 0.40791,0.797862 0.91724,1.278268 0.50932,0.480407 0.92874,1.072153 0.93205,1.31499 0.003,0.24284 0.39025,0.641517 0.85989,0.88595 1.05228,0.547679 1.07581,0.549989 1.87831,0.184348 z m -5.04864,-2.878354 c 0.0845,-0.323088 -0.0253,-0.621507 -0.28151,-0.764863 -0.38092,-0.213178 -0.37863,-0.276493 0.0246,-0.679733 0.45322,-0.453218 0.60544,-1.197687 0.24622,-1.204225 -0.10914,-0.0021 -0.4642,-0.07485 -0.78903,-0.16192 -0.46655,-0.125052 -0.64587,-0.01291 -0.85375,0.533829 -0.16067,0.422603 -0.17089,0.923549 -0.0262,1.286396 0.1303,0.326845 0.30239,0.802624 0.38242,1.057286 0.19964,0.635256 1.12617,0.587571 1.29728,-0.06677 z m 25.0586,0.140795 c 3.84555,-0.51897 4.26726,-0.696643 4.39019,-1.849668 0.0615,-0.576868 -0.0334,-0.671753 -0.67168,-0.671753 -0.78366,0 -1.40171,-0.516517 -1.32202,-1.10485 0.10991,-0.811509 -0.0402,-1.2764 -0.41212,-1.2764 -0.21828,0 -0.39687,-0.119063 -0.39687,-0.264584 0,-0.14552 -0.41672,-0.264583 -0.92605,-0.264583 -0.50932,0 -0.92604,0.111768 -0.92604,0.248372 0,0.136605 -0.53909,0.329214 -1.19798,0.42802 -1.40839,0.211201 -1.69197,0.606938 -1.90349,2.656366 -0.13151,1.274247 -0.0788,1.495404 0.46998,1.97135 0.41502,0.359942 0.84021,0.489529 1.29407,0.394393 0.37178,-0.07793 1.09268,-0.19793 1.60201,-0.266663 z m -33.41251,-0.610614 c 1.27685,-0.651306 1.49116,-2.081178 0.74908,-4.997844 -0.32484,-1.276766 -0.49265,-1.583931 -1.43318,-2.623288 -0.44587,-0.492729 -0.5242,-0.440053 1.55285,-1.044382 1.79924,-0.523497 3.43959,-1.343899 3.43959,-1.720268 0,-0.121341 0.24015,-0.296839 0.53366,-0.389996 0.29351,-0.09316 0.70416,-0.577432 0.91254,-1.076164 0.40535,-0.970131 0.84231,-1.180497 0.98179,-0.47266 0.0534,0.271201 0.58203,0.563908 1.40847,0.779939 1.44847,0.378635 2.24895,0.27445 2.24895,-0.292705 0,-0.201244 0.2001,-0.477878 0.44466,-0.614743 0.41171,-0.230402 0.40821,-0.285298 -0.0472,-0.740751 -0.39377,-0.393767 -0.8958,-0.491907 -2.51632,-0.491907 h -2.02442 l -0.0365,-1.389062 c -0.0201,-0.763985 0.0787,-1.389063 0.21957,-1.389063 0.14087,0 0.25795,0.148828 0.26018,0.330729 0.003,0.220486 0.0895,0.198438 0.26053,-0.06615 0.17099,-0.264583 0.25783,-0.286631 0.26053,-0.06614 0.002,0.181901 0.23543,0.330729 0.51822,0.330729 0.28279,0 0.67026,0.208359 0.86104,0.463021 0.19078,0.254661 0.73806,0.737981 1.21616,1.074044 0.85124,0.598332 0.8993,0.602301 2.31396,0.191047 0.79457,-0.230988 1.44467,-0.535714 1.44467,-0.67717 0,-0.141456 0.12757,-0.257192 0.28349,-0.257192 0.15591,0 0.45357,-0.170089 0.66146,-0.377976 0.20788,-0.207887 0.37797,-0.505544 0.37797,-0.661459 0,-0.155915 0.2311,-0.283482 0.51355,-0.283482 0.28246,0 0.59168,-0.126406 0.68716,-0.280904 0.0955,-0.154497 0.46184,-0.390486 0.81411,-0.524421 0.88366,-0.335968 1.21591,-1.394121 1.06769,-3.400397 -0.0692,-0.93636 -0.0141,-1.996186 0.12237,-2.355169 0.22507,-0.591955 0.29062,-0.615632 0.70445,-0.254415 0.25096,0.219054 0.89895,0.47757 1.43998,0.574478 0.54102,0.09691 1.1576,0.350115 1.37016,0.56268 0.47328,0.473274 1.39037,0.5058 1.57197,0.05575 0.0734,-0.181901 0.14285,0.182313 0.15434,0.809365 0.0121,0.662831 -0.085,1.074631 -0.23214,0.983714 -0.13917,-0.08601 -0.1797,-0.347462 -0.0901,-0.581006 0.13757,-0.35851 0.0225,-0.395727 -0.73916,-0.239022 -0.49616,0.102083 -1.41054,0.249628 -2.03196,0.327878 -0.63617,0.08011 -1.10897,0.274957 -1.08205,0.445933 0.0263,0.167012 -0.0996,0.660846 -0.27982,1.097409 -0.36514,0.884652 -0.16187,1.422747 0.70354,1.862413 0.29762,0.151202 0.72254,0.425478 0.94428,0.609502 0.22173,0.184023 0.85951,0.298437 1.41728,0.254253 0.87536,-0.06934 1.02554,-4.7e-5 1.09756,0.506433 0.0925,0.650446 1.66663,2.008041 2.69469,2.323984 0.3638,0.111803 0.75076,0.336059 0.8599,0.498347 0.12989,0.19314 0.26698,0.203671 0.39687,0.03048 0.27189,-0.36252 1.723,-0.858828 2.12209,-0.725798 0.17892,0.05964 0.32531,0.458255 0.32531,0.88581 0,0.568717 -0.17441,0.856841 -0.64978,1.073435 -0.63578,0.289682 -1.73147,2.193275 -1.73147,3.00817 0,0.22601 0.12312,0.554729 0.27361,0.730489 0.15048,0.175757 0.41837,0.515897 0.59531,0.755864 0.17694,0.239969 0.59795,0.518536 0.93558,0.619035 0.48445,0.144203 0.64437,0.06616 0.75846,-0.370157 0.146,-0.558292 0.61204,-0.777825 0.61204,-0.288306 0,0.145521 0.11906,0.264583 0.26458,0.264583 0.14552,0 0.26459,-0.390258 0.26459,-0.867241 0,-1.191313 0.76265,-1.826453 1.82669,-1.52129 1.58795,0.455416 2.40664,-0.276445 2.40664,-2.15138 0,-0.57878 -0.14695,-0.839724 -0.52917,-0.939676 -0.53365,-0.139553 -0.75581,-0.870413 -0.26458,-0.870413 0.14552,0 0.26458,-0.214313 0.26458,-0.47625 0,-0.261938 0.1325,-0.608751 0.29445,-0.770697 0.49749,-0.497489 0.0423,-0.799733 -1.49345,-0.991611 -1.21973,-0.152395 -1.65452,-0.08787 -2.54882,0.378269 -1.18097,0.615553 -1.44996,0.57379 -1.07932,-0.167572 0.13354,-0.267124 0.20668,-1.675777 0.16252,-3.130339 -0.0717,-2.361876 -0.13781,-2.670325 -0.61825,-2.884703 -0.29588,-0.132025 -0.53796,-0.340913 -0.53796,-0.464196 0,-0.123283 -0.13164,-0.224151 -0.29253,-0.224151 -0.1609,0 -0.62306,-0.278118 -1.02704,-0.61804 -0.64965,-0.546649 -0.89857,-0.596333 -2.15486,-0.430129 -0.7812,0.103351 -1.46296,0.150359 -1.51502,0.104464 -0.0521,-0.0459 -0.11897,-0.875695 -0.14869,-1.843998 -0.0529,-1.721871 -0.0798,-1.783837 -1.22826,-2.820498 -1.79026,-1.616027 -3.18983,-1.979754 -3.9958,-1.038446 -0.2341,0.273407 -0.56918,0.544955 -0.74464,0.603438 -0.36196,0.120656 -0.42769,1.09287 -0.14024,2.074458 0.10653,0.363802 0.25362,1.054117 0.32686,1.534032 0.12584,0.824663 0.0952,0.864614 -0.55873,0.727604 -0.38054,-0.07973 -0.96759,-0.201258 -1.30456,-0.270057 -0.33697,-0.0688 -1.05091,0.109796 -1.58654,0.396875 -1.17461,0.62956 -1.09862,0.625928 -1.64589,0.07865 -0.35702,-0.357017 -0.54027,-0.38277 -0.94135,-0.132291 -0.70376,0.439506 -1.04815,0.390334 -1.72596,-0.246434 -0.55503,-0.521427 -0.63262,-0.529978 -1.2004,-0.132292 -0.80967,0.567118 -1.28302,0.536733 -1.28302,-0.08236 0,-0.874657 -0.31248,-1.375823 -1.02827,-1.649173 -0.6379,-0.243603 -0.65562,-0.290455 -0.2285,-0.604213 0.61011,-0.448185 0.59025,-0.943253 -0.0378,-0.943253 -0.27547,0 -0.57254,-0.186804 -0.66016,-0.415119 -0.103,-0.268432 -0.33887,-0.358121 -0.6675,-0.253818 -0.65244,0.207076 -0.93075,-0.230457 -0.41753,-0.656396 0.21668,-0.179827 0.39396,-0.481052 0.39396,-0.669388 0,-0.188337 0.14883,-0.402484 0.33073,-0.475882 0.1819,-0.0734 0.0716,-0.142852 -0.2452,-0.154341 -0.6827,-0.02476 -1.49541,-1.446723 -1.25671,-2.198806 0.16601,-0.52305 0.75083,-0.510624 0.80738,0.01716 0.0182,0.169774 0.0628,0.368211 0.0992,0.440972 0.0987,0.197349 0.19427,0.616834 0.23151,1.015863 0.0537,0.575405 1.31358,1.000445 2.37516,0.801293 0.6551,-0.122899 1.31217,-0.549226 2.04945,-1.329755 0.61517,-0.651254 1.32759,-1.14886 1.64482,-1.14886 0.6192,0 1.02404,-0.579122 1.10975,-1.5875 0.13124,-1.544119 0.0272,-1.672956 -1.60408,-1.98712 -0.32212,-0.06203 -0.76803,-0.373141 -0.99091,-0.691349 -0.39716,-0.567025 -0.4136,-0.568465 -0.82453,-0.07225 -0.84342,1.018456 -1.95993,1.692379 -2.80383,1.692379 -0.81502,0 -1.51788,0.474022 -1.42987,0.964337 0.14295,0.79643 -0.12656,0.787133 -0.84321,-0.02909 -0.45164,-0.514387 -0.96897,-0.935248 -1.14962,-0.935248 -0.18065,0 -0.54871,-0.243375 -0.8179,-0.540832 -0.40155,-0.443706 -0.75341,-0.526858 -1.95924,-0.463021 l -1.46979,0.07781 -0.072,4.79413 -0.072,4.794129 0.79958,0.331199 c 0.43977,0.18216 0.79959,0.435817 0.79959,0.563683 0,0.368027 0.4525,0.27135 0.92052,-0.196666 0.38679,-0.386792 0.46047,-0.388629 0.7465,-0.01861 0.17454,0.225796 0.73407,0.44782 1.24339,0.493386 1.01873,0.09114 1.40263,0.626737 0.95891,1.337814 -0.20977,0.336168 -0.18958,0.686789 0.0762,1.322917 0.43896,1.050677 0.51597,2.165549 0.15554,2.251628 -0.14552,0.03475 -0.26679,-0.08651 -0.26948,-0.269477 -0.0103,-0.700499 -1.15853,-1.476758 -2.42343,-1.638361 -0.70171,-0.08965 -1.66279,-0.222691 -2.13574,-0.295645 l -0.85989,-0.132644 v 6.875541 c 0,4.298291 0.0992,6.936835 0.26458,7.039062 0.14552,0.08994 0.26458,0.282583 0.26458,0.428104 0,0.145521 -0.11906,0.191 -0.26458,0.101063 -0.17257,-0.106651 -0.26458,1.458405 -0.26458,4.500131 v 4.663655 l 0.59531,-0.168288 c 0.32742,-0.09256 0.97828,-0.363638 1.44635,-0.602396 z m 23.40011,-18.050394 c 0,-0.363802 0.06,-0.51263 0.13346,-0.330729 0.0734,0.181901 0.0734,0.479557 0,0.661458 -0.0734,0.181901 -0.13346,0.03307 -0.13346,-0.330729 z m -19.88552,-8.438359 c 0,-0.275473 0.19185,-0.57448 0.42633,-0.664459 0.31204,-0.119742 0.38297,-0.0506 0.26458,0.257915 -0.089,0.231833 -0.16175,0.53084 -0.16175,0.664459 0,0.133619 -0.11906,0.242944 -0.26458,0.242944 -0.14552,0 -0.26458,-0.225387 -0.26458,-0.500859 z m 60.91427,25.605616 c 1.6007,-0.816615 1.81255,-1.123682 1.96652,-2.850372 l 0.13916,-1.560531 -1.344,-1.351092 c -0.7392,-0.743104 -1.45739,-1.351095 -1.59597,-1.351095 -0.13858,0 -0.80972,-0.482738 -1.49143,-1.072748 -1.39426,-1.206725 -2.44566,-1.329637 -2.88151,-0.336857 -0.13878,0.316124 -0.52573,0.627036 -0.85989,0.690915 -0.70648,0.135051 -0.80711,-0.201679 -0.16728,-0.559748 0.48278,-0.270176 0.93899,-2.792702 0.57153,-3.16016 -0.11824,-0.11824 -0.24392,-0.564692 -0.2793,-0.992114 -0.0413,-0.499521 -0.42751,-1.129599 -1.08102,-1.76381 -0.74621,-0.724174 -0.97261,-1.12561 -0.85096,-1.508887 0.18066,-0.569213 -0.53709,-1.615341 -1.1083,-1.615341 -0.18594,0 -0.33807,-0.238125 -0.33807,-0.529167 0,-0.921713 -1.3763,-0.687449 -2.48708,0.423333 -0.52388,0.523875 -0.9525,1.059657 -0.9525,1.190625 0,0.45397 -0.60456,0.233606 -1.88725,-0.687916 -0.70894,-0.509323 -1.39784,-0.926042 -1.5309,-0.926042 -0.13306,0 -0.28161,-0.103324 -0.33012,-0.229609 -0.20586,-0.535954 -1.20457,-0.558317 -1.80179,-0.04035 -0.82487,0.715407 -0.90133,2.97089 -0.12161,3.587199 1.26831,1.002488 1.7538,1.235851 2.77586,1.334297 1.00904,0.09719 1.11452,0.04517 1.39039,-0.685686 0.16418,-0.43497 0.39147,-0.790855 0.50509,-0.790855 0.11362,0 0.20658,-0.178594 0.20658,-0.396875 0,-0.218281 0.17859,-0.396875 0.39687,-0.396875 0.21828,0 0.39688,0.160376 0.39688,0.356391 0,0.527333 0.9223,1.495692 1.42455,1.495692 0.37644,0 0.41395,0.227371 0.27283,1.653646 -0.09,0.909506 -0.1989,1.691101 -0.24203,1.736876 -0.0431,0.04578 -0.76545,-0.283398 -1.60517,-0.731494 -1.52427,-0.813401 -1.52915,-0.814084 -3.00357,-0.421452 -2.60245,0.693021 -2.75289,0.750629 -3.37679,1.293101 -1.57003,1.365131 -0.0625,2.559839 3.39526,2.69071 1.33774,0.05063 1.52497,-0.0085 1.77694,-0.561555 0.1549,-0.339981 0.5721,-0.691049 0.9271,-0.78015 0.35501,-0.0891 0.70823,-0.402019 0.78494,-0.695378 0.0767,-0.293359 0.26656,-0.454843 0.42188,-0.358852 0.38613,0.238644 0.35475,0.82677 -0.0666,1.248879 -0.54073,0.541647 -0.6883,1.461838 -0.40118,2.501683 0.23909,0.865915 0.32845,0.935318 1.02498,0.796012 0.41967,-0.08393 0.83422,-0.03745 0.92121,0.103307 0.46831,0.757748 2.40687,-0.192874 2.85033,-1.397728 0.0937,-0.254662 0.29322,-0.463021 0.44331,-0.463021 0.41456,0 0.32598,0.981342 -0.10346,1.146133 -0.44804,0.171931 -0.25107,1.258456 0.28624,1.578993 0.19508,0.116372 0.35469,0.366398 0.35469,0.555615 0,0.189217 0.35718,0.837112 0.79375,1.43977 0.43656,0.602657 0.80315,1.305131 0.81463,1.561052 0.0115,0.255921 0.0785,0.323784 0.14894,0.150802 0.0864,-0.212116 0.34338,-0.125979 0.78947,0.264583 0.62804,0.54986 1.50921,0.875403 2.55698,0.944666 0.26045,0.01722 0.96737,-0.22062 1.57091,-0.528524 z m -1.6476,-5.790173 c 0,-0.145521 0.17859,-0.264584 0.39687,-0.264584 0.21828,0 0.39688,0.119063 0.39688,0.264584 0,0.145521 -0.1786,0.264583 -0.39688,0.264583 -0.21828,0 -0.39687,-0.119062 -0.39687,-0.264583 z m 25.71014,4.74553 c 0.14894,-0.427229 0.4095,-0.77678 0.57904,-0.77678 0.16954,0 0.42578,-0.267891 0.56943,-0.595313 0.2159,-0.492117 0.43317,-0.58026 1.25337,-0.508476 0.8561,0.07493 0.99218,0.01143 0.99218,-0.463021 0,-0.302421 0.11907,-0.549857 0.26459,-0.549857 0.14552,0 0.26458,-0.15208 0.26458,-0.337957 0,-0.185876 0.35719,-0.651383 0.79375,-1.03446 0.54156,-0.475213 0.79375,-0.941864 0.79375,-1.468766 0,-0.920988 -1.45386,-3.225276 -2.07545,-3.289491 -0.24095,-0.0249 -0.65055,-0.05785 -0.91023,-0.07324 -0.25968,-0.0154 -0.74573,-0.371094 -1.08011,-0.79045 -0.51901,-0.6509 -0.87394,-0.794484 -2.42563,-0.981291 -1.18046,-0.142114 -1.89736,-0.361238 -2.04501,-0.625067 -0.12504,-0.223433 -0.3443,-0.333957 -0.48726,-0.245608 -0.14294,0.08835 -0.41279,0.03375 -0.59964,-0.121321 -0.22836,-0.189517 -0.62725,-0.199498 -1.21671,-0.03044 -0.48233,0.138332 -0.97185,0.192868 -1.08783,0.121193 -0.11597,-0.07168 -0.66493,-0.05771 -1.21992,0.03103 -0.76378,0.122135 -1.17953,0.398516 -1.7104,1.137058 -0.64337,0.895046 -0.67281,1.043589 -0.35604,1.79695 0.18992,0.451689 0.46032,0.892331 0.60089,0.979207 0.16333,0.100947 0.15661,0.528754 -0.0186,1.185315 -0.38965,1.459836 0.13679,3.123486 1.43928,4.548394 0.57693,0.631153 1.24415,1.477973 1.48271,1.881825 0.49844,0.843786 1.30757,1.235499 3.13969,1.519963 1.60451,0.249129 2.67618,-0.209508 3.05961,-1.309399 z m -60.91077,0.302185 c 0.14969,-0.279696 0.43582,-0.6722 0.63586,-0.872236 0.61334,-0.613336 0.79948,-1.529646 0.31075,-1.529646 -0.23266,0 -0.49154,-0.178594 -0.5753,-0.396875 -0.15322,-0.399283 -1.15402,-0.570024 -1.15402,-0.196879 0,0.109998 -0.35719,0.358103 -0.79375,0.551344 -1.02035,0.451652 -1.05927,1.4091 -0.0937,2.304002 0.84273,0.781016 1.30637,0.81996 1.67012,0.14029 z m 30.70271,-0.653782 c 0,-0.05719 -0.17859,-0.172517 -0.39688,-0.256281 -0.21828,-0.08376 -0.39687,-0.03697 -0.39687,0.103984 0,0.140954 0.17859,0.256281 0.39687,0.256281 0.21829,0 0.39688,-0.0468 0.39688,-0.103984 z m 38.1,-2.806433 c 0,-1.671495 -0.10751,-2.910417 -0.25256,-2.910417 -0.44771,0 -1.59952,1.33109 -1.59952,1.848496 0,0.275838 -0.11907,0.575109 -0.26459,0.665046 -0.52848,0.326623 -0.24133,1.040889 0.8599,2.138889 0.61846,0.616654 1.15424,1.131811 1.19062,1.144794 0.0364,0.01299 0.0661,-1.286079 0.0661,-2.886808 z m -53.83253,1.732589 c 1.18065,-0.493307 1.63238,-1.539541 1.04909,-2.429761 -0.22551,-0.344159 -0.55609,-0.629706 -0.73464,-0.634548 -0.43686,-0.01184 -1.51525,-0.930198 -1.51525,-1.290378 0,-0.158575 -0.2471,-0.288319 -0.54911,-0.288319 -0.46078,0 -0.53526,-0.138327 -0.46302,-0.859896 0.0808,-0.807159 0.0212,-0.875398 -0.97225,-1.112647 -0.58208,-0.139015 -1.13106,-0.357357 -1.21995,-0.485206 -0.0889,-0.127849 -0.23977,-0.02878 -0.33529,0.220141 -0.0955,0.248928 -0.0691,0.586333 0.0588,0.74979 0.45272,0.57886 0.55225,2.231869 0.15427,2.562164 -0.20767,0.17235 -0.37758,0.47738 -0.37758,0.677841 0,0.200465 -0.17859,0.36448 -0.39688,0.36448 -0.21828,0 -0.39687,0.178594 -0.39687,0.396875 0,0.387088 0.25017,0.488341 1.05833,0.42835 0.4956,-0.03679 0.84106,0.215336 1.22572,0.894566 0.16482,0.291042 0.47636,0.49783 0.69231,0.459529 0.21595,-0.0383 0.54216,0.110527 0.72491,0.330729 0.41492,0.499951 0.83175,0.503351 1.99745,0.0163 z m 32.74417,-0.481917 c 0.39349,-0.258016 0.71544,-0.667062 0.71544,-0.908989 0,-0.241927 0.26519,-0.722146 0.5893,-1.06715 0.86327,-0.918903 0.81495,-2.583741 -0.0969,-3.337509 -1.58059,-1.30664 -1.82954,-1.493274 -1.99184,-1.493274 -0.0937,0 -0.58075,-0.312955 -1.08223,-0.695452 -0.50148,-0.382501 -1.43937,-0.854234 -2.08419,-1.048297 -1.04024,-0.313067 -1.23108,-0.302606 -1.69288,0.0928 -0.28625,0.245101 -0.52047,0.597771 -0.52047,0.783712 0,0.185941 -0.14882,0.339897 -0.33072,0.342125 -0.22049,0.0027 -0.19844,0.08955 0.0661,0.260532 0.26458,0.170987 0.28663,0.257831 0.0661,0.260533 -0.18191,0.0021 -0.33073,0.182644 -0.33073,0.400926 0,0.218281 0.14182,0.396875 0.31515,0.396875 0.17333,0 0.0997,0.157535 -0.16361,0.35008 -0.26712,0.195318 -0.52771,0.794293 -0.58949,1.354926 -0.0609,0.552667 -0.2686,1.317866 -0.46155,1.700443 -0.39575,0.784683 -0.29159,1.357051 0.24694,1.357051 0.19892,0 0.45689,0.164187 0.57326,0.364858 0.11638,0.200673 0.62479,0.614195 1.12981,0.918942 1.19276,0.719749 4.52401,0.700189 5.64238,-0.03313 z m -20.71581,-0.475821 c 0,-0.421572 -0.75294,-1.095883 -1.03146,-0.923748 -0.41333,0.255452 0.007,1.20723 0.53315,1.20723 0.27407,0 0.49831,-0.127566 0.49831,-0.283482 z m -50.7569,-0.903164 c 0.59736,-1.317913 0.19033,-1.818973 -1.23674,-1.52247 -1.20352,0.250055 -1.33252,0.675023 -0.5295,1.744345 0.71306,0.949515 1.26683,0.879951 1.76624,-0.221875 z m 59.87258,-4.676658 c 0.37065,-0.168879 0.67391,-0.384469 0.67391,-0.479092 0,-0.09462 0.69903,-0.381434 1.5534,-0.637357 1.12308,-0.336418 1.63337,-0.640845 1.8421,-1.098959 0.17512,-0.384343 0.19137,-0.693802 0.0413,-0.786553 -0.30732,-0.189932 -0.85378,-2.150215 -0.84773,-3.040985 0.002,-0.363802 -0.25867,-0.899584 -0.58033,-1.190625 -0.32165,-0.291042 -0.70393,-0.945886 -0.84951,-1.455209 -0.25661,-0.897789 -0.3024,-0.924747 -1.50088,-0.883618 -0.72715,0.02495 -1.40923,0.215459 -1.6564,0.462624 -0.23111,0.23111 -0.70907,0.492701 -1.06213,0.581313 -0.60432,0.151677 -0.63249,0.2414 -0.48082,1.531833 0.15136,1.287838 0.11974,1.389562 -0.5229,1.682369 -0.3762,0.171407 -0.75992,0.614138 -0.85271,0.983846 -0.23958,0.954581 0.10246,2.5208 0.55051,2.5208 0.20483,0 0.75514,0.47625 1.22292,1.058334 0.89431,1.112845 1.36285,1.2554 2.46928,0.751279 z m 32.65007,-5.208661 c -0.0645,-2.882592 -0.19907,-4.319521 -0.43053,-4.598322 -0.45677,-0.550196 -1.6028,-0.745604 -3.23743,-0.552007 -1.23314,0.146048 -1.3454,0.213853 -1.18763,0.717315 0.0958,0.305811 0.24301,0.849962 0.32707,1.209224 0.15253,0.651839 0.15137,0.652234 -0.55496,0.189433 -0.58636,-0.384199 -0.88376,-0.416389 -1.73337,-0.187614 -0.56406,0.151886 -1.22134,0.201029 -1.46063,0.109207 -0.23928,-0.09182 -0.63898,0.0031 -0.88823,0.210854 -0.24924,0.207793 -0.78058,0.517336 -1.18077,0.687876 -0.40018,0.170539 -0.7321,0.520983 -0.73759,0.778764 -0.006,0.257781 -0.0758,0.922865 -0.15618,1.477964 -0.10968,0.757225 -0.0576,0.992539 0.20843,0.942269 0.19504,-0.03685 0.75245,0.02684 1.23869,0.141541 0.75048,0.17703 0.99257,0.104608 1.60198,-0.479247 0.39485,-0.378286 0.85029,-0.687792 1.0121,-0.687792 0.16182,0 0.33708,-0.128621 0.38948,-0.285824 0.0668,-0.200447 0.30155,-0.191836 0.78586,0.02883 0.49627,0.226115 0.73362,0.579879 0.84355,1.257256 0.18034,1.111322 1.69749,2.702359 2.04331,2.142817 0.11436,-0.185042 0.0972,-0.543387 -0.0382,-0.796323 -0.43145,-0.806169 -0.29144,-1.74402 0.28278,-1.894182 0.69123,-0.18076 0.85722,0.132123 0.65158,1.228268 -0.151,0.804877 -0.0984,0.913577 0.51633,1.067875 0.65364,0.164052 0.9738,0.690868 0.41986,0.690868 -0.14552,0 -0.26459,0.110781 -0.26459,0.246182 0,0.211156 0.37009,0.344778 1.41679,0.511537 0.12439,0.01982 0.18392,-1.850728 0.13229,-4.156767 z m -4.4595,-0.305119 c 0,-0.14552 0.18562,-0.264583 0.41249,-0.264583 0.22687,0 0.33891,0.119063 0.24897,0.264583 -0.0899,0.145521 -0.27556,0.264584 -0.41249,0.264584 -0.13693,0 -0.24897,-0.119063 -0.24897,-0.264584 z m 2.05052,-0.02334 c -0.49501,-0.286022 -0.63861,-1.034992 -0.19843,-1.034992 0.14552,0 0.26458,0.13728 0.26458,0.305067 0,0.167787 0.22232,0.04872 0.49406,-0.264583 0.27173,-0.313308 0.62891,-0.569651 0.79375,-0.569651 0.16483,0 0.29969,-0.119062 0.29969,-0.264583 0,-0.145521 0.11906,-0.264583 0.26458,-0.264583 0.49776,0 0.26532,0.540178 -0.35384,0.822283 -0.34013,0.154975 -0.72708,0.564553 -0.85989,0.910174 -0.19435,0.505756 -0.33184,0.576187 -0.7045,0.360867 z m -51.63727,3.900636 c 1.72221,-0.08422 2.254,-0.549687 2.09184,-1.830983 -0.15943,-1.259742 -1.08011,-1.592004 -2.45833,-0.887189 -0.49122,0.251207 -1.43785,0.339618 -3.02957,0.282948 -2.12838,-0.07578 -2.31831,-0.04123 -2.35479,0.428378 -0.0218,0.280941 -0.0516,0.640934 -0.0661,0.799984 -0.0409,0.446576 3.58224,1.653105 4.13015,1.375385 0.10332,-0.05237 0.8624,-0.128206 1.68684,-0.168523 z m 34.66185,-0.834587 c 0.3638,-0.363802 0.74944,-0.661458 0.85697,-0.661458 0.10753,0 0.40572,-0.355862 0.66265,-0.790804 0.33919,-0.574207 0.42296,-1.086972 0.30586,-1.872121 -0.0986,-0.661065 -0.0427,-1.22415 0.14373,-1.448829 0.23689,-0.28544 0.17217,-0.561624 -0.28984,-1.236733 -0.32717,-0.478072 -0.77606,-1.01682 -0.99753,-1.197218 -0.22148,-0.180397 -0.33032,-0.400357 -0.24188,-0.4888 0.22856,-0.228558 1.78494,0.736104 1.78494,1.106326 0,0.169251 0.3499,0.452661 0.77754,0.629798 0.42765,0.177138 1.25174,0.786895 1.83131,1.355016 1.12803,1.105747 1.46252,1.222563 2.01071,0.702219 0.19164,-0.181901 0.95705,-0.804631 1.7009,-1.383845 0.74385,-0.579213 1.35246,-1.156145 1.35246,-1.282072 0,-0.125927 0.22577,-0.546028 0.50172,-0.933557 0.75108,-1.054793 0.7566,-1.693675 0.0274,-3.174145 -0.49342,-1.001842 -0.8463,-1.384416 -1.38906,-1.505982 -0.40018,-0.08963 -0.72761,-0.272568 -0.72761,-0.406526 0,-0.133959 -0.19898,-0.243561 -0.44218,-0.243561 -0.24321,0 -0.63016,-0.164511 -0.8599,-0.36558 -0.22974,-0.201069 -0.68499,-0.447026 -1.01168,-0.54657 -0.48984,-0.149263 -0.69314,-0.01289 -1.15976,0.777966 -0.54487,0.92348 -0.61494,0.955934 -1.89421,0.877298 l -1.32841,-0.08166 -0.4096,1.719792 c -0.53203,2.233873 -0.86857,2.593246 -1.83091,1.955158 -0.52518,-0.348221 -1.24669,-0.480824 -2.66012,-0.488886 -1.58174,-0.009 -2.00629,-0.102421 -2.30172,-0.50636 -0.33411,-0.45682 -0.39559,-0.461958 -0.7914,-0.06615 -0.23604,0.236033 -0.81725,0.429151 -1.29159,0.429151 -0.67343,0 -0.94471,0.159453 -1.23787,0.727604 -0.20649,0.400182 -0.54272,0.858565 -0.74718,1.018628 -0.25457,0.199291 -0.31823,0.558575 -0.20198,1.139834 0.22191,1.109575 0.69577,1.553246 1.77119,1.658359 0.67407,0.06588 0.99036,0.288322 1.36346,0.958901 0.68672,1.234233 1.29459,1.803234 2.14442,2.007306 0.41032,0.09853 0.8654,0.459553 1.02736,0.81503 0.30347,0.666041 1.59815,1.447534 2.41525,1.457897 0.26128,0.0033 0.77271,-0.291632 1.13651,-0.655434 z m -35.48056,-3.525332 c 0.14424,-0.319376 0.76287,-0.771871 1.37474,-1.005545 0.8245,-0.314882 1.15217,-0.605584 1.26582,-1.123008 0.14982,-0.682116 0.042,-2.152201 -0.21594,-2.945074 -0.071,-0.218281 -0.20087,-0.724297 -0.28856,-1.124479 -0.1065,-0.486061 -0.32824,-0.727604 -0.66794,-0.727604 -0.84596,0 -0.84577,-0.437404 5.3e-4,-1.096187 0.71362,-0.55553 0.79453,-0.76104 0.74116,-1.882577 -0.0334,-0.701544 0.0797,-1.398574 0.2554,-1.57427 0.48153,-0.481582 0.3759,-1.003216 -0.20321,-1.003216 -0.28515,0 -0.80472,-0.308724 -1.1546,-0.686053 -0.48703,-0.525239 -1.00126,-0.729104 -2.19379,-0.869714 -0.85671,-0.101014 -1.70038,-0.271875 -1.87483,-0.379691 -0.18844,-0.116463 -0.42976,0.01432 -0.59454,0.322221 -0.23417,0.437541 -0.40858,0.480619 -1.11991,0.276611 -0.4634,-0.132902 -0.96369,-0.36278 -1.11175,-0.51084 -0.14806,-0.148061 -0.59265,-0.269201 -0.98799,-0.269201 -0.39533,0 -0.75847,-0.116366 -0.80698,-0.258592 -0.0485,-0.142225 -0.48204,-0.337081 -0.96341,-0.433012 -0.73374,-0.146225 -0.89761,-0.08876 -1.01378,0.355475 -0.0864,0.330549 -0.51678,0.643208 -1.14392,0.831104 -1.44722,0.433596 -1.81588,0.962986 -1.08358,1.55597 0.44675,0.361756 0.57003,0.733205 0.54934,1.65514 -0.0147,0.653789 -0.0358,1.57566 -0.0469,2.048603 -0.0217,0.923785 -0.46583,1.126155 -1.01618,0.46302 -0.18116,-0.218281 -0.49339,-0.396875 -0.69385,-0.396875 -0.20047,0 -0.36448,-0.105176 -0.36448,-0.233724 0,-0.128549 -0.23267,-0.294569 -0.51705,-0.368935 -0.35255,-0.09219 -0.65389,0.07364 -0.94718,0.521264 -0.23658,0.361061 -0.39086,0.686411 -0.34285,0.723 0.048,0.03659 0.66398,0.339934 1.36883,0.6741 0.70486,0.334166 1.59783,0.901197 1.98438,1.260069 0.81085,0.752787 2.14549,1.493716 2.34009,1.299114 0.33686,-0.336861 -0.27897,-1.813723 -0.86826,-2.082221 -0.35019,-0.159558 -0.63671,-0.403937 -0.63671,-0.543064 0,-0.269681 0.43419,-0.205338 2.47411,0.366643 1.24441,0.348923 1.29932,0.340328 1.80347,-0.28227 0.29743,-0.367311 0.46167,-0.865129 0.38374,-1.163131 -0.21025,-0.803981 0.29485,-1.493761 1.09383,-1.493761 1.13507,0 2.88341,0.787648 3.24403,1.461479 0.18259,0.34116 0.67325,0.76165 1.09036,0.934422 0.4171,0.172772 0.75837,0.404304 0.75837,0.514516 0,0.278381 -1.29886,0.723573 -2.22438,0.762419 -0.42304,0.01776 -0.92375,0.252982 -1.11269,0.522724 -0.22596,0.322606 -0.81597,0.546394 -1.72411,0.65395 -1.68668,0.199763 -2.07514,0.513209 -1.46777,1.184342 0.24394,0.269559 0.44354,0.582659 0.44354,0.695778 0,0.464566 1.50251,1.348979 2.50152,1.472453 0.95134,0.117582 1.128,0.256354 1.58878,1.248042 0.68941,1.48372 1.62012,1.768655 2.12507,0.650585 z m 10.84155,-3.528021 c 0.36123,-0.314084 0.79142,-0.979032 0.95598,-1.477663 0.41271,-1.250531 0.40603,-3.918746 -0.0111,-4.421327 -0.18673,-0.225014 -0.24715,-0.409116 -0.13425,-0.409116 0.1129,0 -0.24106,-0.433474 -0.78658,-0.963275 l -0.99185,-0.963275 -1.893,0.47617 c -1.04116,0.261893 -2.19067,0.496863 -2.55447,0.522155 -0.45758,0.03181 -0.68752,0.222725 -0.746,0.619396 -0.0465,0.315377 -0.19533,0.573412 -0.33073,0.573412 -0.1354,0 -0.24619,0.171843 -0.24619,0.381873 0,0.210029 -0.25384,0.559675 -0.56411,0.776991 -0.82737,0.579513 -0.76279,2.997862 0.0977,3.66023 0.32927,0.253444 0.77727,0.463396 0.99555,0.46656 0.81672,0.01184 4.49791,0.935091 4.49791,1.128088 0,0.413471 1.07802,0.180225 1.71109,-0.370219 z m 14.72065,-0.880573 c 0.20938,-0.08035 0.52968,-0.384652 0.71177,-0.676236 0.37706,-0.60376 0.0795,-1.424462 -0.76329,-2.105463 -0.5507,-0.444975 -0.97479,-2.381251 -0.52154,-2.381251 0.1545,0 0.28091,0.174005 0.28091,0.386677 0,0.234005 0.44398,0.498736 1.12448,0.670493 0.61846,0.156098 1.36724,0.384812 1.66395,0.508253 1.22807,0.510907 5.2065,1.372753 5.98117,1.295695 0.45888,-0.04565 0.92183,-0.261586 1.02878,-0.479867 0.77766,-1.587159 0.8421,-1.924869 0.71807,-3.763375 -0.0726,-1.076177 -0.31104,-2.306781 -0.52986,-2.734676 -0.21883,-0.427896 -0.47848,-1.152599 -0.57702,-1.610452 -0.20276,-0.942171 -0.69116,-1.439819 -1.93509,-1.971729 -0.47295,-0.202232 -0.8599,-0.44281 -0.8599,-0.534617 0,-0.217822 -1.3137,-0.477848 -3.36112,-0.66528 -1.63853,-0.150001 -1.64225,-0.148748 -2.18182,0.73629 -0.29728,0.487601 -0.54923,0.827015 -0.55991,0.754255 -0.0107,-0.07276 -0.0804,-0.842842 -0.15482,-1.711293 -0.27671,-3.226548 -0.46548,-3.293128 -9.36019,-3.301402 -3.77945,-0.0035 -6.87172,0.09762 -6.87172,0.224748 0,0.399838 1.75178,0.580102 2.95071,0.303638 1.4605,-0.336779 2.60554,-0.349883 2.60554,-0.02982 0,0.136605 -0.53579,0.328717 -1.19063,0.426917 -0.65484,0.0982 -1.19062,0.27564 -1.19062,0.394312 0,0.118672 -0.62508,0.40148 -1.38907,0.628462 -2.05566,0.610742 -2.58918,1.316339 -2.76095,3.651443 -0.12252,1.665572 -0.0708,2.007176 0.38154,2.521849 0.28779,0.327422 0.72757,0.595313 0.9773,0.595313 0.24972,0 0.84201,0.399501 1.3162,0.887781 0.82557,0.850114 0.95238,0.889956 2.98875,0.939037 1.61888,0.03902 2.22446,-0.0466 2.53648,-0.358614 0.46076,-0.460765 1.506,-0.555837 1.506,-0.136984 0,0.150088 -0.1786,0.328682 -0.39688,0.396875 -0.21828,0.06819 -0.60523,0.206024 -0.85989,0.30629 -0.25467,0.100266 -0.99747,0.309183 -1.65068,0.46426 -1.38137,0.327948 -2.03956,1.286883 -1.70345,2.4818 0.10955,0.389453 0.17456,0.856925 0.14448,1.038826 -0.0301,0.181901 0.062,0.330729 0.20472,0.330729 0.14268,0 0.29673,0.386953 0.34233,0.859896 0.0821,0.851999 0.10113,0.862951 2.06728,1.192596 4.64296,0.778438 8.02882,0.947813 9.28799,0.464624 z m -2.3257,-6.616174 c -0.34601,-0.242357 -0.51495,-0.581648 -0.43735,-0.878379 0.0695,-0.265918 -0.0691,-0.645726 -0.30798,-0.844018 -0.36918,-0.306393 -0.64341,-0.289491 -1.8262,0.112555 -0.76549,0.260197 -1.62008,0.421957 -1.89909,0.359468 -0.34117,-0.07641 -0.0713,-0.248579 0.82425,-0.525751 0.73235,-0.226673 1.80215,-0.664362 2.37733,-0.972642 0.57519,-0.30828 1.18765,-0.560509 1.36104,-0.560509 0.17338,0 0.36876,-0.208359 0.43417,-0.463021 0.0654,-0.254661 0.104,0.370417 0.0858,1.389063 -0.0182,1.018646 0.0688,2.060443 0.19337,2.315104 0.27862,0.569502 -0.0498,0.597288 -0.8053,0.06813 z m 30.07938,4.925881 c 0,-0.127331 0.35719,-0.302948 0.79375,-0.390261 0.72839,-0.145677 0.79375,-0.248848 0.79375,-1.25286 0,-0.945133 -0.16082,-1.252656 -1.1811,-2.258499 -1.28416,-1.265994 -2.12209,-1.687703 -3.35344,-1.687703 -0.61836,0 -0.77442,-0.103299 -0.69954,-0.463021 0.0617,-0.296247 0.30453,-0.440742 0.67424,-0.401168 0.62106,0.06648 1.91401,-1.514125 1.91401,-2.339834 0,-0.533014 -0.50429,-0.959928 -1.12118,-0.949149 -0.25284,0.0044 -1.12068,-0.216637 -1.92853,-0.491233 -1.68695,-0.57341 -2.14804,-0.426465 -2.77113,0.883125 -0.25076,0.527045 -0.75387,0.979233 -1.36656,1.228232 -1.19532,0.485789 -1.31971,0.677192 -1.11273,1.712123 0.1333,0.666462 0.29487,0.821687 0.85872,0.824976 0.38199,0.0022 0.86216,0.110172 1.06704,0.239875 0.39835,0.25218 1.61187,-0.162633 1.61187,-0.550979 0,-0.122163 0.35718,-0.222114 0.79375,-0.222114 1.12353,0 1.02859,0.690803 -0.12469,0.907158 -1.47212,0.276171 -2.18417,1.776238 -1.35908,2.863155 0.19331,0.254661 0.59263,0.46302 0.88738,0.46302 0.29474,0 0.87693,0.177861 1.29375,0.395245 0.41681,0.217385 1.14853,0.395979 1.62604,0.396875 0.52648,9.79e-4 0.92815,0.15784 1.0205,0.398506 0.0838,0.218281 0.37768,0.396875 0.65315,0.396875 0.27548,0 0.50086,0.119062 0.50086,0.264583 0,0.145521 0.11907,0.264583 0.26459,0.264583 0.14552,0 0.26458,-0.104179 0.26458,-0.23151 z m -85.43878,-4.001823 c 0.13362,0 0.24294,-0.119063 0.24294,-0.264584 0,-0.14552 -0.29765,-0.264583 -0.66145,-0.264583 -0.43115,0 -0.66146,0.148043 -0.66146,0.425183 0,0.279008 0.14388,0.369969 0.41851,0.264583 0.23019,-0.08833 0.52784,-0.160599 0.66146,-0.160599 z m 3.18908,0.03768 c 0.0924,-0.02072 0.36383,-0.336548 0.60318,-0.701833 0.33237,-0.50726 0.36861,-0.788523 0.15341,-1.190625 -0.23682,-0.442495 -0.19888,-0.52647 0.23782,-0.52647 0.28576,0 0.69817,0.178593 0.91645,0.396875 0.59453,0.594528 1.35943,0.479382 1.75759,-0.264584 0.1947,-0.363802 0.45294,-0.661458 0.57387,-0.661458 0.12093,0 0.21988,-0.165855 0.21988,-0.368568 0,-0.202712 0.16936,-0.433556 0.37635,-0.512987 0.20699,-0.07943 0.41535,-0.419592 0.46302,-0.755912 0.0781,-0.551069 0.23046,-0.613669 1.54188,-0.633532 0.95755,-0.0145 1.8158,-0.218091 2.50962,-0.595313 0.57993,-0.315299 1.31704,-0.573271 1.63803,-0.573271 0.32099,0 0.6572,-0.119063 0.74714,-0.264584 0.0899,-0.145521 0.30532,-0.260796 0.47864,-0.256169 0.17331,0.0046 0.0845,0.18284 -0.19732,0.396027 -0.48955,0.370305 -0.4927,0.428995 -0.0704,1.314502 0.24902,0.522204 0.64603,0.935006 0.90931,0.945479 0.93246,0.03709 2.60891,0.04267 3.72194,0.01238 1.03917,-0.02828 1.17159,-0.111393 1.52499,-0.957199 0.36792,-0.880562 0.35233,-0.978626 -0.31625,-1.988912 -0.42293,-0.639095 -0.97806,-1.122178 -1.39269,-1.211943 -0.3792,-0.08209 -1.01488,-0.272268 -1.41264,-0.422611 -0.39776,-0.150342 -1.1419,-0.194801 -1.65364,-0.0988 -0.86229,0.161766 -0.93045,0.12618 -0.93045,-0.485747 0,-0.363165 0.16062,-0.755513 0.35694,-0.871885 0.19633,-0.116371 0.43672,-0.539006 0.53421,-0.939188 l 0.17726,-0.727605 -7.08265,0.0036 c -3.89545,0.002 -7.35053,0.07541 -7.67795,0.163151 -0.73774,0.197706 -0.78303,0.626986 -0.0661,0.626986 0.29398,0 0.52917,0.176389 0.52917,0.396875 0,0.46692 0.43922,0.534417 0.58728,0.09025 0.0592,-0.177553 0.46211,0.0452 0.95721,0.529167 0.47025,0.459686 1.00499,0.835793 1.18832,0.835793 0.18332,0 0.84404,-0.47625 1.46827,-1.058334 0.62423,-0.582083 1.1845,-1.058333 1.24506,-1.058333 0.23876,0 0.091,0.510457 -0.24498,0.846457 -1.03521,1.035212 -1.0407,1.948759 -0.014,2.339093 0.36821,0.139994 0.63371,0.456141 0.63371,0.754603 0,0.282516 0.14883,0.566819 0.33073,0.631784 0.1819,0.06496 0.24657,0.208658 0.1437,0.319318 -0.10286,0.110661 -0.40052,0.109001 -0.66146,-0.0037 -0.53159,-0.229578 -1.93852,-0.406546 -3.08706,-0.388303 -0.94969,0.01508 -2.02784,0.841875 -2.47042,1.894475 -0.2987,0.710385 -0.27545,0.882056 0.20161,1.488531 l 0.53924,0.685537 -0.60702,0.33693 c -0.33387,0.185311 -0.8548,0.341149 -1.15763,0.346306 -0.31507,0.0054 -0.70714,0.301864 -0.91653,0.69312 -0.33647,0.628685 -0.3145,0.722541 0.27278,1.165523 0.5338,0.402654 1.46327,0.519792 2.42069,0.305077 z m 70.07002,-1.28343 c 0.65971,-0.2486 1.34779,-0.635553 1.52907,-0.859896 0.45931,-0.568416 0.36716,-3.939092 -0.1186,-4.338289 -0.20275,-0.166617 -0.51176,-0.460302 -0.68669,-0.652634 -0.17493,-0.192331 -0.51632,-0.569187 -0.75864,-0.837458 -0.3794,-0.420031 -0.59067,-0.44967 -1.52136,-0.213435 -0.59442,0.15088 -1.08077,0.378908 -1.08077,0.506728 0,0.12782 -0.24595,0.2324 -0.54656,0.2324 -1.1292,0 -1.50189,0.433002 -1.41436,1.643243 0.13973,1.932157 0.68502,4.444348 0.93159,4.291957 0.12906,-0.07976 0.49948,0.04047 0.82316,0.267181 0.75389,0.528047 1.35874,0.519581 2.84316,-0.0398 z m 2.83458,-3.744053 c 0.16895,-0.270537 0.693,-0.569048 1.16454,-0.663357 0.47155,-0.09431 1.02355,-0.408741 1.22667,-0.698739 0.20312,-0.289997 0.49013,-0.527268 0.63779,-0.527268 0.42694,0 1.02266,-0.709709 1.32592,-1.579617 0.15369,-0.440898 0.43365,-0.801633 0.62213,-0.801633 0.37341,0 0.61299,-0.459528 0.9311,-1.785938 l 0.20622,-0.859896 h -5.22432 c -2.87337,0 -5.56951,0.120882 -5.99141,0.268626 -0.63857,0.223623 -1.42006,1.123832 -1.91701,2.208233 -0.0574,0.125345 0.87753,0.183306 2.07772,0.128803 l 2.18216,-0.0991 1.34091,1.278893 c 0.81793,0.780109 1.2278,1.349019 1.05091,1.458697 -0.30724,0.190494 -0.41211,2.164179 -0.115,2.164179 0.096,0 0.31272,-0.221349 0.48167,-0.491886 z m -38.96967,-0.455795 c 0.26692,-0.695573 0.18542,-0.904402 -0.35295,-0.904402 -0.60886,0 -0.91398,0.404075 -0.70882,0.938711 0.19631,0.511587 0.86053,0.490124 1.06177,-0.03431 z m -7.03018,-1.2014 c 0.38355,-0.145826 1.10666,-0.674439 1.60692,-1.174695 0.50026,-0.500257 1.00877,-0.909558 1.13004,-0.909558 0.12127,0 0.22049,-0.714375 0.22049,-1.5875 v -1.5875 h -4.89479 c -4.08544,0 -4.89479,0.06304 -4.89479,0.38126 0,0.209694 0.11906,0.454845 0.26458,0.544782 0.35674,0.220481 0.33709,1.806038 -0.0269,2.17003 -0.21226,0.212261 -0.19338,0.49619 0.0695,1.044624 0.27394,0.57156 0.63127,0.810157 1.48211,0.989646 0.61663,0.130081 1.12114,0.354035 1.12114,0.497676 0,0.305723 2.85338,0.03741 3.92172,-0.368765 z m 56.93114,-2.28269 -10e-4,-2.844271 -1.23241,-0.07178 c -0.96849,-0.05641 -1.36483,0.05262 -1.85077,0.509141 -0.3401,0.319509 -0.61837,0.73026 -0.61837,0.912781 0,0.18252 -0.18014,0.511995 -0.40031,0.732166 -0.35736,0.35736 -0.32897,0.471652 0.26458,1.065206 0.3657,0.365692 0.6649,0.838435 0.6649,1.05054 0,0.242213 0.38455,0.450614 1.03393,0.560326 0.56866,0.09607 1.25327,0.340879 1.52135,0.544009 0.26809,0.20313 0.51719,0.373113 0.55357,0.377741 0.0364,0.0046 0.0656,-1.271507 0.0648,-2.835856 z m -22.86523,-0.09761 c 0.88407,-0.0313 1.71751,5.56e-4 1.85208,0.0708 0.75751,0.3954 1.23353,0.06815 1.29223,-0.888357 0.0724,-1.180138 0.57351,-1.863805 1.21649,-1.659732 0.25825,0.08197 0.55119,0.01692 0.65098,-0.144541 0.13138,-0.212576 -1.41364,-0.270292 -5.60013,-0.2092 l -5.78157,0.08437 -0.0795,0.684106 c -0.0437,0.376258 0.098,0.831447 0.315,1.011532 0.21699,0.180084 0.33152,0.491634 0.2545,0.692333 -0.10874,0.283384 0.26421,0.384813 1.66937,0.454008 0.99517,0.04901 1.988,0.06041 2.20628,0.02535 0.21828,-0.03507 1.12021,-0.08937 2.00429,-0.120666 z m -67.8149,-0.672354 c 0.36634,-0.100649 1.25227,-1.590989 1.25227,-2.106619 0,-0.05499 -1.13109,-0.09998 -2.51354,-0.09998 -1.49931,0 -2.51354,0.106762 -2.51354,0.264584 0,0.145521 0.18086,0.264583 0.40191,0.264583 0.29006,0 0.35837,0.173513 0.24545,0.623423 -0.23998,0.956157 0.50206,1.545392 1.69375,1.344959 0.5314,-0.08938 1.17656,-0.220305 1.4337,-0.29095 z"
       style="fill:#000000;stroke-width:0.264583" />
  </g>
</svg>
